<svg width="32768" height="9466" viewBox="0 0 32768 9466" fill="none" xmlns="http://www.w3.org/2000/svg">
<path d="M721.906 8.18111C730.651 210.418 729.499 389.245 713.352 595.274C631.302 1642.17 526.84 2687.83 424.86 3732.91C409.567 3889.64 381.417 4536.18 302.776 4796.68C293.65 4826.91 279.923 4855.81 274.004 4886.88C267.426 4921.42 215.983 4994.63 266.228 5019.08C496.343 5131.02 847.027 5038.72 1072.61 4974.75C1597.7 4825.84 2031.72 4499.38 2272.45 4001.19C2545.64 3435.84 2600.77 2774.57 2597.49 2155.93C2594.84 1654.55 2532.94 1078.67 2162.81 704.139C1621.79 156.682 660.75 288.726 8.06317 526.067" stroke="#EDA5F9" stroke-width="20" stroke-linecap="round"/>
<path d="M1253.79 945.974C1226.83 1387.44 1247.04 1829.53 1214.91 2271.02C1180.18 2748.22 1132.96 3226.42 1078.83 3701.81C998.354 4408.57 906.679 5132.32 610.708 5786.57C579.008 5856.65 545.005 5925.18 508.064 5992.64C485.451 6033.93 478.176 6023.32 501.065 6015.97C591.588 5986.87 724.786 6014.39 818.329 6012.08C1083.77 6005.52 1363.99 6007.37 1617.71 5919.54C1902.31 5821.03 2127.08 5624.61 2308.22 5388.44C2482.09 5161.76 2572.39 4878.72 2637.93 4603.83C2721.16 4254.73 2753.04 3876.78 2731.24 3518.3C2700.62 3014.77 2482.56 2460.74 2009.62 2222.8C1823.97 2129.4 1626.8 2113.39 1429.53 2058.73C1260.84 2011.98 1094.42 1952.09 920.973 1925.76C778.465 1904.13 863.314 1955.19 917.862 2009.74" stroke="#EDA5F9" stroke-width="20" stroke-linecap="round"/>
<path d="M3675.25 1967.75C3137.28 1966.07 2486.87 1884.41 2073.39 2306.01C1868.45 2514.97 1646.58 2855.35 1681.47 3165.26C1734.49 3636.17 2285.24 3715.54 2623.15 3507.41C3106.36 3209.78 3272.62 2594.07 3375.1 2073.5C3477.56 1553.06 3524.7 993.254 3505.74 462.303C3503 385.611 3493.31 92.522 3371.99 230.576C3296.23 316.785 3257.09 433.934 3224.24 541.619C3146.16 797.605 3126.38 1060.91 3115.38 1327C3078.81 2211.48 3324.04 3121.31 3129.37 3997.3" stroke="#EDA5F9" stroke-width="20" stroke-linecap="round"/>
<path d="M1715.69 3997.3C1979.2 4222.47 2227.51 4457.66 2594.38 4443.65C2904.46 4431.8 3286.92 4256.58 3442.75 3975.53C3596.16 3698.85 3373.74 3475.17 3120.04 3387.66C2828.31 3287.02 2421.19 3299.02 2168.25 3493.41C1927.21 3678.66 1832.33 4027.05 1832.33 4318.45C1832.33 4663.74 1989.2 4948.27 2274.01 5141.94C2555.28 5333.2 2914.29 5448.96 3255.35 5406.32C3659.44 5355.81 3901.91 5092.1 4165.15 4809.12" stroke="#EDA5F9" stroke-width="20" stroke-linecap="round"/>
<path d="M2779.45 3773.35C3021.52 3809.7 3283.37 3872.45 3529.06 3827.78C3672.28 3801.74 3823.82 3736.02 3948.97 3662.93C4218.58 3505.48 4454.38 3200.43 4473.08 2879.88C4489.24 2602.85 4255.52 2425.88 3994.07 2417.2C3669.08 2406.42 3373.11 2601.28 3211.8 2874.44C2855.53 3477.73 3177.15 4225.57 3804.34 4466.97C4136.02 4594.64 4528.44 4603.16 4849.44 4438.2C5275.88 4219.06 5463.86 3796.01 5648.82 3381.44" stroke="#EDA5F9" stroke-width="20" stroke-linecap="round"/>
<path d="M4067.17 2849.55C4315.63 2843.84 4556.96 2851.21 4765.46 2698.7C4937.48 2572.87 5080.45 2403.24 5145.71 2197.92C5248.05 1875.91 5097.22 1498.09 4725.02 1468.53C4347.51 1438.54 4132.59 1824.11 4035.29 2130.27C3971.12 2332.16 3955.52 2548.42 3993.29 2757.02C4043.07 3031.87 4280.75 3283.1 4519.73 3415.65C4763.09 3550.62 5091.86 3345.88 5295.79 3227.47C5430.37 3149.32 5648.66 3040.08 5718.8 2891.54C5843.53 2627.42 5832.91 2148.4 5427.98 2199.48C4985.17 2255.32 4723.47 2761.58 4723.47 3168.37C4723.47 3632.04 5083.19 3862.5 5365.77 4165.26C5465.54 4272.16 5554.86 4392.83 5564.84 4543.96C5577.91 4741.9 5457.11 4943.79 5321.45 5078.17C5051.07 5346 4493.4 5571.61 4128.6 5364.33C3753.18 5151.03 4083.01 4593.49 4261.57 4365.89C4644.8 3877.39 5180.17 3453.17 5715.69 3143.49C5876.06 3050.75 6042.18 2950.84 6225.02 2910.21C6244.67 2905.84 6422.6 2861.38 6385.21 2919.54C6293.02 3062.95 6240.63 3245.85 6180.7 3403.99C6093.07 3635.23 6029.75 3865.42 6009.63 4112.39C5998.46 4249.4 5989.23 4394.66 5935.76 4522.18C5887.23 4637.89 5821.08 4738.17 5701.7 4788.9C5541.05 4857.18 5394.61 4767.57 5353.33 4606.94C5311.04 4442.39 5374.8 4273.32 5451.31 4129.49C5583.45 3881.06 5770.59 3682.17 5977.75 3494.97C6167.61 3323.39 6371.43 3161.75 6602.94 3049.4C6623.86 3039.25 6950.53 2909.13 6950.53 2954.53C6950.53 3115.79 6984.04 3274.75 7003.41 3434.31C7043.94 3768.28 7069.3 4164.73 6947.42 4484.08C6849.49 4740.68 6643.02 5007.78 6343.22 5015.19C5903.14 5026.05 6095.81 4477.39 6205.58 4246.13C6449.35 3732.6 6768.53 3257.18 7118.49 2810.67C7301.14 2577.65 7884.62 1909.25 7675.26 2118.6C7626.17 2167.7 7620.54 2236.61 7606.83 2302.9C7507.53 2782.84 7454.59 3281.36 7435.76 3771.02C7428.74 3953.58 7377.75 4700.91 7734.36 4628.72C7929.63 4589.18 8091.72 4415.26 8204.03 4263.24C8380.65 4024.18 8452.71 3773.89 8532.18 3493.41" stroke="#EDA5F9" stroke-width="20" stroke-linecap="round"/>
<path d="M6502.63 2289.68C6511.15 2327.4 6535.41 2569.43 6603.72 2575.84C6643.79 2579.59 6694.67 2491.88 6709.47 2465.42C6782.04 2335.75 6789.08 2137.42 6689.26 2019.07C6576.55 1885.45 6389.39 1911.95 6288.01 2043.95C6235.69 2112.08 6216.56 2202.74 6235.13 2286.57C6258.78 2393.29 6334.53 2440.32 6404.65 2513.63" stroke="#EDA5F9" stroke-width="20" stroke-linecap="round"/>
<path d="M9204.03 2975.53C8907.09 2901.52 8594.95 2818.12 8302.79 2956.09C8146.7 3029.79 8009.44 3162.01 7896.1 3289.68C7659.13 3556.62 7506.83 4038.57 7648.04 4382.99C7777.66 4699.13 8139.06 4574.15 8339.34 4404.77C8631.27 4157.86 8818.41 3807.67 8901.55 3438.2C8932.69 3299.79 8950.58 3162.48 8952.09 3020.63C8952.77 2956.88 8950.74 2893.06 8952.87 2829.34C8953.49 2810.67 8954.58 2760.2 8966.09 2774.9C9022.79 2847.35 9028.48 3021.37 9043.07 3102.28C9089.52 3359.84 9114.47 3617.81 9126.27 3879.1C9167.35 4788.63 8967.83 5779.35 8361.11 6487.2C8038.39 6863.7 7581.31 7169.56 7115.38 7336.34C6604.31 7519.28 6031.18 7534.85 5495.63 7480.2C4971.32 7426.7 4423.4 7279.1 3989.41 6969.31C3578.18 6675.78 3219.05 6220.24 3043.06 5745.36C2585.24 4509.98 3671.67 3315.73 4830 3037.73C5443.73 2890.44 6078.86 2978.72 6605.27 3331.67C7067.21 3641.39 7471.2 4154 7609.94 4697.15C7825.37 5540.52 7397.89 6908.04 6323.78 6784.24C5975.77 6744.13 5560.8 6572.29 5345.55 6284.24C5144.43 6015.1 5146.18 5631.32 5277.12 5333.23C5411.87 5026.46 5764.4 4837.27 6068.73 4741.47C6342.51 4655.28 6675.92 4644.19 6961.42 4686.26C7174.44 4717.65 7464.39 4744.96 7501.85 4998.86C7531.52 5199.95 7443.36 5438.03 7328.45 5600.72C7233.66 5734.91 7055.01 5917.08 6874.33 5905.55C6722.8 5895.87 6657.65 5752.1 6634.82 5617.83C6601.17 5419.89 6732.97 5224.11 6833.11 5067.29C7008.43 4792.73 7238.65 4561.71 7468.42 4333.23C7720.04 4083.01 7988.65 3849.01 8281.79 3648.16C8593.95 3434.27 8920.41 3215.23 9274.02 3076.61C9571.83 2959.87 9905.9 2869.69 10223.5 2949.09C10493.8 3016.67 10620 3233.25 10667.5 3496.52C10719.8 3786.11 10699 4086.32 10577.3 4356.55C10412.3 4722.96 10086.2 5091.63 9701.7 5230.58C9098.46 5448.56 8469.37 4832.11 8767.8 4235.25C8918.26 3934.31 9260.71 3697.88 9553.96 3552.51C9821.2 3420.03 10195.1 3331.15 10441.2 3554.84C10710.2 3799.35 10792.3 4247.05 10793.5 4592.95C10795 5031.67 10652.5 5470.81 10449 5855.78C10278.3 6178.72 10038.3 6502.29 9665.93 6594.51C9382.91 6664.6 9023.41 6603.14 8759.24 6486.42C8507.75 6375.29 8421.52 6125.82 8488.64 5869.78C8530.32 5710.77 8613.13 5562.22 8696.26 5421.88C8836.53 5185.05 8991.18 4959.61 9155.82 4739.14C9482.28 4301.97 9838.09 3883.22 10197.8 3473.19C10344.6 3305.88 10498.3 3151.55 10665.9 3005.08C10815 2874.84 10972.5 2740.89 11161.3 2672.26C11468.1 2560.7 11499.5 2897.31 11499.5 3121.72C11499.5 3475.12 11435.5 3845.05 11365.8 4190.92C11331 4363.42 11209.6 4876.24 11232.8 4701.81C11302.3 4180.99 11274 3651.46 11502.6 3163.71C11576.7 3005.62 11667.2 2848.51 11787.2 2720.47C11845.3 2658.5 11867.2 2662.22 11927.2 2711.92C12115.4 2867.69 12132.5 3192.04 12140.3 3414.1C12147.1 3608.66 12133.9 3802.22 12115.4 3995.75C12099.3 4163.27 12061.5 4348.3 12083.5 4516.74C12117.5 4777.25 12378.8 4512.59 12448.2 4410.99C12630.3 4144.21 12619.3 3803.12 12619.3 3494.19C12619.3 3345.3 12623.1 3199 12647.3 3051.73C12665.2 2942.88 12684.4 2765.99 12781 2692.48C12836.1 2650.62 12903 2751.22 12928.8 2784.23C13040.8 2927.64 13096.6 3086.18 13113.1 3267.13C13131.8 3473.19 13120.4 3682.29 13109.2 3888.44C13102 4020.12 13053.7 4410.94 13087.4 4283.46C13172.6 3961.48 13208.5 3636.09 13278.7 3311.45C13318.7 3126.5 13360.5 2934.66 13437.3 2760.91C13494.6 2631.27 13587.9 2457.02 13728.1 2400.1C14003.9 2288.12 14100.8 2713.6 14129.4 2891.54C14178.2 3195.25 14173.5 3496.17 14117 3798.23C14084.1 3973.73 13996.3 4199.94 14042.3 4379.88C14113.3 4657.57 14467.4 4274.53 14536.9 4207.25" stroke="#EDA5F9" stroke-width="20" stroke-linecap="round"/>
<path d="M14410.9 4417.21C14401.2 4209.58 14415.6 4025.22 14290.4 3851.11C14147.2 3652.09 13911.3 3589.18 13672.9 3604.61C12992.1 3648.69 12270.5 4319.75 12376.7 5040.85C12413.7 5292.45 12630.5 5399.31 12865 5414.1C13210.3 5435.87 13531.5 5262.4 13780.2 5038.52C14087.5 4761.98 14313.7 4411.73 14557.9 4081.28C14679.4 3916.78 14796.5 3749.49 14911.7 3580.5C14965.9 3500.9 15018.4 3389.13 15092.1 3324.67C15128.7 3292.62 15030.5 3401.21 15009.6 3445.2C14888.4 3701.3 14815.4 3971.95 14921 4246.13C15019.5 4502.09 15202.1 4722.82 15288 4983.31C15389.2 5289.94 15119.5 5573.74 14856.5 5687.04C14359.8 5900.98 13666.5 5737.56 13465.3 5187.04C13375.8 4942.18 13535.8 4761.25 13734.4 4641.16C14058.5 4445.07 14404.8 4411.08 14774.8 4403.21" stroke="#EDA5F9" stroke-width="20" stroke-linecap="round"/>
<path d="M16107.8 3134.13C16030.4 3193.98 15771.9 3388.31 15697.6 3466.04C15612.3 3555.36 15593.5 3615.76 15755.5 3580.08C15922.8 3543.23 16229.4 3407.32 16371.7 3324.77C16492.1 3254.88 16650.4 3165.57 16571.6 3015.84C16426.1 2738.94 16112.9 2778 15871.2 2900.1C15573.4 3050.54 15464.3 3375.37 15440.6 3690.71C15430.8 3821.04 15425.6 3992.72 15516.4 4099.21C15605.8 4204.12 15755.7 4183.71 15878.1 4191.13" stroke="#EDA5F9" stroke-width="20" stroke-linecap="round"/>
<path d="M16735.9 2965.63C16429.7 3833.52 16159.8 4677.3 16043.2 5591.94C15929.2 6485.78 15851.1 7382.66 15786.1 8281.23" stroke="#EDA5F9" stroke-width="20" stroke-linecap="round"/>
<path d="M16965.7 4068.58C16675.3 3839.6 16342.7 3699.68 16033.8 3966.45C15873.1 4105.22 15621.5 4455.08 15779.3 4674.52C15995.5 4974.93 16483.9 4650.16 16663.6 4477.93C16825.4 4322.79 16961.3 4141.96 17069.5 3946.03C17076.8 3932.86 17197.6 3736.33 17172.5 3716.24C17122.8 3676.48 17092 3835.53 17084.8 3862.62C16967.3 4309.41 16952.3 4779.9 16912.1 5237.9C16812.9 6367.88 16705.3 7500.89 16705.3 8633.56" stroke="#EDA5F9" stroke-width="20" stroke-linecap="round"/>
<path d="M18237.1 3164.77C17794.1 3095.06 17334.1 3086.17 16987 3420.93C16790.2 3610.62 16680 4056.59 17037.2 4143.47C17414.6 4235.27 17797.5 3915.77 17973.3 3613.27C18075.9 3436.73 18147.4 3228.86 18186.9 3028.6C18187.3 3026.44 18218.5 2887.15 18167.3 2929.03C18116.1 2970.99 18092.8 3054.02 18075.4 3113.71C18011 3335.74 17971.3 3568.96 17930.8 3796.24C17845.8 4272.76 17770.6 4739.85 17739.3 5223.44C17709.7 5680.5 17657.9 6138.59 17643.1 6596.17C17634.2 6872.28 17626.4 7148.83 17624.4 7425.08C17623.4 7554.6 17625 7681.46 17593.7 7806.35" stroke="#EDA5F9" stroke-width="20" stroke-linecap="round"/>
<path d="M18635.4 3026.9C18591.7 3235.75 18498.7 3474.28 18513.7 3692.42C18520.6 3792.62 18574.5 3900.65 18674.6 3936.67C18827.4 3991.7 19019.9 3807.06 19120.5 3717.95C19161.1 3682 19169.2 3645.55 19156.3 3593.7" stroke="#EDA5F9" stroke-width="20" stroke-linecap="round"/>
<path d="M18788.6 2582.66C18806.7 2533.03 18856.4 2443.02 18826.1 2386.92C18799.8 2338.37 18728.5 2375.8 18701 2399.69C18644.3 2448.79 18677.2 2469.26 18727.3 2490.75" stroke="#EDA5F9" stroke-width="20" stroke-linecap="round"/>
<path d="M19370.7 3639.65C19405.5 3387.23 19453.5 2935.71 19765.6 2849.89C19850 2826.67 19944.7 2880.71 19992 2950.31C20101.3 3111.25 20002.7 3384.42 19946 3544.33C19896.4 3684.41 19827.7 3820.72 19730.7 3934.11C19702.9 3966.62 19618.8 4084.3 19563.1 4068.58C19308.2 3996.68 19275.4 3747.35 19278.8 3520.51C19283.5 3206.95 19890 2241.29 20194.5 2788.61C20297.4 2973.42 20282.4 3206.27 20271.1 3409.87C20258.4 3639.66 20226.5 3870.88 20197.9 4099.21C20170.4 4319.36 20093.8 4540.31 20026 4751.11C19974.4 4911.52 19893.1 5079.06 19796.2 5217.48C19705.3 5347.37 19575.6 5431.64 19447.3 5520.45C19308.6 5616.52 19176.8 5741.2 19030.3 5823.42C18892.7 5900.64 18737.3 5942.32 18582.7 5968.1C18337.7 6008.93 18102.2 6092.98 17853.3 6112.77C17467.8 6143.44 16871.9 6019.91 16684 5630.23C16474.1 5194.84 17004.8 4865.1 17326.5 4690.69C17705.7 4485.11 18131.8 4406.78 18558 4460.05C18698.3 4477.59 18774.3 4491.04 18826.9 4627.71C18880.2 4766.38 18762.7 4882.08 18672.9 4964.72C18562.7 5066.06 18402.2 5187.52 18261 5071.95C18160 4989.36 18374.5 4775.45 18429.5 4720.47C18567.8 4582.14 18795.2 4493.48 18984.3 4463.46C19545.2 4374.44 20198.6 4380.41 20582.6 4866.85C20873.8 5235.69 21057.1 5732.65 20773.2 6160.43C20575.2 6458.94 20149.5 6450.17 19860.9 6282.98C19239.5 5922.97 19925.8 5151.54 20320.5 4936.64C20505.9 4835.66 20771.2 4809.23 20914.5 4994.51C20971.9 5068.73 21008.3 5159.66 21039.6 5247.27C21053.2 5285.24 21093.6 5358.95 21083 5401.31C21061.7 5486.68 21076.2 5576.77 21067.7 5665.13C21051.8 5830.25 21053.6 5996.45 21043.9 6162.14C21018 6601.1 21019.7 7035.45 20940 7470.18C20907.1 7650.03 20830.5 7824.59 20756.2 7991.02C20655.8 8215.95 20540.8 8430.44 20387.7 8625.05C20268.5 8776.64 20108.3 8957.63 19906 8990.14C19712.8 9021.2 19527.5 8886.23 19402.2 8756.11C18961.6 8298.5 19388 7645.73 19754.5 7287.21C20021.8 7025.76 20319.7 6811.88 20664.3 6665.95C20963.5 6539.27 21289.2 6431.73 21619.2 6483.83C21787.7 6510.44 22027.6 6599.11 22078.7 6783.39C22134.2 6983.4 22004.6 7172.47 21864.3 7300.83C21583.3 7557.79 21003.1 7723.52 20691.5 7419.97C20612.8 7343.23 20647.8 7284.56 20669.4 7186.79C20736.5 6883.6 20871.3 6604.08 20994.5 6320.43C21152.9 5955.62 21327 5599.98 21511.9 5248.12C21756.1 4783.53 21920.1 4292.06 22043.8 3783.48C22145.3 3366.24 22185.2 2941.53 22203 2512.87C22212.4 2285.71 22217.6 2046.34 22140 1828.64C22054 1587.27 21791.1 1404.94 21538.3 1505.24C21316 1593.47 21192.6 1793.88 21118.8 2013.31C20991.4 2391.89 20970.9 2828.93 20957.9 3225.19C20944.6 3629.09 20993.3 4034.1 21032.8 4435.37C21065.4 4766.78 21112.7 5117.49 21239.6 5427.69C21310.5 5600.98 21415.5 5824.17 21607.3 5888.1C21805.4 5954.15 22013.8 5810.01 22157.9 5690.66C22537.1 5376.43 22797 4934.74 22839.6 4442.18C22863.1 4170.22 22845.9 3886.68 22816.6 3615.82C22787.1 3342.68 22748.5 3058.82 22595.3 2823.5C22560.8 2770.45 22502.4 2674.1 22432.8 2660.95C22398.5 2654.49 22374.4 2741.59 22363.8 2762.23C22228.3 3027.41 22144.5 3327.45 22083.8 3617.52C22002 4009.03 21975 4402.37 22014.1 4800.47C22040.2 5067.08 22084.3 5350.78 22259.2 5563C22370.1 5697.58 22540.4 5814.04 22725.5 5774.06C22932.7 5729.31 23123.7 5504.09 23231 5336.63C23431.4 5024.11 23543.2 4672.53 23629.3 4313.68C23709.8 3978.36 23867.1 3533.91 23745.1 3190.3C23662.7 2958.35 23407.1 3051.49 23280.4 3186.9C23069.9 3411.79 22950.5 3730.44 22885.5 4026.02C22828.3 4286.25 22796 4635.73 22904.2 4888.98C22990.5 5090.6 23206.1 5227.32 23406.4 5294.07C23714.4 5396.77 23971.8 5324.45 24248.9 5174.93C24566.3 5003.68 24858.6 4778.3 25062.5 4475.37C25225.1 4233.64 25400.2 3883.85 25350.1 3581.78C25303.8 3302.26 25014 3246.02 24778.2 3309.45C24102.1 3491.35 23901.7 4277.04 24199.5 4858.34C24501.4 5447.58 25356.3 5300.65 25819.9 5032.8C26061.5 4893.22 26249.9 4720.96 26345.8 4452.39C26408.6 4276.72 26372.1 4078.93 26192.7 3987.73C25989.9 3884.7 25743.5 3916.29 25559.5 4042.19C25402.2 4149.83 25318.4 4260.45 25321.2 4460.05C25323.9 4654.98 25332.5 5018.57 25554.4 5100.04C26106.1 5302.55 26822.8 5190.01 27280.3 4825.15C27425.7 4709.21 27650.6 4429.59 27455.6 4254.1C27307.1 4120.48 27086.6 4153 26924.6 4238.78C26854.4 4275.95 26587.6 4436.61 26664.1 4546.01C26725.2 4633.21 26779.8 4743.46 26863.3 4810.68C27076 4982.04 27380.8 5060.63 27649.6 5048.12C27834.2 5039.54 28017.9 4991.8 28185.8 4917.91C28265.2 4883 28342 4803.29 28392.6 4734.94C28437.3 4674.57 28513.4 4610.88 28516 4531.54C28524.1 4288.07 28263.8 4357.17 28148.4 4485.59C27983.4 4669.14 27981.2 4889.34 28228.3 4999.61C28458.3 5102.22 28689.8 5054.5 28929.6 5030.25C29210.6 5001.84 29497.6 4985.77 29779.8 4973.23C30225 4953.45 30674.4 4911.11 31120.2 4911.11C31660.3 4911.11 32237.3 4915.61 32759.3 4773.24" stroke="#EDA5F9" stroke-width="20" stroke-linecap="round"/>
<path d="M721.906 215.801C730.651 418.037 729.499 596.864 713.352 802.894C631.302 1849.79 526.84 2895.45 424.86 3940.53C409.567 4097.26 381.417 4743.8 302.776 5004.3C293.65 5034.53 279.923 5063.43 274.004 5094.5C267.426 5129.04 215.983 5202.25 266.228 5226.7C496.343 5338.64 847.027 5246.34 1072.61 5182.37C1597.7 5033.46 2031.72 4707 2272.45 4208.81C2545.64 3643.46 2600.77 2982.19 2597.49 2363.55C2594.84 1862.17 2532.94 1286.29 2162.81 911.758C1621.79 364.302 660.75 496.346 8.06317 733.687" stroke="#97F5DF" stroke-width="20" stroke-linecap="round"/>
<path d="M1253.79 1153.59C1226.83 1595.06 1247.04 2037.15 1214.91 2478.63C1180.18 2955.84 1132.96 3434.04 1078.83 3909.43C998.354 4616.19 906.679 5339.94 610.708 5994.19C579.008 6064.27 545.005 6132.8 508.064 6200.26C485.451 6241.55 478.176 6230.94 501.065 6223.59C591.588 6194.49 724.786 6222.01 818.329 6219.7C1083.77 6213.14 1363.99 6214.99 1617.71 6127.16C1902.31 6028.65 2127.08 5832.23 2308.22 5596.06C2482.09 5369.38 2572.39 5086.34 2637.93 4811.45C2721.16 4462.35 2753.04 4084.4 2731.24 3725.92C2700.62 3222.39 2482.56 2668.36 2009.62 2430.42C1823.97 2337.02 1626.8 2321.01 1429.53 2266.35C1260.84 2219.6 1094.42 2159.71 920.973 2133.38C778.465 2111.75 863.314 2162.81 917.862 2217.36" stroke="#97F5DF" stroke-width="20" stroke-linecap="round"/>
<path d="M3675.25 2175.37C3137.28 2173.69 2486.87 2092.03 2073.39 2513.63C1868.45 2722.59 1646.58 3062.97 1681.47 3372.88C1734.49 3843.79 2285.24 3923.16 2623.15 3715.03C3106.36 3417.4 3272.62 2801.69 3375.1 2281.12C3477.56 1760.68 3524.7 1200.87 3505.74 669.923C3503 593.231 3493.31 300.142 3371.99 438.196C3296.23 524.405 3257.09 641.554 3224.24 749.239C3146.16 1005.23 3126.38 1268.53 3115.38 1534.62C3078.81 2419.1 3324.04 3328.92 3129.37 4204.92" stroke="#97F5DF" stroke-width="20" stroke-linecap="round"/>
<path d="M1715.69 4204.92C1979.2 4430.09 2227.51 4665.28 2594.38 4651.27C2904.46 4639.42 3286.92 4464.2 3442.75 4183.15C3596.16 3906.47 3373.74 3682.79 3120.04 3595.28C2828.31 3494.64 2421.19 3506.64 2168.25 3701.03C1927.21 3886.28 1832.33 4234.67 1832.33 4526.07C1832.33 4871.36 1989.2 5155.89 2274.01 5349.56C2555.28 5540.82 2914.29 5656.58 3255.35 5613.94C3659.44 5563.43 3901.91 5299.72 4165.15 5016.74" stroke="#97F5DF" stroke-width="20" stroke-linecap="round"/>
<path d="M2779.45 3980.97C3021.52 4017.32 3283.37 4080.07 3529.06 4035.4C3672.28 4009.36 3823.82 3943.64 3948.97 3870.55C4218.58 3713.1 4454.38 3408.05 4473.08 3087.5C4489.24 2810.47 4255.52 2633.5 3994.07 2624.82C3669.08 2614.04 3373.11 2808.9 3211.8 3082.06C2855.53 3685.35 3177.15 4433.19 3804.34 4674.59C4136.02 4802.26 4528.44 4810.78 4849.44 4645.82C5275.88 4426.68 5463.86 4003.63 5648.82 3589.06" stroke="#97F5DF" stroke-width="20" stroke-linecap="round"/>
<path d="M4067.17 3057.17C4315.63 3051.46 4556.96 3058.83 4765.46 2906.32C4937.48 2780.49 5080.45 2610.86 5145.71 2405.54C5248.05 2083.53 5097.22 1705.71 4725.02 1676.15C4347.51 1646.16 4132.59 2031.73 4035.29 2337.89C3971.12 2539.78 3955.52 2756.04 3993.29 2964.64C4043.07 3239.49 4280.75 3490.72 4519.73 3623.27C4763.09 3758.24 5091.86 3553.5 5295.79 3435.09C5430.37 3356.94 5648.66 3247.7 5718.8 3099.16C5843.53 2835.04 5832.91 2356.02 5427.98 2407.1C4985.17 2462.94 4723.47 2969.2 4723.47 3375.99C4723.47 3839.66 5083.19 4070.12 5365.77 4372.88C5465.54 4479.78 5554.86 4600.45 5564.84 4751.58C5577.91 4949.52 5457.11 5151.41 5321.45 5285.79C5051.07 5553.62 4493.4 5779.23 4128.6 5571.95C3753.18 5358.64 4083.01 4801.11 4261.57 4573.51C4644.8 4085.01 5180.17 3660.79 5715.69 3351.11C5876.06 3258.37 6042.18 3158.46 6225.02 3117.83C6244.67 3113.46 6422.6 3069 6385.21 3127.16C6293.02 3270.57 6240.63 3453.47 6180.7 3611.61C6093.07 3842.85 6029.75 4073.04 6009.63 4320.01C5998.46 4457.02 5989.23 4602.28 5935.76 4729.8C5887.23 4845.51 5821.08 4945.79 5701.7 4996.52C5541.05 5064.8 5394.61 4975.19 5353.33 4814.56C5311.04 4650.01 5374.8 4480.94 5451.31 4337.11C5583.45 4088.68 5770.59 3889.79 5977.75 3702.59C6167.61 3531.01 6371.43 3369.37 6602.94 3257.02C6623.86 3246.87 6950.53 3116.75 6950.53 3162.15C6950.53 3323.41 6984.04 3482.37 7003.41 3641.93C7043.94 3975.9 7069.3 4372.35 6947.42 4691.7C6849.49 4948.3 6643.02 5215.4 6343.22 5222.81C5903.14 5233.67 6095.81 4685.01 6205.58 4453.75C6449.35 3940.22 6768.53 3464.8 7118.49 3018.29C7301.14 2785.27 7884.62 2116.87 7675.26 2326.22C7626.17 2375.32 7620.54 2444.23 7606.83 2510.52C7507.53 2990.46 7454.59 3488.98 7435.76 3978.64C7428.74 4161.2 7377.75 4908.53 7734.36 4836.34C7929.63 4796.8 8091.72 4622.88 8204.03 4470.86C8380.65 4231.8 8452.71 3981.51 8532.18 3701.03" stroke="#97F5DF" stroke-width="20" stroke-linecap="round"/>
<path d="M6502.63 2497.3C6511.15 2535.02 6535.41 2777.05 6603.72 2783.46C6643.79 2787.21 6694.67 2699.5 6709.47 2673.04C6782.04 2543.37 6789.08 2345.04 6689.26 2226.69C6576.55 2093.07 6389.39 2119.57 6288.01 2251.57C6235.69 2319.7 6216.56 2410.36 6235.13 2494.19C6258.78 2600.91 6334.53 2647.94 6404.65 2721.25" stroke="#97F5DF" stroke-width="20" stroke-linecap="round"/>
<path d="M8294.24 2357.33C8296.16 2454.61 8258.36 2668.43 8406.21 2594.5C8479.21 2558 8498.78 2489.05 8497.97 2410.21C8496.9 2307 8439.01 2236.81 8333.12 2229.02C8163.72 2216.57 8070.67 2326.56 7972.31 2441.31" stroke="#97F5DF" stroke-width="20" stroke-linecap="round"/>
<path d="M9204.03 3183.15C8907.09 3109.14 8594.95 3025.74 8302.79 3163.7C8146.7 3237.41 8009.44 3369.63 7896.1 3497.3C7659.13 3764.24 7506.83 4246.18 7648.04 4590.61C7777.66 4906.75 8139.06 4781.77 8339.34 4612.39C8631.27 4365.48 8818.41 4015.29 8901.55 3645.82C8932.69 3507.41 8950.58 3370.1 8952.09 3228.25C8952.77 3164.5 8950.74 3100.68 8952.87 3036.96C8953.49 3018.29 8954.58 2967.82 8966.09 2982.52C9022.79 3054.97 9028.48 3228.99 9043.07 3309.89C9089.52 3567.46 9114.47 3825.43 9126.27 4086.72C9167.35 4996.24 8967.83 5986.97 8361.11 6694.81C8038.39 7071.32 7581.31 7377.18 7115.38 7543.96C6604.31 7726.9 6031.18 7742.47 5495.63 7687.82C4971.32 7634.32 4423.4 7486.72 3989.41 7176.93C3578.18 6883.4 3219.05 6427.86 3043.06 5952.98C2585.24 4717.6 3671.67 3523.35 4830 3245.35C5443.73 3098.06 6078.86 3186.34 6605.27 3539.29C7067.21 3849.01 7471.2 4361.62 7609.94 4904.77C7825.37 5748.14 7397.89 7115.66 6323.78 6991.86C5975.77 6951.75 5560.8 6779.91 5345.55 6491.86C5144.43 6222.71 5146.18 5838.94 5277.12 5540.85C5411.87 5234.08 5764.4 5044.89 6068.73 4949.09C6342.51 4862.9 6675.92 4851.81 6961.42 4893.88C7174.44 4925.27 7464.39 4952.57 7501.85 5206.48C7531.52 5407.56 7443.36 5645.65 7328.45 5808.34C7233.66 5942.53 7055.01 6124.7 6874.33 6113.17C6722.8 6103.49 6657.65 5959.71 6634.82 5825.45C6601.17 5627.51 6732.97 5431.73 6833.11 5274.91C7008.43 5000.35 7238.65 4769.33 7468.42 4540.85C7720.04 4290.63 7988.65 4056.63 8281.79 3855.77C8593.95 3641.89 8920.41 3422.85 9274.02 3284.23C9571.83 3167.49 9905.9 3077.31 10223.5 3156.71C10493.8 3224.29 10620 3440.87 10667.5 3704.14C10719.8 3993.73 10699 4293.93 10577.3 4564.17C10412.3 4930.58 10086.2 5299.25 9701.7 5438.2C9098.46 5656.18 8469.37 5039.73 8767.8 4442.87C8918.26 4141.93 9260.71 3905.5 9553.96 3760.13C9821.2 3627.65 10195.1 3538.77 10441.2 3762.46C10710.2 4006.97 10792.3 4454.67 10793.5 4800.57C10795 5239.28 10652.5 5678.43 10449 6063.4C10278.3 6386.33 10038.3 6709.91 9665.93 6802.12C9382.91 6872.22 9023.41 6810.76 8759.24 6694.04C8507.75 6582.91 8421.52 6333.44 8488.64 6077.4C8530.32 5918.39 8613.13 5769.84 8696.26 5629.49C8836.53 5392.67 8991.18 5167.23 9155.82 4946.76C9482.28 4509.58 9838.09 4090.84 10197.8 3680.81C10344.6 3513.5 10498.3 3359.17 10665.9 3212.69C10815 3082.46 10972.5 2948.51 11161.3 2879.88C11468.1 2768.32 11499.5 3104.93 11499.5 3329.34C11499.5 3682.74 11435.5 4052.66 11365.8 4398.54C11331 4571.04 11209.6 5083.86 11232.8 4909.43C11302.3 4388.6 11274 3859.08 11502.6 3371.33C11576.7 3213.24 11667.2 3056.13 11787.2 2928.09C11845.3 2866.12 11867.2 2869.84 11927.2 2919.54C12115.4 3075.31 12132.5 3399.66 12140.3 3621.72C12147.1 3816.28 12133.9 4009.83 12115.4 4203.36C12099.3 4370.89 12061.5 4555.92 12083.5 4724.36C12117.5 4984.87 12378.8 4720.21 12448.2 4618.61C12630.3 4351.83 12619.3 4010.74 12619.3 3701.81C12619.3 3552.92 12623.1 3406.61 12647.3 3259.35C12665.2 3150.5 12684.4 2973.61 12781 2900.1C12836.1 2858.24 12903 2958.83 12928.8 2991.85C13040.8 3135.26 13096.6 3293.8 13113.1 3474.75C13131.8 3680.81 13120.4 3889.91 13109.2 4096.05C13102 4227.74 13053.7 4618.56 13087.4 4491.08C13172.6 4169.09 13208.5 3843.71 13278.7 3519.07C13318.7 3334.12 13360.5 3142.28 13437.3 2968.53C13494.6 2838.89 13587.9 2664.64 13728.1 2607.72C14003.9 2495.74 14100.8 2921.22 14129.4 3099.16C14178.2 3402.87 14173.5 3703.79 14117 4005.85C14084.1 4181.35 13996.3 4407.56 14042.3 4587.5C14113.3 4865.19 14467.4 4482.15 14536.9 4414.87" stroke="#97F5DF" stroke-width="20" stroke-linecap="round"/>
<path d="M14410.9 4624.83C14401.2 4417.2 14415.6 4232.84 14290.4 4058.73C14147.2 3859.71 13911.3 3796.8 13672.9 3812.23C12992.1 3856.31 12270.5 4527.37 12376.7 5248.47C12413.7 5500.07 12630.5 5606.93 12865 5621.72C13210.3 5643.49 13531.5 5470.02 13780.2 5246.14C14087.5 4969.6 14313.7 4619.35 14557.9 4288.9C14679.4 4124.4 14796.5 3957.11 14911.7 3788.12C14965.9 3708.52 15018.4 3596.75 15092.1 3532.29C15128.7 3500.24 15030.5 3608.83 15009.6 3652.82C14888.4 3908.92 14815.4 4179.57 14921 4453.75C15019.5 4709.71 15202.1 4930.44 15288 5190.93C15389.2 5497.56 15119.5 5781.36 14856.5 5894.66C14359.8 6108.6 13666.5 5945.18 13465.3 5394.66C13375.8 5149.8 13535.8 4968.87 13734.4 4848.78C14058.5 4652.69 14404.8 4618.7 14774.8 4610.83" stroke="#97F5DF" stroke-width="20" stroke-linecap="round"/>
<path d="M16107.8 3341.75C16030.4 3401.6 15771.9 3595.93 15697.6 3673.66C15612.3 3762.98 15593.5 3823.38 15755.5 3787.7C15922.8 3750.85 16229.4 3614.94 16371.7 3532.39C16492.1 3462.5 16650.4 3373.19 16571.6 3223.46C16426.1 2946.56 16112.9 2985.62 15871.2 3107.72C15573.4 3258.16 15464.3 3582.99 15440.6 3898.33C15430.8 4028.66 15425.6 4200.34 15516.4 4306.83C15605.8 4411.74 15755.7 4391.33 15878.1 4398.75" stroke="#97F5DF" stroke-width="20" stroke-linecap="round"/>
<path d="M16735.9 3173.25C16429.7 4041.14 16159.8 4884.92 16043.2 5799.56C15929.2 6693.4 15851.1 7590.28 15786.1 8488.85" stroke="#97F5DF" stroke-width="20" stroke-linecap="round"/>
<path d="M16965.7 4276.2C16675.3 4047.22 16342.7 3907.3 16033.8 4174.07C15873.1 4312.84 15621.5 4662.7 15779.3 4882.14C15995.5 5182.55 16483.9 4857.78 16663.6 4685.55C16825.4 4530.41 16961.3 4349.58 17069.5 4153.65C17076.8 4140.48 17197.6 3943.95 17172.5 3923.86C17122.8 3884.1 17092 4043.15 17084.8 4070.24C16967.3 4517.03 16952.3 4987.51 16912.1 5445.52C16812.9 6575.5 16705.3 7708.51 16705.3 8841.18" stroke="#97F5DF" stroke-width="20" stroke-linecap="round"/>
<path d="M18237.1 3372.39C17794.1 3302.68 17334.1 3293.79 16987 3628.55C16790.2 3818.24 16680 4264.21 17037.2 4351.09C17414.6 4442.89 17797.5 4123.39 17973.3 3820.89C18075.9 3644.35 18147.4 3436.48 18186.9 3236.22C18187.3 3234.06 18218.5 3094.77 18167.3 3136.65C18116.1 3178.61 18092.8 3261.64 18075.4 3321.33C18011 3543.36 17971.3 3776.58 17930.8 4003.86C17845.8 4480.38 17770.6 4947.47 17739.3 5431.06C17709.7 5888.12 17657.9 6346.21 17643.1 6803.79C17634.2 7079.9 17626.4 7356.45 17624.4 7632.7C17623.4 7762.22 17625 7889.08 17593.7 8013.97" stroke="#97F5DF" stroke-width="20" stroke-linecap="round"/>
<path d="M18635.4 3234.52C18591.7 3443.37 18498.7 3681.9 18513.7 3900.04C18520.6 4000.24 18574.5 4108.27 18674.6 4144.28C18827.4 4199.32 19019.9 4014.68 19120.5 3925.57C19161.1 3889.62 19169.2 3853.17 19156.3 3801.32" stroke="#97F5DF" stroke-width="20" stroke-linecap="round"/>
<path d="M18788.6 2790.28C18806.7 2740.65 18856.4 2650.64 18826.1 2594.54C18799.8 2545.99 18728.5 2583.42 18701 2607.31C18644.3 2656.41 18677.2 2676.88 18727.3 2698.37" stroke="#97F5DF" stroke-width="20" stroke-linecap="round"/>
<path d="M19370.7 3847.27C19405.5 3594.85 19453.5 3143.33 19765.6 3057.51C19850 3034.29 19944.7 3088.33 19992 3157.93C20101.3 3318.87 20002.7 3592.04 19946 3751.95C19896.4 3892.03 19827.7 4028.34 19730.7 4141.73C19702.9 4174.24 19618.8 4291.92 19563.1 4276.2C19308.2 4204.3 19275.4 3954.97 19278.8 3728.13C19283.5 3414.57 19890 2448.91 20194.5 2996.23C20297.4 3181.04 20282.4 3413.89 20271.1 3617.49C20258.4 3847.28 20226.5 4078.5 20197.9 4306.83C20170.4 4526.98 20093.8 4747.93 20026 4958.73C19974.4 5119.14 19893.1 5286.68 19796.2 5425.1C19705.3 5554.98 19575.6 5639.26 19447.3 5728.07C19308.6 5824.13 19176.8 5948.82 19030.3 6031.04C18892.7 6108.26 18737.3 6149.94 18582.7 6175.72C18337.7 6216.55 18102.2 6300.6 17853.3 6320.39C17467.8 6351.06 16871.9 6227.53 16684 5837.85C16474.1 5402.46 17004.8 5072.72 17326.5 4898.31C17705.7 4692.73 18131.8 4614.4 18558 4667.67C18698.3 4685.21 18774.3 4698.66 18826.9 4835.33C18880.2 4974 18762.7 5089.7 18672.9 5172.34C18562.7 5273.68 18402.2 5395.14 18261 5279.57C18160 5196.98 18374.5 4983.07 18429.5 4928.09C18567.8 4789.76 18795.2 4701.1 18984.3 4671.08C19545.2 4582.05 20198.6 4588.03 20582.6 5074.47C20873.8 5443.31 21057.1 5940.27 20773.2 6368.05C20575.2 6666.56 20149.5 6657.79 19860.9 6490.6C19239.5 6130.59 19925.8 5359.16 20320.5 5144.26C20505.9 5043.28 20771.2 5016.85 20914.5 5202.13C20971.9 5276.35 21008.3 5367.28 21039.6 5454.89C21053.2 5492.86 21093.6 5566.57 21083 5608.93C21061.7 5694.3 21076.2 5784.39 21067.7 5872.75C21051.8 6037.87 21053.6 6204.07 21043.9 6369.75C21018 6808.72 21019.7 7243.07 20940 7677.8C20907.1 7857.65 20830.5 8032.21 20756.2 8198.64C20655.8 8423.57 20540.8 8638.06 20387.7 8832.67C20268.5 8984.26 20108.3 9165.25 19906 9197.76C19712.8 9228.82 19527.5 9093.85 19402.2 8963.73C18961.6 8506.12 19388 7853.35 19754.5 7494.83C20021.8 7233.38 20319.7 7019.5 20664.3 6873.57C20963.5 6746.89 21289.2 6639.35 21619.2 6691.45C21787.7 6718.06 22027.6 6806.73 22078.7 6991.01C22134.2 7191.02 22004.6 7380.09 21864.3 7508.45C21583.3 7765.41 21003.1 7931.14 20691.5 7627.59C20612.8 7550.84 20647.8 7492.18 20669.4 7394.41C20736.5 7091.22 20871.3 6811.7 20994.5 6528.05C21152.9 6163.24 21327 5807.6 21511.9 5455.74C21756.1 4991.15 21920.1 4499.68 22043.8 3991.1C22145.3 3573.86 22185.2 3149.15 22203 2720.49C22212.4 2493.33 22217.6 2253.96 22140 2036.26C22054 1794.89 21791.1 1612.56 21538.3 1712.86C21316 1801.09 21192.6 2001.5 21118.8 2220.93C20991.4 2599.51 20970.9 3036.55 20957.9 3432.81C20944.6 3836.71 20993.3 4241.72 21032.8 4642.99C21065.4 4974.4 21112.7 5325.11 21239.6 5635.31C21310.5 5808.6 21415.5 6031.79 21607.3 6095.72C21805.4 6161.77 22013.8 6017.63 22157.9 5898.28C22537.1 5584.05 22797 5142.36 22839.6 4649.8C22863.1 4377.84 22845.9 4094.3 22816.6 3823.44C22787.1 3550.3 22748.5 3266.44 22595.3 3031.12C22560.8 2978.07 22502.4 2881.72 22432.8 2868.57C22398.5 2862.11 22374.4 2949.21 22363.8 2969.85C22228.3 3235.03 22144.5 3535.07 22083.8 3825.14C22002 4216.65 21975 4609.99 22014.1 5008.09C22040.2 5274.7 22084.3 5558.4 22259.2 5770.62C22370.1 5905.2 22540.4 6021.66 22725.5 5981.68C22932.7 5936.93 23123.7 5711.71 23231 5544.25C23431.4 5231.73 23543.2 4880.15 23629.3 4521.3C23709.8 4185.98 23867.1 3741.53 23745.1 3397.92C23662.7 3165.97 23407.1 3259.11 23280.4 3394.52C23069.9 3619.41 22950.5 3938.06 22885.5 4233.64C22828.3 4493.87 22796 4843.34 22904.2 5096.6C22990.5 5298.22 23206.1 5434.94 23406.4 5501.69C23714.4 5604.39 23971.8 5532.07 24248.9 5382.55C24566.3 5211.3 24858.6 4985.92 25062.5 4682.99C25225.1 4441.26 25400.2 4091.47 25350.1 3789.4C25303.8 3509.88 25014 3453.64 24778.2 3517.07C24102.1 3698.97 23901.7 4484.66 24199.5 5065.96C24501.4 5655.2 25356.3 5508.27 25819.9 5240.42C26061.5 5100.84 26249.9 4928.58 26345.8 4660.01C26408.6 4484.34 26372.1 4286.55 26192.7 4195.35C25989.9 4092.32 25743.5 4123.91 25559.5 4249.81C25402.2 4357.45 25318.4 4468.07 25321.2 4667.67C25323.9 4862.6 25332.5 5226.19 25554.4 5307.66C26106.1 5510.17 26822.8 5397.63 27280.3 5032.77C27425.7 4916.83 27650.6 4637.21 27455.6 4461.72C27307.1 4328.1 27086.6 4360.62 26924.6 4446.4C26854.4 4483.57 26587.6 4644.23 26664.1 4753.63C26725.2 4840.83 26779.8 4951.07 26863.3 5018.3C27076 5189.66 27380.8 5268.25 27649.6 5255.74C27834.2 5247.16 28017.9 5199.42 28185.8 5125.53C28265.2 5090.62 28342 5010.91 28392.6 4942.56C28437.3 4882.19 28513.4 4818.5 28516 4739.16C28524.1 4495.69 28263.8 4564.79 28148.4 4693.21C27983.4 4876.76 27981.2 5096.96 28228.3 5207.23C28458.3 5309.84 28689.8 5262.12 28929.6 5237.87C29210.6 5209.46 29497.6 5193.39 29779.8 5180.85C30225 5161.07 30674.4 5118.73 31120.2 5118.73C31660.3 5118.73 32237.3 5123.23 32759.3 4980.86" stroke="#97F5DF" stroke-width="20" stroke-linecap="round"/>
<path d="M721.906 471.333C730.651 673.57 729.499 852.397 713.352 1058.43C631.302 2105.32 526.84 3150.98 424.86 4196.07C409.567 4352.79 381.417 4999.33 302.776 5259.83C293.65 5290.06 279.923 5318.96 274.004 5350.03C267.426 5384.57 215.983 5457.78 266.228 5482.23C496.343 5594.18 847.027 5501.87 1072.61 5437.9C1597.7 5289 2031.72 4962.53 2272.45 4464.34C2545.64 3898.99 2600.77 3237.72 2597.49 2619.08C2594.84 2117.7 2532.94 1541.83 2162.81 1167.29C1621.79 619.834 660.75 751.878 8.06317 989.219" stroke="#EDA5F9" stroke-width="20" stroke-linecap="round"/>
<path d="M1253.79 1409.13C1226.83 1850.59 1247.04 2292.69 1214.91 2734.17C1180.18 3211.37 1132.96 3689.57 1078.83 4164.96C998.354 4871.72 906.679 5595.47 610.708 6249.72C579.008 6319.8 545.005 6388.33 508.064 6455.79C485.451 6497.08 478.176 6486.48 501.065 6479.12C591.588 6450.02 724.786 6477.54 818.329 6475.23C1083.77 6468.68 1363.99 6470.52 1617.71 6382.7C1902.31 6284.18 2127.08 6087.76 2308.22 5851.59C2482.09 5624.91 2572.39 5341.87 2637.93 5066.99C2721.16 4717.88 2753.04 4339.94 2731.24 3981.45C2700.62 3477.92 2482.56 2923.89 2009.62 2685.96C1823.97 2592.55 1626.8 2576.55 1429.53 2521.88C1260.84 2475.14 1094.42 2415.24 920.973 2388.91C778.465 2367.28 863.314 2418.34 917.862 2472.89" stroke="#92E685" stroke-width="20" stroke-linecap="round"/>
<path d="M3675.25 2430.9C3137.28 2429.22 2486.87 2347.56 2073.39 2769.16C1868.45 2978.12 1646.58 3318.5 1681.47 3628.41C1734.49 4099.33 2285.24 4178.7 2623.15 3970.56C3106.36 3672.93 3272.62 3057.22 3375.1 2536.66C3477.56 2016.21 3524.7 1456.41 3505.74 925.455C3503 848.763 3493.31 555.674 3371.99 693.728C3296.23 779.937 3257.09 897.086 3224.24 1004.77C3146.16 1260.76 3126.38 1524.06 3115.38 1790.15C3078.81 2674.63 3324.04 3584.46 3129.37 4460.45" stroke="#EDA5F9" stroke-width="20" stroke-linecap="round"/>
<path d="M1715.69 4460.45C1979.2 4685.62 2227.51 4920.81 2594.38 4906.8C2904.46 4894.96 3286.92 4719.73 3442.75 4438.68C3596.16 4162 3373.74 3938.32 3120.04 3850.81C2828.31 3750.17 2421.19 3762.18 2168.25 3956.56C1927.21 4141.81 1832.33 4490.2 1832.33 4781.6C1832.33 5126.89 1989.2 5411.42 2274.01 5605.09C2555.28 5796.35 2914.29 5912.11 3255.35 5869.48C3659.44 5818.96 3901.91 5555.25 4165.15 5272.27" stroke="#EDA5F9" stroke-width="20" stroke-linecap="round"/>
<path d="M2779.45 4236.5C3021.52 4272.85 3283.37 4335.61 3529.06 4290.93C3672.28 4264.9 3823.82 4199.17 3948.97 4126.08C4218.58 3968.63 4454.38 3663.58 4473.08 3343.03C4489.24 3066 4255.52 2889.04 3994.07 2880.36C3669.08 2869.57 3373.11 3064.44 3211.8 3337.59C2855.53 3940.88 3177.15 4688.73 3804.34 4930.13C4136.02 5057.79 4528.44 5066.32 4849.44 4901.36C5275.88 4682.21 5463.86 4259.16 5648.82 3844.59" stroke="#EDA5F9" stroke-width="20" stroke-linecap="round"/>
<path d="M4067.17 3312.71C4315.63 3306.99 4556.96 3314.36 4765.46 3161.85C4937.48 3036.02 5080.45 2866.39 5145.71 2661.07C5248.05 2339.07 5097.22 1961.24 4725.02 1931.68C4347.51 1901.69 4132.59 2287.26 4035.29 2593.42C3971.12 2795.31 3955.52 3011.57 3993.29 3220.17C4043.07 3495.02 4280.75 3746.26 4519.73 3878.8C4763.09 4013.77 5091.86 3809.03 5295.79 3690.62C5430.37 3612.48 5648.66 3503.24 5718.8 3354.7C5843.53 3090.57 5832.91 2611.55 5427.98 2662.63C4985.17 2718.48 4723.47 3224.73 4723.47 3631.52C4723.47 4095.19 5083.19 4325.65 5365.77 4628.42C5465.54 4735.31 5554.86 4855.98 5564.84 5007.11C5577.91 5205.05 5457.11 5406.94 5321.45 5541.33C5051.07 5809.15 4493.4 6034.76 4128.6 5827.48C3753.18 5614.18 4083.01 5056.64 4261.57 4829.04C4644.8 4340.54 5180.17 3916.32 5715.69 3606.64C5876.06 3513.91 6042.18 3413.99 6225.02 3373.36C6244.67 3368.99 6422.6 3324.53 6385.21 3382.69C6293.02 3526.11 6240.63 3709 6180.7 3867.14C6093.07 4098.39 6029.75 4328.58 6009.63 4575.54C5998.46 4712.55 5989.23 4857.82 5935.76 4985.34C5887.23 5101.04 5821.08 5201.32 5701.7 5252.06C5541.05 5320.33 5394.61 5230.72 5353.33 5070.1C5311.04 4905.54 5374.8 4736.48 5451.31 4592.65C5583.45 4344.21 5770.59 4145.32 5977.75 3958.12C6167.61 3786.54 6371.43 3624.9 6602.94 3512.55C6623.86 3502.4 6950.53 3372.28 6950.53 3417.68C6950.53 3578.94 6984.04 3737.91 7003.41 3897.47C7043.94 4231.43 7069.3 4627.88 6947.42 4947.23C6849.49 5203.84 6643.02 5470.94 6343.22 5478.34C5903.14 5489.21 6095.81 4940.54 6205.58 4709.29C6449.35 4195.75 6768.53 3720.33 7118.49 3273.83C7301.14 3040.8 7884.62 2372.4 7675.26 2581.76C7626.17 2630.85 7620.54 2699.77 7606.83 2766.05C7507.53 3245.99 7454.59 3744.51 7435.76 4234.17C7428.74 4416.73 7377.75 5164.06 7734.36 5091.87C7929.63 5052.33 8091.72 4878.41 8204.03 4726.39C8380.65 4487.33 8452.71 4237.04 8532.18 3956.56" stroke="#EDA5F9" stroke-width="20" stroke-linecap="round"/>
<path d="M6502.63 2752.83C6511.15 2790.55 6535.41 3032.59 6603.72 3038.99C6643.79 3042.74 6694.67 2955.03 6709.47 2928.57C6782.04 2798.9 6789.08 2600.57 6689.26 2482.22C6576.55 2348.6 6389.39 2375.1 6288.01 2507.11C6235.69 2575.23 6216.56 2665.89 6235.13 2749.72C6258.78 2856.44 6334.53 2903.47 6404.65 2976.78" stroke="#EDA5F9" stroke-width="20" stroke-linecap="round"/>
<path d="M8294.24 2612.86C8296.16 2710.15 8258.36 2923.96 8406.21 2850.03C8479.21 2813.53 8498.78 2744.58 8497.97 2665.74C8496.9 2562.53 8439.01 2492.34 8333.12 2484.56C8163.72 2472.1 8070.67 2582.09 7972.31 2696.84" stroke="#EDA5F9" stroke-width="20" stroke-linecap="round"/>
<path d="M9204.03 3438.68C8907.09 3364.67 8594.95 3281.27 8302.79 3419.24C8146.7 3492.95 8009.44 3625.16 7896.1 3752.83C7659.13 4019.77 7506.83 4501.72 7648.04 4846.14C7777.66 5162.28 8139.06 5037.3 8339.34 4867.92C8631.27 4621.01 8818.41 4270.82 8901.55 3901.35C8932.69 3762.94 8950.58 3625.64 8952.09 3483.78C8952.77 3420.04 8950.74 3356.22 8952.87 3292.49C8953.49 3273.83 8954.58 3223.35 8966.09 3238.05C9022.79 3310.5 9028.48 3484.52 9043.07 3565.43C9089.52 3822.99 9114.47 4080.96 9126.27 4342.26C9167.35 5251.78 8967.83 6242.51 8361.11 6950.35C8038.39 7326.85 7581.31 7632.71 7115.38 7799.49C6604.31 7982.43 6031.18 7998 5495.63 7943.35C4971.32 7889.85 4423.4 7742.25 3989.41 7432.46C3578.18 7138.93 3219.05 6683.39 3043.06 6208.51C2585.24 4973.13 3671.67 3778.89 4830 3500.89C5443.73 3353.59 6078.86 3441.87 6605.27 3794.82C7067.21 4104.54 7471.2 4617.15 7609.94 5160.3C7825.37 6003.67 7397.89 7371.19 6323.78 7247.39C5975.77 7207.28 5560.8 7035.44 5345.55 6747.39C5144.43 6478.25 5146.18 6094.47 5277.12 5796.38C5411.87 5489.61 5764.4 5300.43 6068.73 5204.62C6342.51 5118.43 6675.92 5107.34 6961.42 5149.41C7174.44 5180.8 7464.39 5208.11 7501.85 5462.01C7531.52 5663.1 7443.36 5901.19 7328.45 6063.88C7233.66 6198.06 7055.01 6380.23 6874.33 6368.7C6722.8 6359.03 6657.65 6215.25 6634.82 6080.98C6601.17 5883.04 6732.97 5687.27 6833.11 5530.44C7008.43 5255.89 7238.65 5024.86 7468.42 4796.38C7720.04 4546.16 7988.65 4312.16 8281.79 4111.31C8593.95 3897.42 8920.41 3678.38 9274.02 3539.77C9571.83 3423.02 9905.9 3332.84 10223.5 3412.24C10493.8 3479.82 10620 3696.41 10667.5 3959.67C10719.8 4249.26 10699 4549.47 10577.3 4819.71C10412.3 5186.11 10086.2 5554.79 9701.7 5693.74C9098.46 5911.71 8469.37 5295.26 8767.8 4698.4C8918.26 4397.46 9260.71 4161.03 9553.96 4015.66C9821.2 3883.18 10195.1 3794.3 10441.2 4017.99C10710.2 4262.5 10792.3 4710.2 10793.5 5056.1C10795 5494.82 10652.5 5933.96 10449 6318.93C10278.3 6641.87 10038.3 6965.44 9665.93 7057.66C9382.91 7127.75 9023.41 7066.29 8759.24 6949.57C8507.75 6838.45 8421.52 6588.98 8488.64 6332.93C8530.32 6173.92 8613.13 6025.37 8696.26 5885.03C8836.53 5648.2 8991.18 5422.76 9155.82 5202.29C9482.28 4765.12 9838.09 4346.37 10197.8 3936.35C10344.6 3769.03 10498.3 3614.71 10665.9 3468.23C10815 3337.99 10972.5 3204.05 11161.3 3135.41C11468.1 3023.85 11499.5 3360.46 11499.5 3584.87C11499.5 3938.28 11435.5 4308.2 11365.8 4654.08C11331 4826.57 11209.6 5339.39 11232.8 5164.96C11302.3 4644.14 11274 4114.61 11502.6 3626.86C11576.7 3468.77 11667.2 3311.66 11787.2 3183.62C11845.3 3121.65 11867.2 3125.37 11927.2 3175.07C12115.4 3330.84 12132.5 3655.19 12140.3 3877.25C12147.1 4071.82 12133.9 4265.37 12115.4 4458.9C12099.3 4626.42 12061.5 4811.45 12083.5 4979.89C12117.5 5240.4 12378.8 4975.74 12448.2 4874.14C12630.3 4607.36 12619.3 4266.27 12619.3 3957.34C12619.3 3808.45 12623.1 3662.15 12647.3 3514.88C12665.2 3406.03 12684.4 3229.14 12781 3155.63C12836.1 3113.78 12903 3214.37 12928.8 3247.39C13040.8 3390.79 13096.6 3549.34 13113.1 3730.28C13131.8 3936.34 13120.4 4145.45 13109.2 4351.59C13102 4483.27 13053.7 4874.09 13087.4 4746.61C13172.6 4424.63 13208.5 4099.24 13278.7 3774.6C13318.7 3589.65 13360.5 3397.81 13437.3 3224.06C13494.6 3094.42 13587.9 2920.17 13728.1 2863.25C14003.9 2751.27 14100.8 3176.75 14129.4 3354.7C14178.2 3658.4 14173.5 3959.33 14117 4261.38C14084.1 4436.88 13996.3 4663.09 14042.3 4843.03C14113.3 5120.72 14467.4 4737.69 14536.9 4670.41" stroke="#AA2BBF" stroke-width="20" stroke-linecap="round"/>
<path d="M14410.9 4880.36C14401.2 4672.74 14415.6 4488.37 14290.4 4314.26C14147.2 4115.25 13911.3 4052.33 13672.9 4067.76C12992.1 4111.85 12270.5 4782.9 12376.7 5504C12413.7 5755.6 12630.5 5862.46 12865 5877.25C13210.3 5899.03 13531.5 5725.55 13780.2 5501.67C14087.5 5225.13 14313.7 4874.88 14557.9 4544.43C14679.4 4379.94 14796.5 4212.65 14911.7 4043.66C14965.9 3964.05 15018.4 3852.28 15092.1 3787.82C15128.7 3755.77 15030.5 3864.36 15009.6 3908.35C14888.4 4164.45 14815.4 4435.1 14921 4709.29C15019.5 4965.24 15202.1 5185.98 15288 5446.46C15389.2 5753.09 15119.5 6036.89 14856.5 6150.19C14359.8 6364.13 13666.5 6200.71 13465.3 5650.19C13375.8 5405.33 13535.8 5224.4 13734.4 5104.31C14058.5 4908.22 14404.8 4874.23 14774.8 4866.36" stroke="#EDA5F9" stroke-width="20" stroke-linecap="round"/>
<path d="M16107.8 3597.29C16030.4 3657.13 15771.9 3851.46 15697.6 3929.19C15612.3 4018.51 15593.5 4078.91 15755.5 4043.23C15922.8 4006.38 16229.4 3870.47 16371.7 3787.92C16492.1 3718.03 16650.4 3628.72 16571.6 3478.99C16426.1 3202.09 16112.9 3241.15 15871.2 3363.25C15573.4 3513.69 15464.3 3838.52 15440.6 4153.87C15430.8 4284.19 15425.6 4455.87 15516.4 4562.37C15605.8 4667.27 15755.7 4646.86 15878.1 4654.28" stroke="#EDA5F9" stroke-width="20" stroke-linecap="round"/>
<path d="M16735.9 3428.78C16429.7 4296.67 16159.8 5140.45 16043.2 6055.09C15929.2 6948.93 15851.1 7845.81 15786.1 8744.38" stroke="#EDA5F9" stroke-width="20" stroke-linecap="round"/>
<path d="M16965.7 4531.73C16675.3 4302.75 16342.7 4162.83 16033.8 4429.6C15873.1 4568.37 15621.5 4918.24 15779.3 5137.67C15995.5 5438.08 16483.9 5113.31 16663.6 4941.08C16825.4 4785.94 16961.3 4605.12 17069.5 4409.18C17076.8 4396.02 17197.6 4199.48 17172.5 4179.4C17122.8 4139.63 17092 4298.69 17084.8 4325.78C16967.3 4772.56 16952.3 5243.05 16912.1 5701.06C16812.9 6831.03 16705.3 7964.04 16705.3 9096.71" stroke="#EDA5F9" stroke-width="20" stroke-linecap="round"/>
<path d="M18237.1 3627.92C17794.1 3558.21 17334.1 3549.32 16987 3884.09C16790.2 4073.77 16680 4519.75 17037.2 4606.62C17414.6 4698.42 17797.5 4378.92 17973.3 4076.42C18075.9 3899.88 18147.4 3692.01 18186.9 3491.76C18187.3 3489.59 18218.5 3350.31 18167.3 3392.18C18116.1 3434.14 18092.8 3517.17 18075.4 3576.86C18011 3798.89 17971.3 4032.11 17930.8 4259.39C17845.8 4735.91 17770.6 5203 17739.3 5686.59C17709.7 6143.65 17657.9 6601.74 17643.1 7059.32C17634.2 7335.44 17626.4 7611.98 17624.4 7888.23C17623.4 8017.75 17625 8144.61 17593.7 8269.5" stroke="#EDA5F9" stroke-width="20" stroke-linecap="round"/>
<path d="M18635.4 3490.05C18591.7 3698.9 18498.7 3937.43 18513.7 4155.57C18520.6 4255.77 18574.5 4363.8 18674.6 4399.82C18827.4 4454.85 19019.9 4270.21 19120.5 4181.1C19161.1 4145.16 19169.2 4108.71 19156.3 4056.85" stroke="#EDA5F9" stroke-width="20" stroke-linecap="round"/>
<path d="M18788.6 3045.81C18806.7 2996.18 18856.4 2906.18 18826.1 2850.07C18799.8 2801.52 18728.5 2838.95 18701 2862.84C18644.3 2911.95 18677.2 2932.41 18727.3 2953.9" stroke="#EDA5F9" stroke-width="20" stroke-linecap="round"/>
<path d="M19370.7 4102.8C19405.5 3850.39 19453.5 3398.87 19765.6 3313.04C19850 3289.82 19944.7 3343.86 19992 3413.46C20101.3 3574.4 20002.7 3847.57 19946 4007.49C19896.4 4147.56 19827.7 4283.87 19730.7 4397.26C19702.9 4429.77 19618.8 4547.45 19563.1 4531.73C19308.2 4459.84 19275.4 4210.51 19278.8 3983.66C19283.5 3670.1 19890 2704.44 20194.5 3251.76C20297.4 3436.58 20282.4 3669.42 20271.1 3873.02C20258.4 4102.81 20226.5 4334.03 20197.9 4562.37C20170.4 4782.51 20093.8 5003.46 20026 5214.26C19974.4 5374.67 19893.1 5542.21 19796.2 5680.63C19705.3 5810.52 19575.6 5894.79 19447.3 5983.6C19308.6 6079.67 19176.8 6204.36 19030.3 6286.57C18892.7 6363.79 18737.3 6405.48 18582.7 6431.25C18337.7 6472.08 18102.2 6556.13 17853.3 6575.93C17467.8 6606.59 16871.9 6483.06 16684 6093.39C16474.1 5657.99 17004.8 5328.25 17326.5 5153.84C17705.7 4948.26 18131.8 4869.93 18558 4923.21C18698.3 4940.74 18774.3 4954.2 18826.9 5090.86C18880.2 5229.54 18762.7 5345.23 18672.9 5427.87C18562.7 5529.21 18402.2 5650.67 18261 5535.1C18160 5452.52 18374.5 5238.6 18429.5 5183.62C18567.8 5045.29 18795.2 4956.63 18984.3 4926.61C19545.2 4837.59 20198.6 4843.56 20582.6 5330C20873.8 5698.84 21057.1 6195.81 20773.2 6623.59C20575.2 6922.09 20149.5 6913.32 19860.9 6746.13C19239.5 6386.12 19925.8 5614.7 20320.5 5399.79C20505.9 5298.81 20771.2 5272.39 20914.5 5457.66C20971.9 5531.89 21008.3 5622.81 21039.6 5710.42C21053.2 5748.39 21093.6 5822.1 21083 5864.46C21061.7 5949.83 21076.2 6039.93 21067.7 6128.28C21051.8 6293.4 21053.6 6459.6 21043.9 6625.29C21018 7064.26 21019.7 7498.6 20940 7933.34C20907.1 8113.18 20830.5 8287.74 20756.2 8454.17C20655.8 8679.1 20540.8 8893.59 20387.7 9088.2C20268.5 9239.79 20108.3 9420.78 19906 9453.29C19712.8 9484.36 19527.5 9349.38 19402.2 9219.26C18961.6 8761.65 19388 8108.89 19754.5 7750.36C20021.8 7488.91 20319.7 7275.04 20664.3 7129.1C20963.5 7002.42 21289.2 6894.88 21619.2 6946.98C21787.7 6973.59 22027.6 7062.26 22078.7 7246.55C22134.2 7446.56 22004.6 7635.62 21864.3 7763.98C21583.3 8020.94 21003.1 8186.67 20691.5 7883.12C20612.8 7806.38 20647.8 7747.71 20669.4 7649.94C20736.5 7346.76 20871.3 7067.23 20994.5 6783.58C21152.9 6418.77 21327 6063.13 21511.9 5711.27C21756.1 5246.68 21920.1 4755.21 22043.8 4246.63C22145.3 3829.39 22185.2 3404.68 22203 2976.03C22212.4 2748.86 22217.6 2509.5 22140 2291.79C22054 2050.42 21791.1 1868.09 21538.3 1968.39C21316 2056.62 21192.6 2257.03 21118.8 2476.47C20991.4 2855.04 20970.9 3292.08 20957.9 3688.35C20944.6 4092.24 20993.3 4497.26 21032.8 4898.53C21065.4 5229.93 21112.7 5580.64 21239.6 5890.84C21310.5 6064.13 21415.5 6287.33 21607.3 6351.25C21805.4 6417.3 22013.8 6273.16 22157.9 6153.81C22537.1 5839.58 22797 5397.89 22839.6 4905.33C22863.1 4633.37 22845.9 4349.83 22816.6 4078.97C22787.1 3805.83 22748.5 3521.98 22595.3 3286.66C22560.8 3233.6 22502.4 3137.25 22432.8 3124.11C22398.5 3117.64 22374.4 3204.74 22363.8 3225.38C22228.3 3490.56 22144.5 3790.6 22083.8 4080.68C22002 4472.18 21975 4865.52 22014.1 5263.62C22040.2 5530.23 22084.3 5813.93 22259.2 6026.15C22370.1 6160.73 22540.4 6277.19 22725.5 6237.21C22932.7 6192.47 23123.7 5967.24 23231 5799.78C23431.4 5487.26 23543.2 5135.68 23629.3 4776.83C23709.8 4441.51 23867.1 3997.06 23745.1 3653.45C23662.7 3421.5 23407.1 3514.64 23280.4 3650.05C23069.9 3874.95 22950.5 4193.59 22885.5 4489.18C22828.3 4749.4 22796 5098.88 22904.2 5352.13C22990.5 5553.75 23206.1 5690.48 23406.4 5757.23C23714.4 5859.92 23971.8 5787.6 24248.9 5638.08C24566.3 5466.84 24858.6 5241.45 25062.5 4938.53C25225.1 4696.79 25400.2 4347 25350.1 4044.93C25303.8 3765.41 25014 3709.17 24778.2 3772.6C24102.1 3954.51 23901.7 4740.19 24199.5 5321.49C24501.4 5910.73 25356.3 5763.81 25819.9 5495.96C26061.5 5356.37 26249.9 5184.12 26345.8 4915.55C26408.6 4739.87 26372.1 4542.08 26192.7 4450.88C25989.9 4347.85 25743.5 4379.44 25559.5 4505.35C25402.2 4612.99 25318.4 4723.61 25321.2 4923.21C25323.9 5118.13 25332.5 5481.73 25554.4 5563.19C26106.1 5765.7 26822.8 5653.16 27280.3 5288.3C27425.7 5172.36 27650.6 4892.74 27455.6 4717.25C27307.1 4583.63 27086.6 4616.15 26924.6 4701.94C26854.4 4739.1 26587.6 4899.76 26664.1 5009.16C26725.2 5096.36 26779.8 5206.61 26863.3 5273.84C27076 5445.19 27380.8 5523.78 27649.6 5511.28C27834.2 5502.69 28017.9 5454.95 28185.8 5381.07C28265.2 5346.15 28342 5266.44 28392.6 5198.09C28437.3 5137.72 28513.4 5074.03 28516 4994.69C28524.1 4751.22 28263.8 4820.32 28148.4 4948.74C27983.4 5132.29 27981.2 5352.49 28228.3 5462.77C28458.3 5565.37 28689.8 5517.65 28929.6 5493.4C29210.6 5464.99 29497.6 5448.92 29779.8 5436.38C30225 5416.6 30674.4 5374.26 31120.2 5374.26C31660.3 5374.26 32237.3 5378.76 32759.3 5236.39" stroke="#EDA5F9" stroke-width="20" stroke-linecap="round"/>
</svg>
