<?xml version="1.0" ?><!DOCTYPE svg  PUBLIC '-//W3C//DTD SVG 1.1//EN'  'http://www.w3.org/Graphics/SVG/1.1/DTD/svg11.dtd'><svg height="512px" style="enable-background:new 0 0 512 512;" version="1.1" viewBox="0 0 512 512" width="512px" xml:space="preserve" xmlns="http://www.w3.org/2000/svg" xmlns:xlink="http://www.w3.org/1999/xlink"><g id="youtube__x2C__social__x2C_media__x2C__icons_x2C_"><g><g><g><g><g><g><g><path d="M225.571,205.259c-0.293,0.23-0.594,0.957-0.165,1.018c0.295-0.341,0.59-0.682,0.886-1.023          C226.052,205.256,225.812,205.258,225.571,205.259z" style="fill:#373737;"/><path d="M226.791,208.733c0.724-0.333,1.746-1.056,2.057-2.272c-1.022,0.887-0.869,0.366-2.039,1.449          c-0.43-0.061-0.417-0.716-0.125-1.11c-0.288,0.229-0.413-0.561-1.002,0.064c-0.028,1.155,0.539,1.515,1.556,1.111          C227.23,208.303,226.937,208.536,226.791,208.733z" style="fill:#373737;"/><path d="M260.463,229.619c-0.049-0.086-0.098-0.173-0.146-0.259          C260.334,229.469,260.389,229.553,260.463,229.619z" style="fill:#373737;"/><path d="M281.515,241.945c-0.178-0.06-0.31,0.017-0.375,0.117          C281.332,242.068,281.495,242.065,281.515,241.945z" style="fill:#373737;"/><path d="M284.459,245.205c-0.059-0.08-0.115-0.131-0.173-0.195          C284.311,245.161,284.359,245.264,284.459,245.205z" style="fill:#373737;"/><path d="M260.463,229.619c0.124,0.227,0.249,0.453,0.374,0.679          C261.085,229.943,260.695,229.856,260.463,229.619z" style="fill:#373737;"/><path d="M233.109,208.577c-0.151-0.01-0.311,0.042-0.479,0.132c0.125,0.005,0.244,0.016,0.36,0.04          C233.03,208.691,233.064,208.642,233.109,208.577z" style="fill:#373737;"/><path d="M250.498,225.372c-0.059-0.031-0.117-0.063-0.175-0.094          c-0.124,0.103-0.259,0.237-0.403,0.392C250.112,225.57,250.305,225.471,250.498,225.372z" style="fill:#373737;"/><path d="M243.14,221.558c0.141,0.133,0.737-0.821,1.035-1.216c-0.314,0.355-0.542,0.481-0.728,0.478          C243.342,221.006,243.241,221.242,243.14,221.558z" style="fill:#373737;"/><path d="M232.56,213.473c-0.093,0.008-0.187,0.016-0.279,0.023          C232.356,213.483,232.468,213.494,232.56,213.473z" style="fill:#373737;"/><path d="M255.573,228.436c-0.068,0.152-0.112,0.295-0.127,0.388          C255.514,228.7,255.552,228.568,255.573,228.436z" style="fill:#373737;"/><path d="M219.036,217.145c0.08,0.007,0.131-0.002,0.201,0.001          C219.123,217.097,219.042,217.081,219.036,217.145z" style="fill:#373737;"/><path d="M224.591,207.599c0.021,0.045,0.041,0.089,0.062,0.134c0.214,0.016,0.425,0.032,0.634,0.034          C225.054,207.711,224.823,207.655,224.591,207.599z" style="fill:#373737;"/><path d="M290.434,250.09c-0.007-0.018-0.012-0.021-0.02-0.035          C290.177,250.072,290.287,250.106,290.434,250.09z" style="fill:#373737;"/><path d="M257.173,274.303c1.17,0.505-0.518,1.747,1.055,2.159          C257.922,276.129,258.347,274.407,257.173,274.303z" style="fill:#373737;"/><path d="M233.228,208.81c0.104,0.043,0.208,0.09,0.304,0.155          C233.413,208.858,233.32,208.811,233.228,208.81z" style="fill:#373737;"/><path d="M258.228,276.462c0.003,0.004,0.005,0.009,0.005,0.009c0.053,0.011,0.105,0.022,0.158,0.033          C258.323,276.486,258.285,276.478,258.228,276.462z" style="fill:#373737;"/><path d="M303.124,249.445c0.125,0.156,0.258,0.255,0.39,0.346          C303.454,249.693,303.352,249.589,303.124,249.445z" style="fill:#373737;"/><path d="M295.446,250.236c0.07,0.095,0.141,0.189,0.211,0.285          C295.595,250.37,295.521,250.29,295.446,250.236z" style="fill:#373737;"/><path d="M297.89,254.015c-0.195,0.007-0.321-0.1-0.462,0.145c0.046,0.039,0.084,0.064,0.129,0.085          C297.561,254.069,297.629,253.953,297.89,254.015z" style="fill:#373737;"/><path d="M291.672,257.341c0.074,0.058,0.147,0.091,0.223,0.137c0.052-0.049,0.113-0.107,0.167-0.157          C291.932,257.327,291.802,257.334,291.672,257.341z" style="fill:#373737;"/><path d="M219.682,238.701c0.316-0.154,0.666-0.249,1.012-0.323          C219.893,238.483,219.602,237.44,219.682,238.701z" style="fill:#373737;"/><path d="M232.81,209.133c0.173-0.229,0.293-0.322,0.418-0.323c-0.078-0.028-0.158-0.046-0.237-0.061          C232.893,208.885,232.813,209.022,232.81,209.133z" style="fill:#373737;"/><path d="M301.808,261.896c-0.355,0.128-0.711,0.256-1.066,0.384          C301.068,262.227,301.455,262.086,301.808,261.896z" style="fill:#373737;"/><path d="M220.077,289.58c-0.045-0.086-0.09-0.173-0.136-0.259          C219.917,289.422,219.95,289.513,220.077,289.58z" style="fill:#373737;"/><path d="M297.889,263.993c-0.363-0.252-0.658-0.354-0.921-0.382c0,0.099-0.013,0.187,0.021,0.314          C297.289,263.948,297.589,263.971,297.889,263.993z" style="fill:#373737;"/><path d="M220.706,238.375c-0.005,0.002-0.012,0.002-0.012,0.002S220.7,238.377,220.706,238.375z" style="fill:#373737;"/><path d="M217.993,230.94c-0.027,1.074,1.453,0.512,2.306,0.744c0.426,1.284-1.089,0.588-1.845,1.021          c0.396,0.802,1.759,1.422,1.704,2.019c-0.244,0.043-0.333,0.159-0.638,0.021c1.182,0.851,0.069,2.512,1.552,3.503          c-0.131,0.072-0.255,0.109-0.366,0.127c0.741-0.156,1.495-0.178,2.031-0.143c0.027,0.481,0.939,0.896-0.027,1.074          c0.027-0.294-0.364-0.321-0.667-0.46c0.141,0.168,0.282,0.337,0.423,0.505c-1.39,0.449-0.484-0.69-1.516-0.694          c0.458,0.985,1.615,2.135,1.225,2.887c-1.36,0.152-0.466-1.764-1.672-0.763c0.171-0.388,0.343-0.776,0.515-1.164          c-2.144,0.883,0.147-0.708-2.146,0.102c-0.387,1.533,0.701,1.719,0.312,3.248c0.758,0.348,1.119-0.11,1.876,0.237          c1.368,2.179-3.413,1.703-1.593,3.307c0.908,0.417,2.63,0.582,1.724,1.718c-0.513-0.13-1.026-0.261-1.539-0.392          c-0.145,1.485,2.214,0.853,1.187,2.406c-0.605-0.277-0.514-1.168-0.696-0.944c-1.209,1.004,0.875,0.714,0.878,1.489          c-0.454,0.053-0.907,0.105-1.36,0.158c0.221,1.583,1.212,3.326,1.468,5.078c-0.405-0.097-0.833-0.398-1.246,0.011          c0.689,2.209-0.145,4.715-0.941,6.848c0.393,0.271,0.785,0.542,1.177,0.813c-0.013,0.189-0.528,0.352-0.756,0.147          c-0.441,0.83,0.744,0.042,1.207,0.44c0.084,0.473-0.672,0.625-1.025,0.325c1.001,1.466,2.161,4.173,0.912,5.719          c-0.117-0.101-0.233-0.201-0.35-0.301c-0.47,1.203,2.409,1.353,1.32,2.47c-0.069-0.071-0.139-0.143-0.208-0.213          c-0.496,2.609,0.589,5.49-1.169,7.486c1.688,0.373-0.74,2.585,1.612,2.745c-1.159,1.493-1.58,1.068-2.354,3.17          c-0.105,0.562,1.471,0.831,1.72,1.522c-0.41,0.007-0.819,0.015-1.229,0.022c0.431,0.312,0.862,0.623,1.293,0.935          c-0.489,0.169-0.978,0.338-1.467,0.507c0.106,0.217,0.212,0.433,0.318,0.648c0.071-0.259,0.549-0.553,0.903-0.515          c0.56,1.012-0.844,2.479-1.473,2.507c0.35,0.799,0.699,1.598,1.049,2.396c-0.495-0.051-0.665-0.452-0.981-0.769          c1.258,1.276-1.292,0.24-0.138,1.409c0.277-0.159,0.731,0.08,0.979,0.105c-0.739,0.591-0.739,1.924-0.422,2.908          c-0.282-0.062-0.564-0.122-0.847-0.184c-0.008,0.088-0.016,0.176-0.025,0.276c-0.273,3.073-0.546,6.146-0.818,9.221          c3.07-1.41,6.142-2.818,9.216-4.225c1.537-0.703,2.899-2.101,4.557-3c-0.811-0.005-1.368-1.38-0.927-1.785          c0.275,0.345,0.549,0.69,0.824,1.035c-0.055-0.892-0.766-0.141-0.56-1.381c0.721-0.226,1.141,1.063,0.97,1.643          c0.191-0.278,0.382-0.557,0.574-0.834c0.231,0.316,0.145,0.6,0.332,1.063c-0.061-0.892,1.983,0.398,1.783-1.096          c0.076,0.105,0.152,0.211,0.229,0.317c1.741-0.949,2.316-1.778,3.7-2.615c-0.506-1.005,0.166-1.089,0.156-2.121          c1.211-0.257,2.785-0.115,3.995-0.888c0.615-0.977-0.195-0.979-0.116-1.783c0.551,0.863,1.758,0.092,1.457,1.095          c1.427-0.973,1.827-1.233,3.337-3.009c-0.407-0.257-0.725-0.289-0.771-0.662c0.266-0.338,0.991-0.054,1.174,0.406          c-0.014,0.047-0.028,0.095-0.042,0.143c1.411-2.521,6.352-0.079,7.044-2.885c-0.015,0.048-0.03,0.097-0.045,0.145          c0.413-0.647,0.827-1.295,1.24-1.942c0.897-0.288-0.123,0.942,0.778,1.17c1.099-2.541,3.131-1.427,4.163-3.281          c2.646,1.988,4.218-2.535,6.773-1.736c-0.144-0.19-0.288-0.381-0.432-0.571c0.094-0.844,0.706,0.078,1.097,0.05          c-0.307-0.459-0.765-0.311-0.683-0.793c3.193-2.704,7.92-3.115,11.917-4.549c1.44-0.563-0.971-3.637,1.534-3.07          c0.047,0.473,0.093,0.945,0.14,1.417c1.98-2.856,5.604-2.958,7.644-5.57c-0.015,0.352,0.166,0.701-0.097,0.837          c1.016,0.535,2.109-1.081,1.75-1.771c0.459-0.146,0.43,0.567,0.874,0.778c0.834,0.19,0.846-1.834,1.597-1.161          c0.123,0.109-0.013,0.357-0.082,0.478c0.15-0.604,1.776-0.819,0.9-1.597c1.253-0.077,1.69-1.46,2.8-1.316          c-0.061-1.361,1.999-0.398,1.342-2.018c0.778,1.619,2.447,0.332,2.683-0.749c0.044,0.591,0.818,0.198,0.926,0.993          c0.713-0.41,1.22-1.058,0.656-1.802c2.354,1.176,1.868-2.953,3.924-0.934c0.821-0.966,1.64-1.848,2.383-2.615          c1.929-1.995,3.858-3.989,5.79-5.98c-1.91-0.441-3.819-0.883-5.729-1.325c-1.29-0.299-2.435-0.602-3.535-0.951          c0.943-1.531,2.215,0.999,3.049-0.693c-2.186-0.346-3.988,0.429-5.589-0.934c-0.351-0.469,0.645-0.536,0.953-0.718          c-2.186-0.345-3.451-2.062-5.551-2.091c0.086-0.144,0.349-0.208,0.582-0.238c-0.35-0.122-0.616-0.636-0.978,0.098          c0.14-0.008,0.279-0.016,0.42-0.023c-0.064,1.314-2.474,1.473-2.835,1.989c1.681-1.751-1.32-1.388,0.979-3.504          c-0.286,0.021-0.738,0.214-0.955,0.719c-0.236-0.31-0.181-0.643,0.438-1.013c-1.363-0.237-1.377,0.745-2.408,0.163          c0.196-0.345,0.48-0.364,0.813-0.711c-0.901,0.388-1.804,0.774-2.521,0.003c0.168-0.179,0.217-0.506,0.476-0.359          c-1.567-0.717-3.569,0.396-4.863-1.16c1.32-1.236-0.291-0.802,0.342-2.151c-0.369-0.033-0.737-0.065-1.106-0.098          c0.003,0.275,0.006,0.551,0.009,0.826c-0.769-0.447-1.983,0.125-2.418-0.668c0.292-0.073,0.584-0.147,0.876-0.22          c-0.533-0.184-1.066-0.367-1.6-0.551c0.185,0.315,0.37,0.63,0.556,0.945c-1.161,0.241-0.827,1.694-1.666,0.765          c0.285-0.019-0.772-0.442-0.755-1.432c0,0,0.002,0.001,0.004-0.002c-0.615,0.204-1.254,0.424-1.653-0.215          c0.08-0.498,0.917-1.375,0.973-1.706c-0.982,0.881-1.997-0.697-3.121,0.2c0.313-0.185,0.698-0.864,0.722-1.032          c-0.27,0.237-0.539,0.473-0.809,0.71c-0.206-0.48-0.183-0.647,0.177-1.16c-1-0.756-0.566,1.842-1.465,0.424          c0.141-0.016,0.165-0.175,0.451-0.194c-1.094-1.081-2.819-0.809-3.772-1.896c0.371-1.504,1.221,0.249,1.427-1.078          c-1.852-0.704-4.431-0.375-5.926-1.597c0.076,0.105,0.153,0.21,0.23,0.315c-1.251,1.728-0.737-1.594-2.061-1.182          c0.281-0.024,0.836-0.881,0.667-0.705c-0.978-0.922-2.585-0.822-4.637-1.185c0.159-0.12,0.318-0.24,0.477-0.36          c-0.438-0.793-1.634-1.215-2.243-1.832c-0.477,0.357-0.85,0.052-0.979,0.883c-0.75-3.944-5.077-0.893-5.824-4.249          c0.241,0.126,0.796-0.105,0.608-0.212c-0.646-0.164-1.292-0.328-1.938-0.492c-0.309,0.882-0.046,0.612-0.036,1.438          c-0.478,0.361-1.161,0.47-1.581,0.239c1.057-0.117,0.707-1.303,0.625-1.935c-0.081,0.278-0.344,0.49-0.455,0.757          c-0.096-1.927-1.041,1.545-1.719-0.088c0.099-0.13,0.198-0.26,0.298-0.39c-0.572-0.032-1.297,0.3-1.719-0.089          c0.311-1.047,0.722-0.172,1.175-0.925c-0.715-0.323-2.326,1.029-2.435-0.245c0.434-0.101,0.856,0.125,1.29,0.026          c-0.074-1.47-0.305-1.234-0.712-1.685c0.012,0.017,0.023,0.034,0.035,0.051c-0.296-0.379-0.592-0.758-0.889-1.137          c0.044,0.154,0.089,0.307,0.133,0.46c-2.197,1.969-1.993-0.517-4.026,0.446c1.953-0.895,0.665-0.774,1.333-1.788          c-0.134-0.457-0.403-1.034-0.111-1.263c-1.016,0.555-0.544-1.177-2.001-0.351c0.153-0.361-0.567-0.356,0.026-1.146          c-0.858-0.124-0.157,0.687-0.452,1.083c-1.735,0.563-1.803-2.837-4.258-2.104c-1.722-0.092-2.603,0.923-4.18,0.801          c-0.128-0.783,1.029-1.054,1.029-1.054c-0.413-0.883-0.98-1.076-1.843-1.042c0.294-0.226,0.296-0.553,0.309-1.047          c-0.569-0.197-1.028,1.055-1.439,0.171c0.326-0.316,0.81-0.844,1.271-1.088c-0.786-0.023-1.741,0.281-2.543,0.239          c0.157-0.689,0.877-0.693,1.313-0.958c-0.86-0.126-2.144-0.481-2.879,0.341c0.091,0.197,0.183,0.394,0.274,0.59          c-0.286-0.098,0.308-0.885,0.594-0.951c1.015-0.402,0.704,0.814,0.55,1.177c-0.19-0.01-0.381-0.02-0.571-0.03          c-0.63,2.265,1.991,0.68,2.838,1.299c-0.392,0.417-0.784,0.834-1.175,1.251c0.531-0.232,1.063-0.464,1.594-0.697          c-0.009,0.489-0.317,1.38-0.886,1.351c0.259,1.08,0.861-0.201,0.982,0.913c-0.006,0.159-0.073,0.214-0.161,0.24          c0.292-0.027,0.583-0.055,0.874-0.083c-0.292,0.237-0.457,1.088-0.732,0.662c0.683,1.472,2.441-0.078,2.268,1.265          c-0.048,0.012-0.097,0.025-0.145,0.037c1.855,0.381,0.738-0.988,2.614-1.588c-0.214,1.027-0.429,2.055-0.643,3.083          c0.247-0.328,0.494-0.657,0.741-0.985c0.143,0.129,0.422,0.387,0.128,0.782c1.009-0.397,0.15-0.522,0.882-1.02          c0.255,1.409,2.42,0.739,1.665,2.543c0.728-0.658-0.409-1.042,0.741-1.146c-0.764,1.966,1.143,0.221,1.401,1.458          c-0.738,0.825-1.145-0.051-0.888,1.19c1.309-1.361,1.208,1.12,1.981,1.147c0.725-1.257,1.608,0.195,2.857,0.33          c-0.298,0.392,1.53,1.751,2.224,2.731c-0.048,0.066-0.097,0.132-0.145,0.198c0.888-1.186,1.73-0.407,2.586-0.284          c-0.451,0.756-0.745,0.988-1.318,1.122c0.223,0.12,0.447,0.24,0.67,0.361c0.383-0.326,0.71-0.429,1.224-0.338          c-0.231,0.29-0.463,0.579-0.695,0.869c0.917,0.435,2.409-0.149,3.199,1.12c0.557-0.862,0.461-2.995,1.999-2.93          c-0.222,0.509-0.632,1.362-1.057,1.387c0.139-0.007,0.59-0.2,0.686,0.122c-0.31,0.184-0.62,0.367-0.93,0.55          c0.324,0.644,0.646-0.531,1.02-0.228c-0.388,0.687,0.037,0.662-0.324,1.178c-0.143,0.009-0.206-0.485-0.514-0.301          c0.401,0.382,0.743,1.103,0.643,1.729c0.175-0.416,0.51-0.931,0.903-0.832c0.915,0.437-0.153,0.998,0.17,1.637          c0.478-0.362,0.771,0.446,1.354-0.579c0.256,0.148,0.039,0.656-0.014,0.991c0.71-0.204,2.216,1.045,2.302-0.336          c-0.025-0.046-0.051-0.091-0.077-0.137c0.033-0.009,0.06,0.004,0.101-0.004c-0.004-0.002-0.001,0-0.004-0.002          c0.001,0.001,0.002,0.001,0.004,0.002c2.069-0.2,2.807,2.297,4.541,2.673c-0.063,0.114-0.128,0.229-0.192,0.343          c1.109,0.093,2.111,0.852,3.156,0.457c0.263,0.145,0.275,0.971-0.063,1.32c0.823,0.112,1.113-0.233,1.783,0.874          c-1.017,0.229-0.058,0.663-0.944,0.058c0.722,0.782,0.617,1.444,2.086,1.02c-0.811,0.708,0.053,1.476,0.618,1.442          c-0.09-0.324-0.181-0.647-0.271-0.971c0.543,0.129,0.913,0.433,1.291,0.738c-0.289,0.346-0.578,0.692-0.866,1.039          c1.03,2.401,4.586-0.626,4.659,2.492c0.927-0.553-0.667-1.109,0.285-1.826c0.745,0.611,0.691,2.751,0.95,2.896          c0.784,1.265,1.999-1.118,2.947-0.028c0.076-0.497,0.543-1.681,1.648-1.586c0.747,0.607,0.063,2.295-0.645,2.341          c-0.22-0.074-0.243-0.258-0.156-0.394c-0.353,0.004-0.803-0.01-0.722,0.619c0.112-0.118,0.225-0.237,0.337-0.355          c0.179,0.648,1.348,1.227,0.704,1.761c0.847-0.053,0.644-0.534,0.297-1.002c0.735,1.181,1.656,0.926,2.53,1.927          c-0.048-0.323,0.061-0.897,0.232-0.799c1.326,1.39,1.142-0.399,2.333,0.013c0.271,0.968-1.055,1.386,0.335,1.455          c0.435,0.792-0.465,1.176-0.918,1.368c1.441-0.254,1.578,1.541,2.067,1.998c-0.236,0.016-0.474,0.032-0.71,0.048          c0.424-0.027,0.679,0.119,0.939,0.265c0.053-0.331,0.105-0.662,0.158-0.992c0.229,0.312,0.489,0.458,0.293,0.799          c0.618-0.369,0.517-1.51,1.56-1.908c0.179,0.646,1.505,0.232,1.04,1.407c-1.091-1.078-0.468,1.182-1.663,0.762          c0.283-0.016,0.539,0.129,0.769,0.443c-0.021,0.148-0.169,0.204-0.288,0.221c0.696,1.656,1.257-0.933,2.527-0.208          c-0.506,0.53-0.352,1.336-0.069,1.318c-0.511-0.294,0.323-1.167,1.062-1.383c0.558,0.929,1.094,0.128,1.493,0.419          c-0.122-0.165-0.244-0.33-0.365-0.495c0.509-0.527,0.875-0.222,1.559-0.105c-0.219,0.508-0.706,0.047-0.618,0.372          c1.239-0.741,0.816,1.908,2.11,1.658c0.18,0.643-0.604,1.184-0.399,1.664c1.439-0.261,0.608,1.433,2.021,1.338          c0.16-0.995-0.007-0.82,1.18-1.23c-0.682-0.116-1.362-0.232-2.045-0.349c0.592-0.203,1.183-0.406,1.774-0.609          c-0.512-0.293-1.385-0.072-1.618-0.382c0.902-0.392,0.734-0.215,0.868-1.04c0.019,1.632,1.812,0.039,2.165,1.326          c-0.389,0.681-0.777,1.362-1.167,2.044c0.727,1.586,2.779,0.134,4.094,1.52c-0.105-0.212-0.21-0.424-0.315-0.636          c0.337-0.353,0.602-0.243,0.871-0.053c0.012-1.562,0.025-3.214,0.039-4.866c-0.304,0.119-0.676,0.2-0.847,0.502          c-0.323-0.716-0.785-0.792-1.239-1.103c0.303,0.497-1.209,0.582-0.614,2.037c-0.403-0.175-0.807-0.35-1.21-0.524          c-1.505,0.322-0.431,2.758-1.811,3.191c-0.026-0.951-0.859-1.137-0.309-2.121c-0.423,0.215-0.867,0.29-0.616,0.772          c-0.478-0.302-0.66,1.548-1.397,1.098c-0.014,0.397,0.318,1.151-0.182,1.344c-0.128-0.113-0.182-0.342-0.182-0.342          c0.182,0.342-0.486,0.857,0.336,1.401c-2.448-1.465-3.518,2.08-5.635,0.83c-0.789,0.72-1.769,1.53-2.569,2.023          c-0.059-0.235-0.184-0.346,0.012-0.357c-1.488-0.03,0.366,2.358-1.319,2.338c-1.266-0.761,0.365-0.974-0.277-1.175          c-1.406-2.177-1.4,1.151-2.991,0.293c0.047-0.083,0.093-0.165,0.14-0.248c-1.085-0.415-1.166,1.736-2.346,2.16          c0,0-0.055-0.229-0.178-0.347c-0.122,1.561-1.328,2.705-2.204,3.592c-0.152-1.066,0.223-0.728-0.464-1.525          c-0.401,0.382,0.921,1.379,0.118,2.138c-0.567-0.324-1.475-0.385-2.085-1.303c0.286-0.176,0.571-0.353,0.857-0.528          c-1.128-1.007-1.123,0.659-1.707,0.693c-0.078-0.193-0.156-0.386-0.234-0.578c-1.263,0.908-0.538,2.295-2.05,2.983          c0.124,0.11,0.249,0.222,0.373,0.332c-0.061,1.794-1.081-0.406-1.329,1.036c-0.329-0.418-0.658-0.836-0.987-1.254          c-0.345,0.617-1.119,2.331-1.921,3.101c-0.021-1.314,0.799-2.436,1.153-3.413c-0.526,0.271-1.715,1.059-1.618,1.888          c0.138-0.247,0.22-0.729,0.542-0.628c-0.053,1.434-0.604,2.424-1.655,2.961c-1.264-2.783-3.069,0.786-4.947-0.892          c-1.299,1.987-3.868,1.548-5.919,2.866c1.886,1.681-0.591,0.398,0.699,2.476c-0.424,0.407-0.633,0.475-0.753,0.36          c-0.732-0.155-1.466-0.31-2.199-0.464c-0.695-0.432,0.218-0.73-0.089-1.188c-1.178,0.427-0.948-0.662-1.977-0.842          c0.563,0.688,0.215,1.307-0.564,1.351c0.47,0.172,0.94,0.344,1.41,0.516c-0.904,1.973-2.289-1.088-3.211,0.88          c0.04-0.313,0.08-0.628,0.12-0.941c-0.572,0.828-2.91,1.566-2.748,3.716c-0.273-0.173-0.775-0.66-0.513-1.005          c-2.02,0.766-3.19,4.123-5.224,3.856c-0.047-0.201-0.094-0.402-0.141-0.604c-0.269,0.344-0.077,1.321-0.801,1.032          c-0.095-0.229-0.143-0.603-0.321-0.545c-0.088,0.283-0.432,1.432-1.063,1.379c0.025-0.27,0.051-0.539,0.077-0.809          c-2.203,0.313-2.031,2.98-3.371,4.185c-0.834-1.553-2.546-1.267-3.4-1.124c-0.031-0.077-0.063-0.155-0.094-0.232          c-2.234,0.978-2.924,3.273-4.566,4.968c-2.134-1.011-4.526,1.578-7.002,1.719c0.453,0.116,0.605,1.237,0.34,1.586          c-0.043-0.003-0.084,0-0.125,0.015c1.553,0.925,3.702,2.204,5.85,3.482c0.105-0.536-1.157-1.336,0.338-1.266          c-0.01,0.063-0.019,0.126-0.029,0.189c1.574-0.409,1.152-1.496,1.192-2.347c-0.701-0.043-1.401-0.085-2.103-0.128          c3.05-2.241-1.145-5.827,1.591-7.054c-0.528-0.535-0.525-1.2-1.052-1.729c0.376,0.008,0.752,0.016,1.129,0.024          c0.283-1.489,0.422-2.231,0.146-4.07c0.27,0.125,0.539,0.248,0.808,0.373c0.069-1.038-3.26-1.3-3.33-2.257          c0.562-0.098,1.123-0.195,1.685-0.293c-0.033-1.81,1.442-3.645-0.094-5.43c0.247,0.029,0.735,0.081,0.804,0.374          c0.041-0.853,1.131-3.297-1.184-2.983c1.508-0.023,0.141-1.868-0.528-2.845c0.371,0.051,0.742,0.101,1.113,0.151          c-1.425-0.824-1.814-0.851-2.212-2.002c0.145-0.273,0.891-0.239,0.607,0.123c0.581-0.91-1.057-0.708-0.468-1.812          c0.237,0.137,0.475,0.274,0.712,0.411c0.083-0.937-0.298-0.863-1.129-1.378c-0.45-0.589,0.274-1.775,1.281-1.914          c-0.614-0.126-1.438-0.639-1.149-1.19c0.38-0.075,0.617,0.126,0.733,0.228c0.752-1.565-1.305-2.328-0.214-3.405          c0.369-0.021,0.553-0.091,0.664-0.18c-0.022,1.243-0.08,2.245-0.161,2.151c1.027,0,1.204-1.003,2.625-0.204          c-0.777-0.806-2.465-2.187-1.985-3.165c0.1-0.047,0.197-0.093,0.355-0.129c0.039,0.034,0.077,0.067,0.116,0.102          c0.102-0.226,0.005-0.428-0.168-0.619c0.168-0.312,0.292-0.51,0.306-0.811c0.851-0.114,0.455-1.151,0.496-1.651          c-1.125,0.04-0.947-0.616-1.873-0.003c0.079-0.08,0.134,0.095,0.182,0.428c0.033,0.076,0.051,0.164,0.117,0.214          c-0.029-0.01-0.063-0.022-0.099-0.034c0.034,0.329,0.061,0.758,0.08,1.245c-0.573-0.396-1.055-0.811-0.433-1.364          c-0.724-0.258-1.468-0.542-1.817-0.702c1.566-0.683,2.41-2.002,3.377-2.184c-0.637-1.53-0.429-3.603-2.548-4.571          c-0.273-0.435,0.604-0.498,0.937-0.659c0.213,0.251,0.182,0.55,0.486,0.687c-0.546-0.871-0.22-2.577-1.699-2.789          c0.664-1.094,1.363,0.621,1.116-0.886c0.151,0.068,0.302,0.136,0.453,0.204c2.353-2.952-3.792-4.831-0.771-8.103          c-0.185,0.226-0.271,0.339-0.519,0.385c1.327-3.736-1.287-7.725,0.824-11.407c0.424-1.047-0.523-1.167-1.246-1.813          c0.404-0.073,0.808-0.146,1.212-0.219c-0.468-0.369-0.936-0.737-1.404-1.106c-1.032-1.562,2.968-2.67,1.021-4.651          c-0.272,0.083-0.544,0.165-0.816,0.248c0.152-0.706-0.491-2.243,0.45-2.117c-0.149-0.074-0.851-0.239-0.426-0.512          c0.211-0.005,0.423-0.011,0.635-0.016c-0.365-0.582-0.73-1.163-1.096-1.745c0.454-1.342,2.524,0.232,2.64-1.73          c-0.247-0.732-1.859-2.095-2.284-1.825c-0.03,0.295-0.393,0.749-1.03,0.766c-0.111-0.224-0.223-0.447-0.334-0.67          c-1.874-0.138-3.796-0.669-5.097,0.959c0.384,0.385,0.767,0.769,1.151,1.154c-0.302,0.12-0.604,0.24-0.907,0.36          c-0.021-0.321-0.041-0.642-0.062-0.962c-0.854,0.539-0.095,0.891,0.426,1.283c-0.483,0.087-0.82,0.245-0.999,0.47          c0.599,0.379,1.197,0.758,1.795,1.138c-0.733,0.129-1.457-0.516-1.858,0.234c0.833,0.532,1.641-0.491,2.19,0.384          c-0.849,0.54-1.542,0.375-0.813,1.023c-0.482,0.086-0.79-0.053-1.003-0.308c0.582,0.576,0.251,1.514,1.249,1.816          c-1.048,0.562,0.282,1.931-1.489,1.862c0.424,0.183,1.396,1.016,1.471,1.542c-2.125-0.974-0.115,1.963-2.389,1.694          c1.91,0.723,0.859,2.57,1.922,3.833c-0.151-0.071-0.458-0.211-0.363-0.322c-0.154,0.707-0.728,0.909-1.085,1.361          c1.574,0.101,1.939,1.205,2.912,1.804c-1.515,0.858-1.849-0.537-3.307-0.273c1.275-0.036,1.28,1.515,2.341,1.225          c-0.936,0.659-0.453,0.567-1.755,0.902c1.967,0.127,0.335,0.619,1.546,1.176c-0.965,0.954-1.84,0.237-1.237,1.294          C218.693,231.882,217.993,230.94,217.993,230.94z M221.503,256.028c-0.011,0-0.019,0-0.022,0          c-0.028-0.216-0.051-0.4-0.066-0.518C221.433,255.618,221.458,255.768,221.503,256.028z M221.529,258.135          c0.043-0.257,0.049-0.576,0.04-0.914c0.389-0.072,0.788,0.007,0.769,0.219C222.078,257.325,221.856,257.82,221.529,258.135z           M229.305,253.69c0.16,0.333-0.06,0.444-0.29,0.489c-0.021-0.157-0.059-0.341-0.137-0.583          c-0.038-0.011-0.098-0.028-0.139-0.039C228.955,253.59,229.156,253.626,229.305,253.69z" style="fill:#373737;"/><path d="M227.827,253.089c-0.024-0.048-0.072-0.075-0.083-0.138          c-0.099,0.068-0.183,0.133-0.252,0.198c0.121,0.041,0.243,0.082,0.353,0.119          C227.839,253.208,227.833,253.146,227.827,253.089z" style="fill:#373737;"/><path d="M260.288,229.316c0.01,0.015,0.019,0.029,0.028,0.043c-0.012-0.057-0.021-0.112-0.005-0.185          C260.311,229.237,260.293,229.268,260.288,229.316z" style="fill:#373737;"/><path d="M219.515,287.235c0.094-0.001,0.188-0.003,0.282-0.004c-0.083-0.062-0.166-0.123-0.248-0.184          C219.538,287.11,219.526,287.173,219.515,287.235z" style="fill:#373737;"/><path d="M251.972,220.354c0.028-0.097,0.039-0.208,0.005-0.325          C251.946,220.098,251.955,220.219,251.972,220.354z" style="fill:#373737;"/><path d="M247.694,217.715c-0.144-0.231-0.287-0.462-0.431-0.693          C247.424,217.369,247.568,217.572,247.694,217.715z" style="fill:#373737;"/><path d="M244.577,215.363c-0.137,0.149-0.221,0.272-0.297,0.385c0.001,0.004,0.001,0.007,0.002,0.011          C244.38,215.627,244.479,215.495,244.577,215.363z" style="fill:#373737;"/><path d="M298.851,243.559c0.048,0.02,0.1,0.031,0.153,0.027          C299.414,243.561,299.166,243.523,298.851,243.559z" style="fill:#373737;"/><path d="M281.659,237.174c0.269-0.086,0.531-0.17,0.77-0.184          C282.186,236.761,281.977,236.621,281.659,237.174z" style="fill:#373737;"/><path d="M301.925,261.856c-0.004-0.01-0.003-0.007-0.007-0.019c-0.036,0.024-0.072,0.038-0.11,0.059          C301.847,261.883,301.886,261.869,301.925,261.856z" style="fill:#373737;"/><path d="M283.16,237.411c-0.176-0.35-0.437-0.437-0.731-0.421          C282.625,237.183,282.843,237.433,283.16,237.411z" style="fill:#373737;"/><path d="M230.135,206.816c-0.047-0.044-0.094-0.087-0.141-0.131          c-0.033,0.066-0.072,0.115-0.106,0.148C229.97,206.828,230.053,206.822,230.135,206.816z" style="fill:#373737;"/><path d="M229.888,206.833c-0.082,0.005-0.164,0.011-0.245,0.016          C229.726,206.896,229.803,206.928,229.888,206.833z" style="fill:#373737;"/><path d="M229.125,206.887c0.172-0.013,0.345-0.025,0.518-0.038          C229.512,206.773,229.366,206.653,229.125,206.887z" style="fill:#373737;"/><path d="M234.375,209.75c0.082-0.11,0.165-0.22,0.247-0.33          C234.553,209.48,234.473,209.584,234.375,209.75z" style="fill:#373737;"/><path d="M235.795,210.399c-0.281-0.26-0.399-1.213-0.976-1.239c-0.066,0.087-0.132,0.174-0.198,0.261          C235.126,209.007,235.157,210.832,235.795,210.399z" style="fill:#373737;"/><path d="M239.068,217.952c-0.328-0.305-0.656-0.609-0.985-0.915          c-0.009,0.491-0.026,1.147-0.595,0.954C238.306,219.92,237.657,216.976,239.068,217.952z" style="fill:#373737;"/><path d="M242.303,220.452c-0.709-0.16-0.294,0.557-0.445,0.755          C242.437,221.073,242.579,221.037,242.303,220.452z" style="fill:#373737;"/><path d="M267.817,234.455c-0.184,0.287-0.368,0.574-0.553,0.861          C267.807,235.446,267.46,234.972,267.817,234.455z" style="fill:#373737;"/><path d="M275.231,232.497c-0.051-0.269-0.101-0.537-0.151-0.805c-0.224,0.233-0.447,0.466-0.67,0.7          C274.684,232.427,274.958,232.462,275.231,232.497z" style="fill:#373737;"/><path d="M274.599,240.431c-0.092,0.005-0.184,0.011-0.275,0.016c0.321,0.035,0.643,0.069,0.964,0.104          C275.058,240.51,274.828,240.471,274.599,240.431z" style="fill:#373737;"/><path d="M292.311,255.88c0.245,0.342,0.49,0.684,0.735,1.026          C293.259,256.538,292.659,255.264,292.311,255.88z" style="fill:#373737;"/><path d="M274.427,266.926c-0.498-0.443-1.21-0.519-1.237,0.196          C273.646,266.975,274.291,267.183,274.427,266.926z" style="fill:#373737;"/><path d="M229.6,292.782c0.14,0.141,0.281,0.28,0.421,0.421c-0.117-0.266-0.235-0.53-0.352-0.796          C229.646,292.532,229.623,292.657,229.6,292.782z" style="fill:#373737;"/></g></g></g></g></g><g><g><g><g><g><path d="M405.496,248.713c0.335,0.491,1.122,0.215,0.994-1.135c-0.436-0.321-0.871-0.642-1.307-0.963          C405.288,247.314,405.393,248.014,405.496,248.713z" style="fill:#373737;"/><path d="M408.102,239.64c-0.631-1.582-1.768-3.387-2.984-2.347c1.272,1.545,0.739,1.928,2.242,3.605          c0.142,1.349-0.457,2.353-0.941,2.126c0.334,0.473-0.329,2.088,0.488,2.82c1.064-1.754,1.146-3.981,0.313-6.295          C407.513,239.048,407.857,239.528,408.102,239.64z" style="fill:#373737;"/><path d="M343.543,146.486c0.293,0.071,0.585,0.142,0.877,0.213          C344.183,146.597,343.882,146.53,343.543,146.486z" style="fill:#373737;"/><path d="M258.3,142.485c0.65-0.021,0.921-0.146,0.954-0.266          C258.65,142.295,258.155,142.368,258.3,142.485z" style="fill:#373737;"/><path d="M243.753,140.723c0.312,0.039,0.575,0.071,0.859,0.105          C244.284,140.701,243.954,140.627,243.753,140.723z" style="fill:#373737;"/><path d="M343.543,146.486c-0.751-0.185-1.502-0.37-2.253-0.555          C341.106,146.346,342.438,146.319,343.543,146.486z" style="fill:#373737;"/><path d="M404.625,221.597c0.081,0.451,0.216,0.824,0.389,1.164c-0.069-0.371-0.129-0.73-0.178-1.102          C404.763,221.643,404.7,221.628,404.625,221.597z" style="fill:#373737;"/><path d="M381.614,150.671c0.229,0.093,0.46,0.186,0.689,0.279c0.263-0.053,0.523-0.131,0.79-0.237          c0,0-0.371-0.014-0.742-0.028C381.983,150.678,381.614,150.671,381.614,150.671z" style="fill:#373737;"/><path d="M403.487,170.995c-0.231-0.631-1.371-0.388-1.928-0.41c0.584,0.143,0.996,0.497,1.31,0.991          C403.072,171.503,403.278,171.326,403.487,170.995z" style="fill:#373737;"/><path d="M408.952,215.192c0.063,0.257,0.128,0.514,0.191,0.771          C409.086,215.763,409.025,215.424,408.952,215.192z" style="fill:#373737;"/><path d="M360.573,146.46c-0.035-0.167-0.127-0.319-0.23-0.416          C360.331,146.183,360.424,146.322,360.573,146.46z" style="fill:#373737;"/><path d="M402.036,280.633c0.08,0.025,0.132-0.006,0.2,0.004          C402.132,280.474,402.056,280.424,402.036,280.633z" style="fill:#373737;"/><path d="M408.452,248.721c0.018,0.148,0.035,0.296,0.052,0.445c0.213,0.047,0.421,0.097,0.628,0.098          C408.905,249.083,408.679,248.901,408.452,248.721z" style="fill:#373737;"/><path d="M217.052,138.938c0.052,0.01,0.07,0.014,0.119,0.023          C217.871,138.837,217.474,138.857,217.052,138.938z" style="fill:#373737;"/><path d="M100.218,297.179c0.747-2.889,1.686,4.473,2.415,0.153          C102.23,297.768,100.562,293.618,100.218,297.179z" style="fill:#373737;"/><path d="M404.748,220.878c-0.026-0.371-0.051-0.748-0.054-1.127          C404.677,220.266,404.693,220.612,404.748,220.878z" style="fill:#373737;"/><path d="M102.632,297.332c0.005,0,0.01,0,0.01,0c0.022-0.147,0.044-0.296,0.066-0.444          C102.677,297.071,102.659,297.176,102.632,297.332z" style="fill:#373737;"/><path d="M155.546,140.416c0.142,0.196,0.398,0.339,0.665,0.474          C156.182,140.774,156.029,140.637,155.546,140.416z" style="fill:#373737;"/><path d="M201.431,141.19c-0.379-0.05-0.758-0.1-1.136-0.149          C200.747,141.142,201.111,141.178,201.431,141.19z" style="fill:#373737;"/><path d="M131.428,144.934c-0.656,0.125-0.93,0.048-1.719,0.511c0.099,0.024,0.192,0.033,0.309,0.034          C130.264,145.22,130.65,144.996,131.428,144.934z" style="fill:#373737;"/><path d="M110.888,160.931c0.146-0.075,0.301-0.196,0.454-0.292c0.118-0.237,0.27-0.508,0.405-0.749          c0,0-0.218,0.258-0.435,0.517C111.1,160.669,110.888,160.931,110.888,160.931z" style="fill:#373737;"/><path d="M387.226,346.826c0.267-0.055,0.511-0.074,0.745-0.077c0.245-0.021,0.47-0.015,0.682,0.005          c-0.422-0.116-0.029-0.916-0.021-1.152c0.021-0.144-0.001-0.191-0.169-0.051          C388.361,345.611,387.812,346.209,387.226,346.826z" style="fill:#373737;"/><path d="M405.259,221.557c-0.29-0.125-0.438-0.32-0.511-0.678c0.021,0.27,0.054,0.528,0.088,0.78          C405.007,221.72,405.166,221.729,405.259,221.557z" style="fill:#373737;"/><path d="M133.687,153.823c0,0-0.789,0.237-1.561,0.521c-0.774,0.277-1.529,0.604-1.529,0.604          C131.462,154.633,132.584,154.224,133.687,153.823z" style="fill:#373737;"/><path d="M221.534,363.297c0.292-0.045,0.585-0.089,0.877-0.133          C222.075,363.137,221.764,363.169,221.534,363.297z" style="fill:#373737;"/><path d="M122.749,160.738c-0.358,0.057-0.688,0.166-1.006,0.299c-0.311,0.14-0.56,0.244-0.892,0.494          c-0.042,0.18-0.113,0.366-0.087,0.537c-0.017,0.022,0.582-0.454,1.011-0.709          C122.262,161.048,122.749,160.738,122.749,160.738z" style="fill:#373737;"/><path d="M388.666,346.756c-0.009,0.003-0.014-0.002-0.014-0.002S388.657,346.759,388.666,346.756z" style="fill:#373737;"/><path d="M395.983,325.313c-0.921,3.266,0.954,1.878,1.571,2.782c-0.8,4.067-1.592,1.545-2.717,2.658          c-0.423,2.478,0.115,4.728-0.702,6.438c-0.276,0.04-0.506,0.333-0.606-0.164c-0.005,1.416-0.846,3.206-1.812,4.892          c-0.965,1.711-2.032,3.254-2.479,4.747c-0.284,0.117-0.445,0.113-0.572,0.091c0.235,0.011,0.411,0.086,0.64,0.103          c0.178,0.069,0.339,0.15,0.486,0.24c0.292,0.18,0.519,0.393,0.674,0.604c-0.568,0.625-0.894,1.291-1.263,1.798          c-0.363,0.51-0.736,0.841-1.276,0.703c0.729-0.644,0.52-0.974,0.631-1.493c0,0.001-0.221,0.358-0.443,0.716          c-0.23,0.355-0.46,0.71-0.46,0.71c-1.002,0.006-0.661-0.457-0.18-1.007c0.485-0.555,1.106-1.227,0.736-1.561          c-1.789,2.504-4.076,5.706-6.38,6.67c-0.554-0.425,0.568-1.257,1.366-1.951c0.804-0.699,1.312-1.18-0.285-0.719          c0,0,0.803-0.423,1.59-0.896c0.788-0.469,1.561-0.984,1.561-0.983c-3.439,0.242,1.725-1.313-1.626-1.33          c-1.85,1.335-2.778,2.164-3.741,3.004c-0.967,0.818-1.979,1.647-4.101,2.438c-0.645,1.098,0.762,0.848,0.085,1.951          c-1.428,0.986-2.596,1.336-3.511,1.4c-0.922,0.061-1.61-0.166-2.228-0.403c-1.255-0.487-2.135-0.984-4.452,0.294          c-0.581,0.539-0.963,1.242-1.678,1.76c-0.735,0.525-1.729,0.823-3.815,0.648c0.411-0.558,0.823-1.114,1.235-1.672          c-0.321,0.029-0.624,0.067-0.903,0.111c-0.144,0.025-0.279,0.051-0.409,0.074c-0.064,0.013-0.129,0.026-0.193,0.04          c-0.004,0.001-0.008,0.002-0.012,0.002c-0.001,0.001-0.002,0.001-0.003,0.001c-0.055,0.007,0.465-0.054,0.244-0.027          c-0.002,0-0.004,0-0.006,0.001c-0.007,0.001-0.014,0.002-0.021,0.003c-0.014,0.003-0.027,0.006-0.042,0.009          c-0.027,0.005-0.055,0.01-0.082,0.016c-0.428,0.085-0.775,0.192-1.058,0.307c-0.569,0.231-0.918,0.506-1.276,0.754          c-0.718,0.497-1.474,0.891-4.118,0.599c0.901-0.664,3.899-0.825,3.134-0.94c-3.45-0.903-2.35,1.054-4.96,1.263          c-0.202-0.43-0.403-0.86-0.604-1.29c-5.308,0.623-11.141,1.992-17.046,2.599c0.313-0.417,1.312-0.899-0.084-1.225          c-7.43,1.129-15.919,0.737-23.129,0.27c-0.908,0.429-1.816,0.857-2.724,1.287c-0.641,0.016-1.197-0.472-0.511-0.728          c-2.813-0.316-0.13,0.743-1.469,1.26c-1.595,0.151-2.121-0.576-1.117-0.969c-4.928,1.204-14.07,2.706-19.305,1.634          c0.337-0.127,0.675-0.255,1.012-0.382c-4.067-0.333-4.556,2.553-8.338,1.587c0.239-0.077,0.479-0.154,0.719-0.23          c-4.412-0.111-9.052,0.169-13.433,0.27c-4.354,0.093-8.559,0.044-11.802-0.814c-1.297,1.703-8.723-0.711-9.319,1.651          c-5.024-1.156-3.576-1.579-10.662-2.359c-1.894-0.108-2.845,1.479-5.191,1.727c-0.014-0.413-0.027-0.826-0.041-1.239          c-1.066,0.432-2.133,0.864-3.199,1.297c-0.557-0.495-1.114-0.99-1.671-1.485c-0.734,0.104-1.468,0.209-2.203,0.314          c0.875,0.074,1.853,0.56,1.714,0.918c-3.442,0.556-8.355-0.89-8.429-1.527c-2.712,0.334-5.424,0.668-8.136,1.003          c0.188-0.498,1.551-0.661,2.631-0.973c-4.355,1.238-0.765-1.313-4.755-0.182c0.527,0.287-0.3,0.739-0.395,0.989          c-1.966-0.767-6.47-0.816-9.808-0.541c0.219-0.284,0.438-0.568,0.657-0.853c-6.01-0.292-12.689,0.232-19.424,0.047          c2.404,0.461,1.808,1.939-0.176,2.034c-0.25-0.447-0.5-0.895-0.75-1.342c-1.302,0.785,2.049,0.555-0.602,1.485          c-2.515-0.223-1.644-1.549-0.187-1.939c-1.024,0.124-2.048,0.247-3.072,0.37c-0.166-0.4,0.558-0.586,0.761-1.084          c-1.286,0.787-5.215-1.496-7.07-0.148c-0.051-0.133-0.103-0.267-0.154-0.399c-4.799-0.214-7.718-0.145-11.062-0.265          c0.154,0.021,0.31,0.042,0.507,0.068c-1.421-0.195-2.855-0.302-4.405-0.458c-0.241,1.124-2.319,0.645-3.987,1.349          c-3.829-0.893-7.666-2.613-11.637-4.228c-2.993-0.75-1.195,0.52-2.742,0.522c0.116-0.52-0.807-1.272-1.424-1.881          c-0.621-0.612-0.964-1.021,0.166-0.756c-2.229-1.281-3.539-2.293-4.993-3.418c-0.727-0.575-1.466-1.174-2.36-1.971          c-0.212-0.189-0.432-0.387-0.663-0.594c-0.198-0.179-0.438-0.406-0.667-0.64c-0.468-0.47-0.974-1.017-1.519-1.665          c0.051,0.854,0.397,1.641-0.132,1.5c-0.873-0.92-1.193-2.665-0.68-2.758c0.085,0.075,0.171,0.151,0.257,0.227          c-2.656-2.917-3.835-7.713-4.568-12.188c-0.757-4.518-1.171-8.835-2.839-11.821c0.058,0.112,0.116,0.226,0.174,0.338          c0-0.001-0.148-0.401-0.371-1.002c-0.106-0.296-0.229-0.641-0.362-1.011c-0.016-0.043-0.031-0.087-0.047-0.131          c-0.004-0.009-0.007-0.017-0.011-0.025c-0.002-0.004-0.003-0.008-0.005-0.013c0-0.001-0.001-0.003-0.002-0.005          c0-0.001,0-0.002-0.001-0.003c0,0,0-0.001-0.001-0.002c-0.011-0.074,0.016,0.102,0.012,0.082          c-0.007-0.023-0.015-0.047-0.022-0.07c-0.031-0.102-0.062-0.203-0.093-0.305c-0.063-0.209-0.125-0.42-0.189-0.632          c-0.499-1.714-0.999-3.428-0.999-3.428c-0.223-3.25,0.998,1.843,1.328-0.62c-2.601-7.378-1.108-11.995-2.798-18.148          c1.284-2.544,0.878-6.819,0.399-11.314c-0.485-4.489-1.031-9.207-0.175-12.479c-0.232,0.13-0.465,0.26-0.697,0.39          c-0.754-1.675,0.34-2.046,0.47-3.285c-0.548,0.181-0.588,1.835-1.003,0.791c-0.589-7.154-0.446-14.708-0.142-22.213          c0.159-3.78,0.338-7.519,0.596-11.197c0.269-3.692,0.537-7.373,0.803-11.018c0.36-5.329-3.624-3.27-1.624-9.928          c0.413,0.673,0.826,1.345,1.238,2.018c-0.557-5.464-0.212-11.007,0.25-16.492c0.231-2.744,0.491-5.476,0.685-8.18          c0.174-2.593,0.346-5.161,0.516-7.688c0.19,0.666,0.577,0.768,0.401,1.74c0.657-0.954,1.035-2.882,1.207-4.603          c0.166-1.72,0.115-3.241-0.264-3.373c0.485-1.5,0.784-0.149,1.42-0.96c1.082-1.85,0.35-5.485,1.661-6.167          c0.212-0.115,0.096,0.663,0.043,1.048c-0.001-0.724,0.566-2.186,0.993-3.323c0.421-1.141,0.682-1.995-0.092-1.677          c1.974-3.031,2.699-6.138,5.085-7.632c0.156-1.119,1.329-2.077,2.401-2.893c1.066-0.817,2.007-1.495,1.71-2.396          c0.464,0.822,1.883,0.215,3.432-0.654c1.544-0.885,3.303-2.013,4.176-2.805c-0.466,0.767,1.986-0.106,1.462,0.918          c2.254-0.825,4.436-1.567,3.793-2.417c2.545,0.6,4.773-0.079,7.043-0.609c1.131-0.268,2.231-0.494,3.378-0.548          c0.004,0,0.009-0.001,0.013-0.001c0.002,0,0.004,0,0.007,0c0.001,0,0.002,0,0.003,0c-0.087,0.007,0.2-0.015-0.195,0.015          c0.008,0,0.016,0,0.024,0c0.016,0,0.031,0,0.046,0c0.031,0.001,0.063,0.001,0.094,0.002          c0.062,0.003,0.124,0.006,0.186,0.009c0.123,0.008,0.244,0.02,0.364,0.036c0.24,0.032,0.472,0.083,0.696,0.153          c0.449,0.142,0.874,0.367,1.271,0.701c8.354-1.426,16.184-2.333,23.813-2.935c-0.182,1.826-8.444,0.394-8.002,2.315          c7.189-0.966,11.309-2.616,18.535-2.278c1.876,0.224-1.026,0.805-1.642,1.128c7.225-0.859,14.036,0.014,20.472-0.989          c-0.013,0.169-0.706,0.356-1.361,0.497c1.273-0.064,2.97,0.262,2.805-0.564c-0.412,0.075-0.824,0.15-1.236,0.225          c-2.07-1.2,4.998-2.511,5.214-3.14c-2.109,2.363,6.41,0.611,3.037,3.595c0.835-0.154,1.88-0.542,1.676-1.095          c1.249,0.166,1.65,0.49,0.4,1.114c4.557-0.429,2.919-1.315,7.06-1.269c-0.009,0.4-0.841,0.548-1.261,1.015          c2.081-0.765,4.177-1.527,7.682-1.154c-0.208,0.238,0.202,0.555-0.841,0.539c6.003-0.061,10.226-1.952,16.828-1.088          c-1.939,1.693,2.245,0.608,2.597,2.11c1.181-0.125,2.362-0.251,3.542-0.377c-0.474-0.251-0.948-0.502-1.422-0.753          c3.117,0.081,5.823-0.928,8.543-0.394c0,0-0.574,0.146-1.148,0.291c-0.358,0.068-0.595,0.139-0.827,0.191          c-0.216,0.053-0.36,0.088-0.36,0.088c1.949-0.06,3.898-0.12,5.846-0.179c-1.098-0.207-2.195-0.414-3.294-0.622          c3.141-0.717-0.343-1.896,3.797-1.407c-0.842,0.137,3.111,0.077,4.729,0.99c0.001,0-0.011,0-0.011,0.003          c1.539-0.443,3.124-0.908,5.422-0.484c0.594,0.49-0.49,1.636-0.104,1.962c1.523-1.212,7.277-0.17,9.211-1.439          c-0.644,0.293-0.685,1.073-0.477,1.238c0.429-0.325,0.856-0.65,1.285-0.975c1.436,0.362,1.644,0.525,1.403,1.141          c4.324,0.308-1.352-1.926,3.777-0.964c-0.405,0.07-0.215,0.226-1.058,0.355c5.153,0.574,9.983-0.33,14.717,0.336          c1.363,1.54-4.15,0.219-2.577,1.533c6.833-0.036,14.193-1.259,20.795-0.604c-0.409-0.073-0.818-0.147-1.228-0.22          c0.994-2.055,4.887,1.259,8.266,0.44c-0.825,0.114-1.12,1.108-0.891,0.886c4.51,0.563,9.266-0.045,16.155-0.279          c-0.293,0.162-0.586,0.323-0.879,0.485c2.637,0.639,6.995,0.721,9.851,1.17c0.888-0.474,2.526-0.266,1.581-1.117          c4.325,1.846,8.559,1.776,12.69,1.68c0.063-0.001,0.128-0.003,0.192-0.004c0.009,0,0.017,0,0.025,0          c0.004,0,0.008,0,0.012-0.001c-0.042-0.004,0.101,0.011-0.091-0.011c0.002,0,0.004,0,0.006,0          c0.016,0,0.032,0.001,0.048,0.001c0.033,0.001,0.065,0.001,0.098,0.002c0.136,0.003,0.271,0.005,0.406,0.008          c0.266,0.002,0.531,0.005,0.797,0.008c0.516,0.004,1.029,0.009,1.541,0.013c1.012,0.018,2.001,0.066,2.971,0.19          c1.935,0.247,3.807,0.802,5.429,1.896c-0.862-0.229-2.166-0.044-1.48,0.114c0,0,1.559,0.226,3.087,0.588          c1.532,0.347,3.028,0.835,3.028,0.835c-0.105-1.019-0.538-0.824-1.569-1.935c0.958-0.246,2.887,0.038,4.378,0.759          c-2.975-0.683-0.572,1.301,0.222,2.31c-0.048-0.339,0.477-0.412,0.523-0.708c1.071,1.492,1.389,1.186,1.938,0.893          c0.521-0.284,1.299-0.568,2.893,1.224c-0.164,0.079-0.327,0.158-0.491,0.237c1.546,0.799,3.233,1.347,4.531,2.737          c-0.176,1.27-1.716-0.894-2.405-0.304c0.999,0.801,2.279,1.311,3.437,1.967c1.142,0.66,2.2,1.443,2.478,2.686          c-0.466-0.358-0.919-0.788-1.444-1.241c-0.525-0.461-1.036-0.892-1.534-1.185c0.219,0.665,0.392,1.164,0.556,1.562          c0.181,0.413,0.361,0.731,0.483,0.957c0.279,0.485,0.641,0.871,1.073,1.641c-0.026-0.052-0.053-0.104-0.079-0.155          c0,0,0.487,0.906,0.902,1.854c0.419,0.946,0.775,1.923,0.775,1.923c-0.069-0.36-0.139-0.72-0.208-1.08          c2.004,0.682,2.873,2.15,3.571,3.775c0.706,1.644,1.26,3.46,2.804,5.291c-3.004-3.516-1.175-0.362-2.447-0.322          c0.027,1.136,0.123,2.82-0.34,2.462c1.512,1.683,0.156,3.387,2.179,5.854c-0.352,0.203,0.404,2.127-0.659,1.866          c0.801,2.509,0.559-0.731,1.079-0.615c0.53,0.933,0.803,2.016,0.937,3.189c0.126,1.15,0.15,2.494,0.087,3.664          c-0.11,2.673-0.171,5.578,0.952,8.49c1.093,5.09,2.468,5.962,3.365,10.72c-0.549,1.652-1.493-1.244-1.492-1.244          c-0.447,2.638-0.256,4.588,0.285,7.024c-0.36-0.482-0.63,0.044-1.043,0.812c0.171,1.962,1.476,1.255,0.975,3.878          c-0.448-0.429-1.165-0.973-1.633-1.902c0.435,2.301,1.226,4.564,1.619,6.958c-0.67,0.657-1.06-1.418-1.525-2.248          c0.375,2.684,0.727,6.963,1.806,7.78c0.124-0.581,0.249-1.162,0.373-1.743c0.062,0.985-0.922,0.526-1.126-0.194          c-0.869-2.291,0.328-3.346,0.721-3.489c0.093,0.568,0.186,1.137,0.278,1.706c2.278-1.827-0.492-6.879-0.488-10.319          c0.573,0.456,1.146,0.911,1.719,1.367c-0.503-1.159-1.008-2.319-1.512-3.479c0.404-0.772,1.319-1.335,1.636,0.36          c0.727-2.519-0.681-2.164,0.145-4.34c0.133-0.242,0.218-0.14,0.294,0.073c-0.204-0.798-0.409-1.596-0.613-2.394          c0.374,0.455,1.16-0.47,0.992,1.033c0.754-4.412-1.636-6.935-0.472-8.653c0.042,0.119,0.085,0.238,0.127,0.356          c-0.966-5.991-1.261-0.502-3.017-4.908c0.932-1.093,1.864-2.186,2.797-3.277c-0.425-0.164-0.851-0.328-1.275-0.492          c-0.005-0.626-0.02-1.864,0.49-1.679c-1.046-2.247-0.496,0.443-1.41-0.831c0.387-1.569-0.07-3.611-0.425-5.359          c-0.353-1.75-0.601-3.219,0.282-3.762c-1.15-0.859-0.082,2.968-1.419-0.038c1.857-1.367-1.203-3.536-1.095-6.411          c1.306,0.505,1.486,3.228,1.635,0.267c-1.131-0.563-1.438-1.875-1.66-3.339c-0.216-1.459-0.36-3.084-1.021-4.13          c-0.702,0.225-1.351-0.909-2.218-2.487c-0.859-1.574-2.002-3.616-3.517-5.082c0.135-0.022-0.046-0.439-0.513-1.125          c-0.404-0.595-1.09-1.494-1.887-2.414c-1.593-1.873-3.813-3.925-5.309-5.238c0.079-0.042,0.159-0.085,0.238-0.128          c-0.75,0.364-1.904-0.069-3.245-0.675c-1.336-0.61-2.887-1.385-4.285-1.824c0.468-0.736,1.104-0.854,2.755-0.47          c0,0-0.642-0.307-1.282-0.614c-0.652-0.285-1.304-0.569-1.304-0.569c-0.81,0.168-1.708,0.048-3.476-0.368          c0.346-0.262,0.69-0.525,1.035-0.787c-3.658-1.203-7.629-0.796-12.121-2.021c-0.35,0.973,3.248,3.2-1.582,3.312          c-0.115-0.56-0.188-1.504,1.088-1.583c-0.418,0.023-1.514,0.287-2.3-0.045c0.667-0.229,1.334-0.458,2.001-0.688          c-2.019-0.632-1.116,0.641-2.809,0.354c0.104-0.769-1.171-0.662-0.88-1.253c0.214-0.019,0.567,0.095,0.949,0.182          c0.562,0.102,0.813,0.178,1.175,0.062c-0.478-0.106-0.98-0.219-1.478-0.331c-0.479-0.116-0.95-0.247-1.386-0.39          c-0.872-0.284-1.601-0.609-1.948-0.934c0.126,0.454-0.087,1.04-1.459,1.026c-3.532-0.234-1.134-1.03-3.164-1.594          c-0.896,0.468-3.109-0.261-3.251,0.893c-1.032-0.083-1.187-0.637-1.563-0.98c-1.863,0.37-8.548-0.443-6.563,0.929          c0.154,0.038,0.309,0.075,0.463,0.113c-0.089,0.019-0.192,0.012-0.302,0.031c0.015,0.001,0,0,0.015,0.001          c-0.005,0-0.01-0.001-0.015-0.001c-6.044,0.758-12.393-1.425-18.359-1.233c0.009-0.129,0.018-0.259,0.026-0.389          c-3.564,0.262-7.903-0.125-10.463,0.603c-1.048-0.048-2.45-0.823-1.987-1.268c-2.722,0.176-3.036,0.601-6.935-0.203          c2.745-0.572-0.924-0.645,2.808-0.386c-3.513-0.482-4.298-1.142-8.108-0.216c1.313-0.955-2.624-1.363-4.307-1.122          c0.818,0.27,1.636,0.539,2.454,0.808c-1.887,0.077-3.532-0.069-5.204-0.212c0.311-0.43,0.621-0.86,0.932-1.29          c-7.197-1.862-13.053,2.32-18.513-0.524c-1.917,0.875,3.912,0.759,2.195,1.797c-3.314-0.27-6.759-2.259-7.8-2.288          c-4.548-0.844-4.253,1.838-9.009,1.238c0.609,0.486,1.182,1.76-2.37,2.141c-3.315-0.234-4.089-2.058-1.99-2.405          c0.797-0.026,1.183,0.131,1.149,0.292c1.072-0.154,2.481-0.33,1.165-0.868c-0.144,0.155-0.286,0.311-0.43,0.466          c-0.825-0.258-2.381-0.394-3.601-0.558c-1.128-0.167-2.07-0.377-1.51-0.752c-2.517,0.392-1.079,0.752,0.785,1.045          c-4.268-0.794-6.664-0.177-11.051-0.725c0.698,0.276,1.341,0.847,0.648,0.828c-6.435-0.706-2.828,0.85-7.182,0.987          c-2.479-0.763,0.875-1.721-3.507-1.177c-2.684-0.529-0.58-1.273,0.483-1.645c-3.991,0.859-7.48-0.703-9.77-0.896          c0.701-0.121,1.401-0.241,2.102-0.361c-1.257,0.214-2.29,0.196-3.341,0.183c0.406,0.323,0.812,0.645,1.217,0.968          c-1.238-0.179-2.287-0.194-2.27-0.59c-1.265,0.614,1,1.596-1.514,2.43c-1.656-0.5-5.007,0.484-5.602-0.787          c5.193,0.465-0.598-1.279,3.789-1.452c-0.844,0.144-1.876,0.131-3.122-0.045c-0.188-0.143,0.17-0.262,0.507-0.332          c-4.988-1.163-2.254,1.418-7.396,1.37c0.636-0.713-1.225-1.36-2.061-1.21c2.074,0.02,1.02,1.196-0.867,1.742          c-3.312-0.561-3.571,0.414-5.298,0.351c0.659,0.087,1.318,0.174,1.978,0.261c-0.648,0.716-2.297,0.623-4.586,0.857          c-0.212-0.558,2.073-0.39,1.247-0.634c-2.509,1.268-5.804-1.284-9.333-0.406c-1.666-0.473-0.21-1.348-1.67-1.665          c-3.954,0.971-4.363-0.942-8.528-0.112c1.252,0.949,1.451,0.707-1.457,1.696c2.287-0.259,4.574-0.517,6.861-0.775          c-1.454,0.487-2.908,0.974-4.361,1.461c2.078-0.017,4.359-0.666,5.612-0.514c-2.075,0.811-1.867,0.569-0.84,1.359          c-2.903-1.417-5.596,0.917-8.922-0.002c-0.005-0.799-0.01-1.598-0.015-2.396c-5.006-0.975-8.726,1.403-15.18,1.008          c0.697,0.117,1.394,0.234,2.09,0.351c-0.801,0.979-3.955,0.259-6.007,0.728c0.138-0.81-1.182-1.051-2.108-1.515          c0.153,0.586-4.713,0.148-5.166,1.785c-0.986-0.303-1.972-0.606-2.958-0.909c-5.266-0.011-5.76,2.565-10.832,3.137          c1.37-1.12-1.121-1.326,2.287-2.468c-1.76,0.217-3.387,0.395-3.284,0.95c-0.568-0.147-1.727,0.377-2.917,0.956          c-1.197,0.576-2.416,1.21-3.324,1.138c-0.569,0.609-0.474,1.449-2.268,2.188c-0.265-0.06-0.168-0.367-0.169-0.367          c0.141,0.347-2.463,1.85-0.545,1.881c-2.93,0.033-6.154,2.172-8.751,4.68c-1.324,1.255-2.496,2.556-3.651,3.739          c-1.172,1.224-2.2,2.322-3.292,3.04c-1.862,3.469-3.352,7.772-4.377,11.003c-0.154-0.292-0.376-0.155-0.083-0.733          c-1.12,2.092-0.766,2.99-0.459,3.928c0.317,0.947,0.587,1.93-0.455,4.348c-1.904,2.257,0.009-2.913-0.872-1.422          c-1.362-0.027-1.686,1.578-1.889,3.559c-0.209,1.986-0.285,4.327-1.328,5.96c-0.002-0.299-0.005-0.598-0.007-0.896          c-0.337,0.637-0.51,1.39-0.586,2.235c-0.079,0.794-0.059,1.925,0.03,2.825c0.152,1.905,0.388,4.017,0.113,6.202          c0,0-0.212-0.241-0.392-0.072c1.075,3.159,1.102,8.872,1.234,13.123c-0.944-1.404-0.425-1.967-1.511-1.259          c0.037,1.908,1.693-0.402,1.772,3.395c-0.628,1.179-1.246,3.869-2.369,4.15c0.039-1.194,0.077-2.388,0.115-3.582          c-1.53,1.717-0.176,4.638-0.498,6.503c-0.206-0.095-0.411-0.189-0.616-0.284c0.005,5.517,1.574,5.678,1.354,11.569          c0.161-0.197,0.322-0.394,0.482-0.59c1.519,3.276-0.917,2.671,0.233,5.922c-0.528,0.313-1.055,0.625-1.583,0.938          c0.368,2.157,1.616,7.493,1.989,11.276c-1.208-2.158-1.912-6.582-2.624-9.399c-0.005,2.147,0.233,7.188,1.032,8.278          c-0.168-0.847-0.577-1.914-0.349-2.749c1.292,2.58,1.968,5.969,2.02,10.151c-3.074-0.741-0.565,10.89-2.878,13.95          c1.301,7.48,0.076,14.873,0.936,23.574c2.122-3.237,0.267,2.53,2.655,1.822c0.321,1.999,0.352,2.769,0.21,2.961          c-0.292,2.074-0.583,4.148-0.874,6.223c-0.561,1.515-0.723-1.867-1.246-1.634c0.251,4.438-0.843,1.948-1.184,4.943          c0.802-0.685,1.396,1.416,1.351,3.97c0.242-1.222,0.483-2.442,0.726-3.663c1.962,6.025-1.449,5.556,0.604,11.643          c-0.336-0.626-0.672-1.252-1.009-1.879c0.212,0.788,0.411,1.918,0.636,3.224c0.057,0.327,0.116,0.666,0.175,1.013          c0.037,0.216,0.075,0.434,0.113,0.654c0.042,0.2,0.083,0.402,0.125,0.606c0.165,0.762,0.345,1.515,0.545,2.264          c0.792,2.987,1.908,5.857,3.273,7.15c-0.115,0.638-0.543,1.577-1.101,0.211c0.904,3.887,2.775,7.987,4.825,11.749          c2.05,3.786,4.271,7.172,5.874,10.212c-0.288-0.051-0.576-0.102-0.864-0.152c0.565,0.617,1.2,0.966,1.881,1.47          c0.369,0.288,0.606,0.438,0.871,0.718c0.28,0.288,0.535,0.644,0.771,1.099c-0.239,0.109-0.854-0.02-0.371,0.527          c0.721,0.484,3.665,2.078,5.104,3.548c0,0-0.447-0.129-0.893-0.259c-0.447-0.142-0.893-0.283-0.893-0.283          c2.959,2.923,5.99,4.167,8.817,4.88c2.859,0.706,5.577,0.91,8.682,1.482c-0.221,0.868,1.108,1.828,2.894,2.574          c1.783,0.755,3.98,1.274,5.4,1.585c-0.043,0.08-0.086,0.16-0.129,0.24c2.317,0.341,4.452,0.441,5.96,0.542          c0.169,0.022,0.338,0.045,0.507,0.067c5.501-0.008,10.127-0.875,15.753-1.189c4.721,2.112,16.164,1.224,23.804,2.385          c-1.166-0.337,0.221-1.385,1.586-1.548c1.792,0.382,4.996-1.183,4.679,0.444c-0.214-0.013-0.427-0.024-0.641-0.036          c1.324,1.611,5.031,1.217,7.916,1.276c0.171-0.709,0.342-1.418,0.513-2.127c7.497,3.146,19.785-1.075,23.861,1.682          c1.827-0.532,4.082-0.531,5.894-1.065c-0.038,0.379-0.075,0.758-0.113,1.137c5.04,0.273,7.556,0.406,13.795,0.098          c-0.427,0.272-0.854,0.545-1.281,0.818c3.533,0.045,4.443-3.285,7.76-3.4c0.328,0.556,0.656,1.111,0.984,1.668          c6.146-0.171,12.372,1.127,18.425-0.596c-0.098,0.249-0.273,0.742-1.267,0.843c2.89-0.043,11.194,0.759,10.115-1.514          c0.093,1.502,6.338-0.084,9.643-0.879c-0.166,0.376-0.333,0.751-0.499,1.127c2.775-1.525,2.858-1.914,6.758-2.469          c0.929,0.105,0.827,0.851-0.407,0.62c3.096,0.446,2.384-1.147,6.136-0.727c-0.46,0.256-0.92,0.512-1.38,0.768          c3.177-0.057,2.916-0.425,4.647-1.326c1.985-0.535,6.026-0.011,6.519,0.959c0.414-0.628,2.133-1.527,4.01-1.339          c0.263,0.363-0.412,0.632-0.753,0.764c5.332,0.47,7.858-1.705,11.543-0.842c0.086,0.359,0.33,0.527,0.637,0.619          c-4.222,0.227-7.621,0.351-7.304,0.253c0.026,1.015,3.442,1.001,0.768,2.553c2.72-0.917,7.349-2.849,10.689-2.586          c0.163,0.087,0.324,0.174,0.45,0.321c-0.113,0.046-0.227,0.091-0.34,0.136c0.771,0.052,1.455-0.087,2.097-0.299          c1.067,0.097,1.746,0.176,2.766,0.12c0.426,0.812,3.935,0.183,5.639,0.097c-0.188-1.094,2.048-1.081-0.078-1.837          c0.273,0.058-0.315,0.155-1.445,0.282c-0.254,0.051-0.554,0.088-0.72,0.165c0.031-0.033,0.07-0.07,0.111-0.105          c-1.115,0.111-2.57,0.237-4.224,0.365c1.322-0.651,2.705-1.219,4.611-0.739c0.844-0.771,1.771-1.57,2.297-1.952          c2.388,1.373,6.919,1.846,7.595,2.738c1.293-0.263,2.705-0.485,4.144-0.713c0.72-0.116,1.446-0.232,2.169-0.349          c0.089-0.016,0.179-0.03,0.268-0.046c0.022-0.004,0.045-0.007,0.067-0.011c0.092-0.013,0.183-0.024,0.274-0.037          c0.04-0.009,0.079-0.018,0.119-0.026c0.162-0.037,0.324-0.074,0.487-0.11c0.342-0.076,0.68-0.151,1.017-0.225          c2.783-0.596,5.522-1.499,6.988-2.886c1.455-0.596,1.858,0.164,2.512,0.328c-0.84,0.442-1.908,0.656-2.34,1.049          c1.505-0.585,3.782-1.24,5.68-2.1c1.899-0.847,3.389-1.853,3.424-2.659c1.907-0.574,1.564-0.054,1.321,0.321          c-0.253,0.35-0.344,0.592,2.042-0.858c-0.15,0.251-0.301,0.501-0.45,0.751c2.7-0.835,4.877-2.27,6.631-3.926          c1.755-1.655,3.133-3.56,4.334-5.456c1.331-1.987,2.374-4.111,3.516-6.244c1.146-2.149,2.427-4.36,4.212-6.789          c-0.473,0.682-0.712,1.019-1,1.08c3.197-5.844,4.693-12.424,5.717-18.942c0.061-0.414,0.12-0.827,0.18-1.241          c0.015-0.107,0.029-0.216,0.044-0.324c0.012-0.118,0.024-0.235,0.037-0.354c0.02-0.202,0.04-0.404,0.06-0.607          c0.08-0.805,0.16-1.61,0.24-2.416c0.164-1.606,0.342-3.205,0.551-4.794c0.419-3.178,0.964-6.312,1.772-9.378          c0.739-3.499-0.165-3.937-0.7-6.121c0.42-0.234,0.84-0.468,1.26-0.701c-0.368-1.248-0.736-2.495-1.105-3.743          c-0.648-5.233,3.563-8.934,1.912-15.61c-0.281,0.28-0.563,0.561-0.845,0.841c0.262-2.369-0.237-7.527,0.679-7.123          c-0.143-0.241-0.827-0.781-0.387-1.703c0.212-0.023,0.423-0.048,0.634-0.071c-0.321-1.935-0.643-3.87-0.965-5.806          c0.549-4.5,2.494,0.706,2.753-5.861c-0.193-2.439-1.698-6.953-2.142-6.039c-0.052,0.986-0.444,2.517-1.081,2.589          c-0.094-0.745-0.188-1.489-0.283-2.234c-1.856-0.41-3.731-2.135-5.141,3.351c0.355,1.275,0.71,2.55,1.064,3.825          c-0.31,0.41-0.619,0.82-0.929,1.23c0.002-1.072,0.004-2.145,0.006-3.217c-0.885,1.824-0.155,2.983,0.335,4.279          c-0.486,0.307-0.833,0.843-1.025,1.603c0.568,1.252,1.137,2.503,1.705,3.754c-0.739,0.455-1.413-1.685-1.864,0.836          c0.791,1.759,1.666-1.687,2.151,1.223c-0.883,1.834-1.558,1.296-0.885,3.431c-0.486,0.29-0.778-0.144-0.972-0.999          c0.539,1.89,0.105,4.994,1.053,5.988c-1.104,1.869-0.017,6.403-1.767,6.169c0.392,0.604,1.196,3.375,1.155,5.122          c-1.885-3.26-0.555,6.511-2.762,5.565c1.718,2.441,0.165,8.527,0.794,12.758c-0.127-0.242-0.385-0.721-0.254-1.082          c-0.381,2.335-1.018,2.976-1.525,4.452c1.522,0.413,1.49,4.09,2.214,6.137c-1.824,2.743-1.614-1.893-3.153-1.109          c1.278-0.039,0.669,5.07,1.824,4.191c-1.161,1.846-0.709,1.677-2.154,2.534c1.842,0.668-0.049,1.98,0.713,3.932          c-1.668,2.83-1.931,0.407-2.227,3.807c-0.504,0.702-0.716,0.287-0.809-0.294          C395.962,326.067,395.982,325.313,395.983,325.313z M334.879,361.67c-0.001-0.01-0.001-0.018-0.001-0.021          c0.728-0.071,1.348-0.132,1.745-0.171C336.259,361.518,335.755,361.573,334.879,361.67z M327.764,362.106          c0.867-0.005,1.947-0.06,3.087-0.134c0.263,0.369,0.005,0.777-0.713,0.799C330.52,362.494,328.834,362.37,327.764,362.106z           M343.113,368.83c-1.127,0.234-1.514,0.043-1.678-0.172c0.533-0.057,1.157-0.137,1.975-0.27          c0.031-0.044,0.098-0.095,0.128-0.145C343.438,368.462,343.323,368.669,343.113,368.83z" style="fill:#373737;"/><path d="M345.089,367.238c0.163-0.036,0.251-0.089,0.464-0.114c-0.234-0.081-0.46-0.148-0.685-0.2          c-0.134,0.129-0.268,0.26-0.388,0.374C344.687,367.278,344.899,367.257,345.089,367.238z" style="fill:#373737;"/><path d="M344.573,146.734c-0.052-0.012-0.103-0.023-0.153-0.035c0.126,0.052,0.241,0.104,0.314,0.178          C344.634,146.817,344.637,146.783,344.573,146.734z" style="fill:#373737;"/><path d="M229.478,362.754c0.002,0.095,0.004,0.189,0.006,0.284c0.208-0.083,0.417-0.166,0.626-0.249          C229.899,362.777,229.688,362.766,229.478,362.754z" style="fill:#373737;"/><path d="M382.967,156.814c0.017,0.119,0.092,0.273,0.295,0.478          C383.28,157.219,383.143,157.031,382.967,156.814z" style="fill:#373737;"/><path d="M395.004,167.277c0,0,0.227,0.506,0.452,1.013c0.216,0.511,0.412,1.032,0.412,1.032          C395.574,168.395,395.271,167.764,395.004,167.277z" style="fill:#373737;"/><path d="M399.782,178.477c0.239,0.09,0.396,0.088,0.54,0.086c0-0.01-0.002-0.017,0.001-0.025          C400.143,178.518,399.963,178.497,399.782,178.477z" style="fill:#373737;"/><path d="M202.572,148.78c-0.179,0.006-0.356,0.021-0.514,0.052          C200.854,149.056,201.675,148.966,202.572,148.78z" style="fill:#373737;"/><path d="M265.927,146.898c-0.673,0.189-1.337,0.376-2.039,0.489          C265.017,147.496,265.893,147.536,265.927,146.898z" style="fill:#373737;"/><path d="M134.034,153.722c0.004-0.009-0.004-0.01-0.001-0.021c-0.12,0.042-0.226,0.08-0.346,0.122          C133.803,153.79,133.918,153.756,134.034,153.722z" style="fill:#373737;"/><path d="M260.939,147.313c1.129,0.243,2.071,0.214,2.948,0.075          C262.963,147.294,261.873,147.158,260.939,147.313z" style="fill:#373737;"/><path d="M404.782,233.008c-0.015,0.206-0.028,0.411-0.042,0.617c0.075-0.011,0.136,0.024,0.182,0.069          C404.876,233.466,404.829,233.237,404.782,233.008z" style="fill:#373737;"/><path d="M404.922,233.694c0.047,0.228,0.093,0.455,0.139,0.682          C405.059,234.062,405.048,233.79,404.922,233.694z" style="fill:#373737;"/><path d="M405.353,235.812c-0.097-0.479-0.194-0.957-0.292-1.436          C405.062,234.875,405.029,235.491,405.353,235.812z" style="fill:#373737;"/><path d="M404.822,216.043c-0.14-0.058-0.279-0.115-0.419-0.172          C404.493,215.972,404.628,216.034,404.822,216.043z" style="fill:#373737;"/><path d="M404.446,210.899c-0.025,1.234-0.711,3.131-0.376,4.829c0.111,0.047,0.223,0.095,0.333,0.142          C403.76,215.1,405.203,212.027,404.446,210.899z" style="fill:#373737;"/><path d="M407.543,188.84c0,0,0.108,1.103,0.217,2.206c0.08,1.108,0.161,2.214,0.161,2.214          c0.329-0.821,0.768-1.938,1.154,0.079c0.255-2.904,0.023-2.57-0.307-2.253C408.419,191.406,407.966,191.706,407.543,188.84z          " style="fill:#373737;"/><path d="M404.617,175.32c1,2.232,0.599-0.225,0.871-0.187          C404.569,173.792,404.344,173.491,404.617,175.32z" style="fill:#373737;"/><path d="M312.942,144.152c0.093-0.334,0.185-0.668,0.277-1.002          C311.337,143.214,313.188,143.542,312.942,144.152z" style="fill:#373737;"/><path d="M293.443,148.66c0.603,0.23,1.204,0.461,1.807,0.692c0.295-0.301,0.59-0.601,0.885-0.902          C295.237,148.52,294.341,148.59,293.443,148.66z" style="fill:#373737;"/><path d="M282.104,141.062c0.274-0.041,0.549-0.081,0.823-0.122c-1.046,0.093-2.092,0.186-3.138,0.279          C280.561,141.167,281.332,141.114,282.104,141.062z" style="fill:#373737;"/><path d="M112.915,156.314c0,0,0.351,0.092,0.701,0.184c0.348,0.099,0.696,0.198,0.696,0.198          c0.098-0.152,0.17-0.304,0.22-0.451c0.022-0.116,0.05-0.257,0.044-0.371c-0.005-0.236-0.087-0.431-0.226-0.538          C114.067,155.142,113.607,155.211,112.915,156.314z" style="fill:#373737;"/><path d="M99.816,230.49c-0.646,0.788-1.078,2.887-0.462,4.208          C99.449,233.012,99.965,231.354,99.816,230.49z" style="fill:#373737;"/><path d="M210.38,372.874c-0.481,0.14-0.963,0.279-1.444,0.419c0.905-0.114,1.81-0.228,2.715-0.342          C211.227,372.926,210.804,372.899,210.38,372.874z" style="fill:#373737;"/></g></g></g><g><g><g><path d="M430.985,32.331c-0.938,0.301-0.452,1.056,2.211,1.083c-0.001,0,0.494-0.291,0.99-0.581          c0.503-0.268,1.008-0.534,1.008-0.534c-0.001,0-1.055-0.045-2.108-0.008C432.035,32.311,430.986,32.331,430.985,32.331z" style="fill:#373737;"/><path d="M448.045,37.723c1.548,0.163,3.255,0.335,4.411,0.254c1.148-0.067,1.77-0.426,1.054-1.359          c-3.396-0.002-3.954-0.723-7.567-0.27c-1.293-0.248-2.366-0.654-3.074-0.986c-0.707-0.331-1.029-0.661-0.761-0.846          c-0.969,0.1-4.036-1.05-5.558-0.404c3.296,1.414,7.383,2.247,11.956,2.86C449.339,37.522,448.327,37.562,448.045,37.723z" style="fill:#373737;"/><path d="M482.144,256.864c0.067-0.505,0.136-1.011,0.204-1.516          C482.247,255.762,482.185,256.282,482.144,256.864z" style="fill:#373737;"/><path d="M477.02,402.727c0.003-1.109-0.11-1.57-0.229-1.624          C476.847,402.132,476.899,402.977,477.02,402.727z" style="fill:#373737;"/><path d="M474.32,427.12c0.109-0.493,0.201-0.907,0.301-1.356          C474.42,426.275,474.274,426.79,474.32,427.12z" style="fill:#373737;"/><path d="M482.144,256.864c-0.179,1.298-0.356,2.597-0.534,3.896          C482.032,261.033,481.99,258.764,482.144,256.864z" style="fill:#373737;"/><path d="M478.863,54.586c-0.636-0.638-1.22-1.125-1.788-1.538c0.522,0.517,1.023,1.022,1.53,1.555          C478.688,54.59,478.76,54.579,478.863,54.586z" style="fill:#373737;"/><path d="M483.006,192.558c0.012-0.395,0.022-0.791,0.034-1.186c-0.142-0.35-0.316-0.679-0.515-0.99          C482.686,191.107,482.846,191.833,483.006,192.558z" style="fill:#373737;"/><path d="M484.285,143.204c-0.083,1.114,1.045,1.526,1.531,1.964c-0.45-0.64-0.649-1.469-0.709-2.449          C484.892,142.696,484.627,142.836,484.285,143.204z" style="fill:#373737;"/><path d="M481.474,66.451c-0.276-0.378-0.553-0.757-0.829-1.136          C480.866,65.607,481.209,66.114,481.474,66.451z" style="fill:#373737;"/><path d="M481.698,227.879c-0.17,0.082-0.321,0.258-0.418,0.447          C481.424,228.327,481.563,228.151,481.698,227.879z" style="fill:#373737;"/><path d="M369.751,27.336c-0.044,0.077,0.017,0.129,0.002,0.197          C370.061,27.434,370.157,27.359,369.751,27.336z" style="fill:#373737;"/><path d="M430.921,35.196c-0.283,0.008-0.566,0.017-0.851,0.025c-0.095,0.203-0.194,0.402-0.198,0.604          C430.222,35.616,430.571,35.406,430.921,35.196z" style="fill:#373737;"/><path d="M450.987,462.328c0.071-0.043,0.098-0.059,0.165-0.099          C451.987,461.459,451.487,461.857,450.987,462.328z" style="fill:#373737;"/><path d="M45.693,461.947c0.854,2.245-0.417,0.865-1.579-0.309c-1.081-1.212-2.104-2.192-0.678,1.231          c-0.001-0.412,1.239,0.721,2.138,1.232c0.463,0.249,0.833,0.354,0.909,0.08C46.556,463.91,46.332,463.262,45.693,461.947z" style="fill:#373737;"/><path d="M479.629,55.752c0.456,0.563,0.926,1.137,1.366,1.729          C480.413,56.668,479.987,56.138,479.629,55.752z" style="fill:#373737;"/><path d="M43.437,462.87c-0.003,0.002-0.008,0.006-0.008,0.006c0.108,0.23,0.215,0.461,0.323,0.691          C43.622,463.279,43.548,463.116,43.437,462.87z" style="fill:#373737;"/><path d="M350.047,476.549c0.216,0.186,0.637,0.317,1.076,0.442          C351.088,476.879,350.845,476.751,350.047,476.549z" style="fill:#373737;"/><path d="M428.614,474.534c-0.616,0.055-1.231,0.11-1.848,0.165          C427.5,474.675,428.094,474.608,428.614,474.534z" style="fill:#373737;"/><path d="M308.981,479.687c-1.063-0.043-1.424-0.183-2.877,0.022c0.134,0.051,0.267,0.086,0.44,0.118          C307.071,479.654,307.771,479.558,308.981,479.687z" style="fill:#373737;"/><path d="M266.258,481.338c0.227,0.077,0.525,0.13,0.787,0.196c0.424-0.036,0.918-0.076,1.354-0.112          C267.686,481.394,266.972,481.366,266.258,481.338z" style="fill:#373737;"/><path d="M232.077,22.365c0.992,0.357,1.612,0.732,2.095,1.098          C233.471,22.632,240.125,22.613,232.077,22.365z" style="fill:#373737;"/><path d="M478.371,54.978c0.407,0.033,0.777,0.25,1.258,0.774c-0.332-0.412-0.673-0.793-1.023-1.149          C478.383,54.6,478.239,54.673,478.371,54.978z" style="fill:#373737;"/><path d="M307.183,488.542c-2.26,0.036-4.52,0.071-6.779,0.107          C302.298,488.68,304.762,488.639,307.183,488.542z" style="fill:#373737;"/><path d="M19.652,159.06c-0.062-0.557-0.123-1.114-0.184-1.671          C19.461,158.032,19.51,158.624,19.652,159.06z" style="fill:#373737;"/><path d="M280.281,489.621c-1.209-0.348-2.49-0.524-3.814-0.622c-0.281,0.099-0.602,0.184-0.789,0.319          C277.213,489.42,278.747,489.521,280.281,489.621z" style="fill:#373737;"/><path d="M234.186,23.476c-0.014-0.006-0.014-0.012-0.014-0.012S234.172,23.47,234.186,23.476z" style="fill:#373737;"/><path d="M281.596,22.703c-6.86-0.308-3.226,1.311-4.684,2.098c-8.186,0.091-3.785-1.236-6.571-2.101          c-5.111,0.184-9.033,1.382-12.845,1.173c-0.283-0.254-1.024-0.373-0.155-0.643c-5.403,0.959-16.04-0.584-22.333,0.645          c-0.467-0.15-0.704-0.284-0.823-0.4c1.022,0.783,1.18,1.544,0.973,2.072c-3.074-0.096-5.7,0.712-6.86-0.303          c1.884,0.103,2.039-0.282,2.921-0.55c-1.073,0.098-2.146,0.196-3.219,0.294c-2.904-1.51,4.395-0.309,4.392-1.341          c-6.28,0.204-13.594,1.07-18.407,0.485c-1.012-1.408,11.25-0.013,4.823-1.484c2.483,0.273,4.966,0.545,7.45,0.817          c-5.699-2.379,4.525,0.332-0.712-2.181c-9.804-0.789-10.96,0.257-20.74-0.533c-2.196,0.673,0.735,1.155-1.461,1.829          c-13.882,0.819-10.964-3.887-21.167-2.467c-2.637,0.81-3.645,2.511-10.926,1.301c0.821-0.486,1.643-0.972,2.464-1.458          c-9.491-0.533-5.394,2.023-15.341,0.58c1.759-0.543,7.452-0.219,6.014-0.462c-6.452-1.488-4.543,0.703-9.492,0.507          c-0.347-0.475-0.694-0.949-1.042-1.424c-10.101-0.188-21.214,0.371-32.396,0.18c0.612-0.389,2.523-0.748-0.101-1.277          c-7.051,0.065-14.582-0.277-22.055-0.809c-3.736-0.265-7.458-0.578-11.098-0.911c-1.82-0.172-3.62-0.342-5.39-0.51          c-0.442-0.043-0.884-0.086-1.322-0.129c-0.109-0.011-0.219-0.021-0.329-0.032c-0.156-0.011-0.312-0.021-0.467-0.031          c-0.218-0.017-0.437-0.033-0.654-0.049c-0.891-0.058-1.686-0.146-2.632-0.178c0,0-1.441,0.352-2.883,0.704          c-1.349,0.417-2.697,0.835-2.697,0.835c-1.281,0.103-2.479-0.235-1.129-0.67c-5.746,0.327-0.147,0.791-2.733,1.652          c-3.093,0.662-4.323,0.127-2.417-0.634c-4.794,1.444-11.304,4.146-17.216,7.8c-5.944,3.628-11.24,8.144-15.126,11.514          c0,0,0.251-0.448,0.538-0.867c0.283-0.423,0.566-0.847,0.566-0.847c-2.958,2.727-3.87,4.972-4.695,7.055          c-0.413,1.049-0.821,2.059-1.379,3.186c-0.598,1.1-1.315,2.329-2.464,3.781c0.168-0.447,0.337-0.894,0.506-1.34          c-4.512,7.358-7.106,16.484-7.663,25.282c-0.049,1.103-0.134,2.195-0.155,3.281c-0.007,1.082-0.013,2.154-0.02,3.214          c0.023,2.011,0.028,3.976,0.002,5.88c-0.051,3.808-0.221,7.37-0.581,10.568c1.793,2.487-0.293,16.639,2.139,17.78          c-0.917,9.58-1.423,6.818-1.834,20.336c-0.007,3.613,1.648,5.42,2.024,9.893c-0.416,0.028-0.832,0.057-1.248,0.085          c0.495,2.031,0.99,4.061,1.484,6.09c-0.467,1.067-0.935,2.134-1.401,3.201c0.146,1.399,0.293,2.799,0.44,4.198          c0.025-1.668,0.459-3.538,0.827-3.279c0.75,6.556-0.416,15.945-1.049,16.099c0.499,5.169,0.997,10.337,1.495,15.504          c-0.51-0.35-0.755-2.946-1.133-5.001c1.505,8.286-1.267,1.485,0.113,9.079c0.252-1.013,0.756,0.558,1.012,0.732          c-0.644,3.768-0.404,12.367,0.093,18.732c-0.296-0.41-0.593-0.819-0.89-1.229c0.112,11.489,1.104,24.229,1.456,37.124          c0.265-4.625,1.771-3.556,2.02,0.225c-0.42,0.502-0.841,1.005-1.262,1.508c0.877,2.443,0.382-3.947,1.51,1.067          c-0.014,4.815-1.39,3.234-1.894,0.467c0.207,1.953,0.413,3.905,0.62,5.857c-0.38,0.343-0.625-1.031-1.131-1.389          c0.878,2.404-1.017,10.111,0.486,13.58c-0.126,0.109-0.252,0.22-0.378,0.329c0.359,12.894,0.974,18.739,1.339,29.241          c1.125,0.199,0.994,4.308,1.987,7.43c-0.138,7.717-0.771,16.289-0.411,25.588c0.741,6.528,0.998,1.896,1.743,4.826          c-1,0.493-0.641,9.777-1.506,4.97c0.482,11.157,0.608,14.253,1.831,28.35c0.372-1.538,0.502-3.263,0.873-2.377          c0.239,2.558-0.259,5.833-0.755,5.476c-0.041-0.225-0.082-0.45-0.123-0.675c1.958,15.805-1.896,36.625,0.563,49.191          c-0.041-0.234-0.082-0.469-0.124-0.703c0.488,4.352,0.976,8.702,1.463,13.051c-0.004,0.376-0.008,0.692-0.01,0.954          c-0.006,0.304-0.011,0.546-0.015,0.732c-0.017,0.323-0.049,0.46-0.093,0.47c-0.043,0.009-0.099-0.11-0.163-0.299          c-0.029-0.095-0.063-0.206-0.101-0.328c-0.018-0.062-0.036-0.125-0.054-0.19c-0.001-0.004-0.002-0.008-0.003-0.012          c0-0.001-0.001-0.003-0.001-0.004c-0.002-0.038-0.003-0.077-0.005-0.116c0-0.002-0.001-0.005-0.001-0.007          c-0.002-0.009-0.004-0.017-0.006-0.024c-0.004-0.017-0.008-0.034-0.013-0.051c-0.009-0.034-0.017-0.067-0.026-0.102          c-0.275-1.091-0.612-2.376-0.859-0.141c0.016,0.11,0.032,0.22,0.048,0.329c0,0.004,0,0.007,0.001,0.01          c0.002,0.05,0.005,0.1,0.007,0.148c0.001,0.007,0.002,0.014,0.003,0.021c0.002,0.014,0.004,0.027,0.007,0.04          c0.004,0.027,0.009,0.055,0.014,0.082c0.009,0.055,0.018,0.108,0.027,0.162c0.035,0.215,0.07,0.43,0.105,0.645          c0.065,0.427,0.13,0.848,0.194,1.264c0.103,0.79,0.275,1.743,0.417,2.623c0.26,1.802,0.614,3.365,0.879,4.93          c0.665,3.079,1.27,5.925,2.078,8.628c0.364,1.365,0.842,2.666,1.271,3.987c0.513,1.282,0.96,2.599,1.575,3.851          c1.127,2.559,2.6,5.016,4.402,7.465c0.64,2.426,2.215,5.423,4.543,8.457c2.323,3.037,5.403,6.079,8.842,8.752          c3.435,2.684,7.217,4.991,10.853,6.885c3.638,1.9,7.119,3.413,9.983,4.787c-0.162-0.309-0.323-0.618-0.485-0.927          c3.239,0.22,3.608,1.466,5.917,2.118c-0.233-0.63-3.263-1.361-1.244-1.343c3.295,0.657,6.665,1.004,10.056,1.125          c1.683,0.094,3.431,0.018,5.078-0.008c1.582-0.053,3.168-0.106,4.759-0.159c6.361-0.185,12.784-0.26,19.227-0.288          c12.885-0.056,25.849,0.074,38.566-0.112c9.3-0.181,5.231-3.954,16.978-2.695c-1.105,0.491-2.209,0.981-3.313,1.473          c18.752-2.355,38.376-1.483,56.741-3.571c-1.093,0.35-1.123,0.75-2.916,0.815c3.884,0.811,14.35-0.528,14.416-1.315          c2.861-0.024,0.665,0.685,2.428,1.014c3.894,0.411,9.77-1.619,11.839-0.746c0.352,0.143-1.094,0.356-1.806,0.46          c2.536-0.567,11.818-0.356,9.388-1.366c6.897,0.253,13.196-1.018,18.695-0.583c3.59-1.375,11.803,0.121,12.949-1.666          c-0.502,1.82,12.083,0.968,16.45-0.05c-1.464,0.601,3.787,0.41,2.073,1.229c4.975-0.225,9.538-0.739,8.678-1.624          c9.146,1.771,18.446-2.452,23.579,0.076c14.792-1.55,28.483-2.736,41.789-3.681c-0.511,1.783-14.703,0.76-14.162,2.594          c12.625-1.233,19.93-3.034,32.433-3.105c3.235,0.111-1.854,0.834-2.953,1.179c6.309-0.612,12.4-0.815,18.319-1.04          c1.479-0.061,2.948-0.121,4.407-0.18c0.182-0.008,0.364-0.017,0.546-0.024c0.219-0.014,0.437-0.026,0.654-0.04          c0.363-0.027,0.726-0.055,1.089-0.083c0.742-0.066,1.399-0.09,2.236-0.217c0.797-0.114,1.592-0.228,2.384-0.339          c0.77-0.145,1.522-0.307,2.277-0.469c0.755-0.148,1.497-0.36,2.236-0.572c0.738-0.22,1.478-0.405,2.195-0.681          c0.003,0.183-1.239,0.666-2.439,1.054c0.586-0.145,1.223-0.276,1.843-0.406c0.615-0.153,1.213-0.312,1.726-0.466          c1.026-0.3,1.697-0.632,1.471-0.978c0,0-0.136,0.058-0.34,0.145c-0.206,0.077-0.481,0.18-0.757,0.283          c-0.553,0.207-1.105,0.414-1.105,0.414c-0.981-0.025-0.916-0.344-0.289-0.812c0.626-0.477,1.826-1.054,3.101-1.775          c2.585-1.345,5.453-3.122,5.524-3.486c-1.405,1.808,1.336,0.846,3.802-0.197c2.423-1.055,4.696-2.023,2.492,0.807          c1.362-0.882,2.863-2.292,2.293-2.533c1.045-0.538,1.744-0.883,1.984-0.848c0.233,0.029,0.036,0.476-0.844,1.363          c3.567-2.568,4.442-3.746,5.319-4.725c0.837-1.027,1.68-1.868,4.512-4.535c0.119,0.144-0.076,0.518-0.344,0.964          c-0.277,0.435-0.627,0.941-0.787,1.377c0.635-0.793,1.242-1.603,1.855-2.453c0.313-0.416,0.636-0.839,0.965-1.275          c0.318-0.444,0.649-0.895,1.001-1.354c1.404-1.833,3.009-3.884,5.062-6.428c-0.052,0.441,0.661,0.004-0.523,1.57          c3.377-4.55,5.331-8.979,6.971-13.498c0.77-2.285,1.524-4.587,2.187-7.057c0.71-2.459,1.354-5.072,2.034-7.965          c0.556,1.819,0.85,0.85,1.201-0.674c0.393-1.515,0.621-3.567,1.404-3.87c-0.001,0,0.025-0.407,0.012-1.018          c-0.006-0.609-0.016-1.419-0.023-2.231c-0.059-1.524-0.116-3.049-0.117-3.049c-0.261,0.82-0.522,1.64-0.784,2.46          c0.189-5.324-0.73-10-0.111-14.589c0.16,1.313,0.32,2.626,0.48,3.938c0.011-3.322,0.021-6.646,0.031-9.968          c-0.243,1.887-0.487,3.773-0.729,5.661c-0.59-5.368-1.87,0.623-1.245-6.476c0.105,1.438,0.18-5.326,1.131-8.122          c0,0-0.001,0.018,0.003,0.018c-0.387-2.623-0.796-5.322-0.31-9.269c0.5-1.032,1.598,0.789,1.931,0.117          c-1.147-2.572,0.046-12.46-1.164-15.728c0.274,1.092,1.044,1.135,1.213,0.771c-0.311-0.721-0.621-1.441-0.932-2.162          c0.396-2.473,0.561-2.836,1.165-2.446c0.411-7.42-1.941,2.39-0.865-6.431c0.06,0.691,0.22,0.357,0.328,1.796          c0.692-8.852-0.111-17.077,0.633-25.211c1.562-2.414,0.145,7.096,1.483,4.336c0.096-11.709-1.035-24.239-0.336-35.581          c-0.076,0.705-0.153,1.41-0.229,2.115c-2.062-1.56,1.303-8.451,0.484-14.18c0.112,1.406,1.116,1.837,0.893,1.459          c0.578-7.766-0.029-15.87-0.335-27.637c0.167,0.486,0.333,0.973,0.5,1.459c0.627-4.576,0.652-12.05,1.054-16.991          c-0.501-1.468-0.323-4.296-1.171-2.581c3.584-15.222-0.779-29.086,2.237-42.587c-0.045,1.616,0.361,3.858,0.402,2.573          c-0.05-3.841-0.1-7.682-0.15-11.523c-0.96,0.899-0.612,1.503-1.411,3.913c-0.508-1.465-0.836-4.722-0.749-7.577          c0.458,5.19,1.499-0.025,2.088-2.255c-0.297,0.371-0.589-0.4-0.887-0.215c1.846-5.994-1.847-1.036-0.477-9.236          c0.159,0.148,0.318,0.296,0.478,0.444c-0.155-3.079-0.72-5.923-0.478-9.238c1.125-1.356,0.405,3.282,1.288,3.508          c0.082-4.656-1.769-9.225-0.56-13.422c0.24,1.983,0.159,4.829,0.396,6.813c1.413-4.567,1.107-5.106,1.414-8.511          c-0.014,0.111-0.026,0.223-0.04,0.334c0.272-2.624,0.546-5.248,0.819-7.872c-0.136,0.667-0.271,1.334-0.406,2.001          c-2.648-5.885-0.151-11.876-1.767-19.769c1.523,7.671,0.977,1.284,2.192,1.898c0.404-1.996,0.881-5.035,1.2-4.159          c-0.879-3.732,0.976-6.172-0.316-11.444c0.405-0.224,0.16-3.967,1.134-3.104c-0.163-4.829-0.728,1.123-1.213,0.705          c-0.564-3.735-0.02-8.094,0.478-12.86c0.249-2.383,0.483-4.868,0.563-7.43c0.007-0.321,0.014-0.643,0.021-0.964          c0.001-0.187,0.001-0.374,0.001-0.561c-0.004-0.162-0.008-0.324-0.013-0.486c-0.02-0.65-0.052-1.303-0.099-1.959          c-0.158-1.368-0.339-2.847-0.732-4.198c-0.875-4.765-2.099-7.432-3.326-9.926c-1.305-2.472-2.587-4.813-4.808-8.577          c-0.372-1.436,0.222-1.056,0.924-0.288c0.724,0.754,1.441,1.938,1.441,1.938c-1.455-4.614-3.486-7.837-6.647-11.272          c0.863,0.552,0.514-0.361-0.016-1.744c-1.216-1.457-1.963-1.687-2.668-2.119c-0.354-0.216-0.741-0.449-1.215-0.883          c-0.486-0.423-1.009-1.088-1.818-2.027c0.951,0.285,2.214,0.643,3.841,1.719c-3.352-3.134-7.229-5.599-11.241-8.011          c-0.602-1.256,2.95,0.842,4.53,1.614c-2.157-1.595-5.1-3.473-7.806-4.821c-0.682-0.329-1.341-0.636-1.959-0.912          c-0.629-0.261-1.227-0.473-1.762-0.655c-1.064-0.372-1.924-0.532-2.417-0.469c0,0,0.181,0.11,0.451,0.275          c0.273,0.16,0.63,0.387,0.978,0.629c0.697,0.471,1.394,0.942,1.394,0.942c-1.711-0.84-0.429-1.241,0.946-0.735          c1.102,0.383,1.991,0.827,2.715,1.247c0.712,0.439,1.232,0.894,1.626,1.288c0.79,0.787,0.993,1.433,0.978,1.658          c-0.001,0-0.706-0.439-1.444-0.829c-0.729-0.4-1.457-0.8-1.457-0.8c0.79,1.831,3.53,3.502,6.571,5.595          c3.045,2.061,6.383,4.587,8.407,7.156c0,0-0.775-0.264-1.552-0.529c-0.764-0.25-1.527-0.499-1.527-0.5          c0,0,0.335,0.256,0.837,0.639c0.493,0.392,1.201,0.885,1.834,1.442c0.652,0.553,1.302,1.105,1.79,1.519          c0.468,0.436,0.78,0.726,0.78,0.726c0.449,1.385,0.174,2.603-1.83,0.208c0.477,1.031,0.893,1.716,1.256,2.246          c0.346,0.538,0.663,0.903,0.969,1.255c0.625,0.69,1.144,1.377,1.673,3.238c0.062,0.435-0.088,0.293-0.341-0.015          c-0.001,0,0.164,0.22,0.384,0.563c0.227,0.342,0.526,0.799,0.827,1.256c0.31,0.454,0.597,0.92,0.798,1.276          c0.208,0.354,0.347,0.59,0.347,0.59c-0.684-0.639-0.798,1.067-1.683-1.396c1.226,3.624,2.471,6.397,3.427,8.718          c0.468,1.158,0.868,2.191,1.062,3.133c0.108,0.468,0.18,0.91,0.204,1.328c0.005,0.42-0.042,0.817-0.145,1.191          c-0.067-0.203-0.136-0.406-0.203-0.609c0.591,2.561,0.804,3.929,1.063,4.625c0.231,0.697,0.396,0.733,0.611,0.685          c0.211-0.048,0.444-0.184,0.741,0.193c0.148,0.189,0.313,0.508,0.5,1.038c0.19,0.53,0.4,1.278,0.564,2.282          c0,0-0.193,0.338-0.484,0.846c-0.286,0.511-0.682,1.183-1.092,1.846c-0.812,1.334-1.623,2.67-1.623,2.67          c0.406,0.365,0.812,0.729,1.217,1.094c-0.079,1.109-0.24,3.301-0.726,2.882c0.728,4.153,0.563-0.69,1.296,1.73          c-1.296,5.31,0.082,14.74-1.938,15.892c0.888,1.94,0.886-5.088,1.37,0.63c-2.181,1.574,0.163,6.602-0.961,11.456          c-1.054-1.524-0.331-6.134-1.46-1.273c1.768,2.987-0.694,9.494-0.463,13.62c1.469,0.225,0.344,8.964,0.625,15.881          c-0.479-0.446-1.2,12.983-1.925,19.403c-0.08-0.064-0.161-0.129-0.241-0.193c1.447,1.266,0.966,7.89,1.127,12.721          c-0.883-0.201-1.205-1.074-1.524-3.694c-0.043,1.512-0.086,3.024-0.129,4.537c0.442,1.078,0.649,2.496,0.73,5.442          c-0.357-0.385-0.715-0.77-1.072-1.155c-0.12,6.041,0.936,12.177-0.038,19.941c1.018,0.444,3.056-6.152,3.494,2.066          c-0.566,0.299-1.527,0.596-1.69-1.557c0.054,0.706,0.387,2.516,0.106,3.933c-0.279-1.097-0.558-2.194-0.837-3.291          c-0.52,3.537,0.726,1.857,0.553,4.686c-0.793-0.063-0.631,2.089-1.248,1.679c-0.055-0.723,0.404-2.466,0.125-3.553          c-0.239,3.19-0.827,7.044-1.465,8.315c0.46-0.275,1.068,0.007,1.1,2.343c-0.123,6.04-1.015,2.062-1.528,5.583          c0.506,1.466-0.179,5.317,1,5.423c-0.06,1.768-0.621,2.092-0.962,2.774c0.428,3.128-0.289,14.602,1.073,11.081          c0.035-0.267,0.07-0.535,0.106-0.802c0.011,0.15,0.023,0.326,0.037,0.511c0.001-0.026,0,0,0.001-0.026          c-0.001,0.009-0.001,0.018-0.001,0.026c0.861,10.242-1.313,21.28-1.116,31.444c-0.131-0.006-0.262-0.011-0.393-0.017          c0.266,6.068-0.144,13.506,0.57,17.832c-0.055,1.793-0.846,4.24-1.289,3.478c0.155,4.636,0.578,5.15-0.27,11.856          c-0.542-4.657-0.654,1.615-0.357-4.773c-0.519,6.029-1.187,7.404-0.313,13.863c-0.936-2.193-1.397,4.552-1.184,7.414          c0.281-1.411,0.563-2.822,0.845-4.232c0.048,3.22-0.126,6.038-0.297,8.9c-0.424-0.51-0.847-1.02-1.27-1.529          c-1.967,12.365,2.05,22.203-0.903,31.643c0.818,3.244,0.847-6.715,1.832-3.816c-0.349,5.677-2.406,11.627-2.462,13.405          c-0.959,7.791,1.692,7.211,0.952,15.356c0.497-1.052,1.772-2.063,2.026,4.003c-0.346,5.68-2.165,7.027-2.431,3.451          c0.003-1.36,0.17-2.021,0.325-1.968c-0.113-1.829-0.24-4.232-0.813-1.972c0.147,0.242,0.296,0.483,0.443,0.726          c-0.56,2.829-0.744,10.641-1.452,8.827c0.315,4.278,0.708,1.813,1.045-1.372c-0.446,3.651-0.536,6.497-0.6,9.368          c-0.065,2.946-0.064,5.592-0.793,9.084c0.448-1.08,1.043-2.099,0.938-0.975c-0.254,1.29-0.457,2.329-0.623,3.173          c-0.191,0.839-0.313,1.486-0.392,1.998c-0.162,1.024-0.182,1.504-0.111,1.894c0.114,0.777,0.503,1.18-0.576,4.684          c-1.046,1.861-1.307,1.373-1.561,1.326c-0.265-0.052-0.439,0.321-1.673,3.738c-2.385,3.808-1.472,0.354-1.106-1.318          c-0.911,3.108-2.587,5.731-4.293,7.829c-0.823,1.071-1.74,1.97-2.512,2.824c-0.838,0.811-1.535,1.582-2.179,2.243          c0.001,0,0.12-0.175,0.301-0.436c0.169-0.27,0.396-0.628,0.621-0.986c0.224-0.358,0.447-0.716,0.615-0.983          c0.171-0.265,0.271-0.451,0.271-0.451c-0.521,0.861-1.053,1.608-1.573,2.313c-0.554,0.678-1.096,1.313-1.648,1.949          c0.651-0.302,1.303-0.603,1.954-0.903c-1.409,1.454-2.614,2.66-2.852,2.388c-0.491,0.952,0.044,0.923,0.432,1.09          c0.383,0.168,0.645,0.551-0.611,2.319c-1.149,0.812-2.643,2.308-4.103,3.512c-0.71,0.627-1.449,1.123-2.063,1.486          c-0.615,0.362-1.143,0.536-1.508,0.417c3.622-2.368,3.182-2.553,2.658-2.563c-0.548-0.043-1.219-0.028,1.444-2.388          c-0.945,1.005-2.251,2.078-3.968,3.134c-0.317,0.073,0.086-0.37,0.481-0.749c-3.512,1.932-4.139,2.58-4.725,3.505          c-0.289,0.461-0.588,0.934-1.282,1.545c-0.683,0.632-1.782,1.371-3.692,2.266c0.361-0.522-0.212-0.621-1.006-0.513          c-0.793,0.115-1.813,0.438-2.421,0.725c1.551-0.567,1.995-0.532,1.755-0.029c-0.24,0.505-1.242,1.313-2.637,2.12          c-5.263,1.208-5.563,2.042-8.365,2.588c0,0,0.201-0.018,0.504-0.045c0.302-0.043,0.703-0.099,1.104-0.155          c0.807-0.115,1.614-0.229,1.613-0.229c-0.479,0.451-1.397,0.811-2.667,1.176c-0.639,0.151-1.365,0.305-2.167,0.474          c-0.805,0.175-1.658,0.273-2.597,0.449c-0.325-0.491,3.356-0.773,2.016-0.84c-0.499,0.208-1.025,0.364-1.57,0.478          c-0.545,0.116-1.102,0.196-1.735,0.2c-0.618,0.017-1.252,0.003-1.9-0.025c-0.626-0.056-1.265-0.111-1.918-0.169          c-2.697-0.259-5.611-0.56-8.692-0.032c-2.837-0.36-0.249-1.286-2.742-1.509c-6.906,1.159-7.439-0.662-14.694,0.354          c2.067,0.853,2.437,0.609-2.677,1.714c3.97-0.371,7.94-0.741,11.912-1.111c-2.555,0.548-5.108,1.096-7.662,1.645          c3.589-0.125,7.589-0.876,9.736-0.801c-3.654,0.898-3.274,0.653-1.571,1.358c-4.886-1.205-9.756,1.191-15.416,0.468          c0.071-0.771,0.143-1.543,0.215-2.314c-8.523-0.703-15.195,1.767-26.273,1.612c1.187,0.089,2.373,0.177,3.559,0.266          c-1.501,0.979-6.849,0.392-10.443,0.904c0.344-0.79-1.897-0.984-3.424-1.409c0.18,0.569-8.117,0.256-9.143,1.85          c-1.646-0.278-3.291-0.557-4.938-0.836c-8.95-0.077-10.241,2.612-18.843,2.683c2.6-0.949-1.307-1.352,4.464-2.181          c-2.874,0.103-5.457,0.059-5.506,0.604c-1.676-0.427-7.978,1.357-10.613,0.717c-1.215,0.391-1.616,1.226-4.841,1.286          c-0.351-0.146,0.016-0.388,0.016-0.388c-0.016,0.388-5.054,0.722-2.239,1.479c-8.837-2.104-24.735,1.139-32.436-0.671          c-6.272,0.505-13.827,1.05-19.519,1.328c0.365-0.25,0.017-0.396,1.095-0.354c-7.854-0.434-4.825,2.458-13.76,1.982          c-4.568-1.104,4.742-0.875,1.895-1.251c-1.246-2.56-10.783,0.772-16.802-0.521c0.485-0.069,0.971-0.14,1.456-0.209          c-4.602-0.713-11.212,1.422-18.723,1.524c0,0,0.363-0.246,0.042-0.397c-5.127,1.533-14.846,2.354-22.065,3.008          c2.239-1.117,3.277-0.672,1.896-1.665c-3.237,0.273,0.964,1.643-5.495,2.187c-2.107-0.481-6.776-0.795-7.408-1.89          c2.033-0.099,4.065-0.197,6.098-0.296c-3.138-1.326-7.893,0.353-11.107,0.226c0.134-0.217,0.269-0.433,0.402-0.649          c-9.344,0.564-9.453,2.168-19.498,2.443c0.348,0.146,0.696,0.293,1.044,0.439c-5.464,1.801-4.614-0.714-10.07,0.68          c-0.561-0.517-1.121-1.033-1.682-1.55c-3.616,0.527-12.66,2.051-19.148,2.607c3.657-1.344,11.246-2.247,15.939-3.139          c-3.591,0.126-12.2,0.586-14.057,1.456c1.445-0.212,3.26-0.677,4.694-0.482c-4.384,1.438-10.167,2.291-17.319,2.54          c0.604-1.596-4.061-1.613-9.532-1.514c-1.368,0.024-2.786,0.049-4.185,0.074c-1.356-0.026-2.635-0.011-3.851-0.168          c-0.604-0.07-1.186-0.148-1.735-0.234c-0.548-0.097-1.063-0.239-1.537-0.37c-0.475-0.138-0.908-0.279-1.292-0.439          c-0.381-0.179-0.712-0.367-0.987-0.564c-5.881-0.258-11.561-2.356-16.824-5.526c-5.285-3.188-10.139-7.538-14.772-12.82          c0.791,2.737,0.118,1.986-0.941,0.802c-1.046-1.178-2.345-2.85-3.014-1.695c-2.169-2.676-2.794-3.87-2.847-4.209          c0,0-0.295-0.596-0.665-1.527c-0.189-0.46-0.411-0.997-0.648-1.572c-0.225-0.58-0.439-1.213-0.666-1.833          c-0.474-1.23-0.805-2.521-1.109-3.451c-0.267-0.95-0.418-1.589-0.418-1.589c-0.143-1.276,0.287-0.58,0.79,0.355          c0.489,0.944,1.172,2.076,1.333,1.815c-0.754-1.662-1.039-2.748-1.214-3.438c-0.17-0.693-0.124-1.041-0.059-1.313          c0.158-0.551,0.387-0.815-0.015-3.166c-0.501,1.23-2.019-1.983-2.45-6.142c0,0,0.004,0.372,0.01,0.929          c0.008,0.56,0.001,1.313,0.063,2.059c0.047,0.753,0.094,1.506,0.129,2.071c0.062,0.562,0.104,0.938,0.104,0.938          c-2.047-4.786-1.758-7.253-1.592-9.479c0.073-0.547,0.145-1.088,0.192-1.665c0.018-0.292,0.037-0.596,0.056-0.914          c0.024-0.364,0.041-0.747,0.047-1.155c0.006-0.406,0.002-0.839-0.014-1.301c-0.019-0.417-0.039-0.861-0.061-1.341          c-0.063-1.063-0.182-2.274-0.378-3.685c0.284,1.187,0.567,2.373,0.851,3.559c-0.603-5.796-0.567-21.427-2.653-27.076          c0.249-1.036,0.868-2.407,1.112,0.146c-0.088-13.887-2.905-30.867-2.01-41.68c0.206,0.348,0.412,0.695,0.619,1.043          c-0.242-2.587-1.232-4.492-0.728-7.745c0.249,0.164,0.618,1.034,0.62-0.166c-0.241-1.367-1.224-6.865-0.974-10.303          c0.249,0.975,0.497,1.949,0.746,2.924c0.405-13.552-2.191-20.765-2.914-32.123c1.748,0.014,2.025-10.646,2.164-15.967          c0.084,0.062,0.168,0.123,0.253,0.186c-0.213-15.769-2.185-26.78-3.279-41.388c1.662-9.064-0.042-30.708,0.634-45.271          c-0.26,2.226-1.389-0.373-1.638-2.965c0.266-3.415-1.49-9.465,0.15-8.906c0.001,0.406,0.002,0.813,0.003,1.219          c1.524-2.561,0.909-9.591,0.802-15.075c-0.718-0.31-1.437-0.621-2.155-0.931c2.709-14.308-2.178-37.628,0.393-45.412          c-0.63-3.473-0.742-7.763-1.372-11.208c0.385,0.07,0.771,0.14,1.155,0.21c0.031-9.587,0.046-14.373-0.554-26.24          c0.297,0.813,0.594,1.626,0.891,2.439c-0.108-6.686-3.559-8.533-3.798-14.709c0.558-0.603,1.116-1.206,1.674-1.809          c-0.087-2.918-0.078-5.842-0.044-8.768c0.01-0.731,0.02-1.462,0.029-2.192c0.03-0.67,0.059-1.339,0.089-2.009          c0.013-0.67,0.081-1.333,0.145-1.996c0.071-0.662,0.097-1.329,0.193-1.983c0.305-2.636,0.792-5.215,1.287-7.789          c0.549-2.56,1.146-5.1,1.741-7.686c0.174,0.271,0.533,0.776,0.003,2.371c0.231-0.564,0.516-1.26,0.836-2.042          c0.37-0.757,0.78-1.597,1.211-2.478c0.931-1.722,1.986-3.57,3.025-5.183c2.028-3.249,3.788-5.737,2.281-5.865          c0.651,0.458,2.333-1.594,4.562-4.125c2.217-2.538,5.132-5.455,7.362-7.284c-0.022,0.491-0.044,0.982-0.065,1.473          c1.551-1.925,2.4-2.961,3.55-3.958c0.288-0.252,0.593-0.505,0.937-0.77c0.354-0.245,0.747-0.502,1.197-0.782          c0.888-0.584,2.052-1.164,3.609-1.914c1.615-0.392,1.692,0.359-0.424,0.866c2.639-0.691,3.534-1.251,4.605-1.849          c0.533-0.3,1.099-0.633,1.968-0.894c0.861-0.28,2.006-0.563,3.688-0.699c0,0-0.563,0.296-1.126,0.592          c-0.563,0.283-1.102,0.622-1.102,0.622c2.734-0.56,3.993-0.805,4.927-1.122c0.93-0.343,1.535-0.715,3.048-1.271          c0.887-0.22,1.994-0.263,3.184-0.296c1.164-0.022,2.624,0.122,3.74,0.258c2.482,0.355,4.609,0.884,5.061,1.419          c0.794-0.601,4.052-1.318,7.583-0.882c0.484,0.41-0.795,0.603-1.439,0.696c10.018,1.165,14.85-0.752,21.75,0.637          c0.148,0.383,0.6,0.589,1.172,0.725c-7.946-0.334-14.345-0.645-13.748-0.704c0.02,1.054,6.438,1.485,1.361,2.744          c5.136-0.598,13.916-1.981,20.18-1.245c0.303,0.114,0.602,0.225,0.832,0.395c-0.215,0.031-0.43,0.062-0.645,0.093          c1.445,0.161,2.736,0.112,3.951-0.017c1.998,0.25,3.269,0.426,5.185,0.514c0.753,0.896,7.366,0.751,10.565,0.917          c-0.28-1.156,3.913-0.81-0.026-1.907c0.511,0.101-0.602,0.113-2.729,0.079c-0.481,0.015-1.047,0.01-1.362,0.065          c0.061-0.029,0.136-0.063,0.216-0.092c-2.099-0.061-4.84-0.141-7.954-0.231c2.52-0.485,5.156-0.873,8.704-0.099          c1.632-0.673,3.429-1.36,4.443-1.675c4.401,1.768,12.854,2.956,14.04,3.983c9.763-0.265,23.013,0.462,29.139-1.435          c2.777-0.166,3.2,0.736,4.24,1.112c-1.603,0.152-3.509,0.046-4.375,0.319c5.549-0.333,16.456,0.423,17.773-1.013          c7.007,0.943-3.927,1.217,5.693,1.347c-0.432,0.134-0.863,0.27-1.295,0.404c18.931,3.096,30.762-2.587,51.753,1.262          c-1.454-0.242-2.181-0.356-2.478-0.614c23.92,2.256,49.314,0.675,72.908,3.687c6.704,0.681,7.441-0.221,11.545-0.768          c0.48,0.416,0.961,0.831,1.44,1.247c2.34-0.367,4.68-0.734,7.02-1.1c9.945-0.614,17.155,3.577,29.755,2.172          c-0.537-0.287-1.074-0.573-1.611-0.86c4.514,0.327,14.313,0.088,13.541,0.973c0.466-0.127,1.497-0.769,3.255-0.286          c0.042,0.208,0.084,0.415,0.126,0.623c3.703-0.209,7.406-0.417,11.11-0.625c8.589,0.779-1.394,2.392,11.15,2.997          c4.666-0.058,13.316-1.274,11.576-1.752c-1.883-0.104-4.801-0.57-4.93-1.191c1.425-0.051,2.85-0.102,4.274-0.153          c0.814-1.778,4.14-3.497-6.313-5.179c-2.442,0.271-4.884,0.543-7.325,0.816c-0.777-0.324-1.556-0.648-2.334-0.973          c2.049,0.063,4.098,0.127,6.146,0.19c-3.468-0.966-5.695-0.324-8.18,0.081c-0.575-0.491-1.594-0.859-3.041-1.092          c-2.401,0.482-4.802,0.965-7.202,1.449c-0.856-0.747,3.243-1.282-1.563-1.867c-3.372,0.672,3.19,1.722-2.378,2.031          c-3.479-0.965-2.447-1.599-6.559-1.056c-0.568-0.492,0.307-0.756,1.934-0.897c-3.66,0.416-9.662-0.148-11.563,0.746          c-3.625-1.168-12.325-0.225-11.94-1.938c-1.154,0.367-6.448,1.101-9.802,1.04c6.153-1.83-12.546-0.622-10.9-2.784          c-4.556,1.687-16.386,0.174-24.424,0.893c0.449-0.131,1.335-0.398,2.043-0.274c-4.519-0.335-5.826-0.954-8.729-1.425          c-0.593,1.527-7.632,1.602-11.431,2.41c-5.529-1.72,3.374-1.69,1.646-3.199c0.271,1.27-9.635,0.872-7.756,1.998          c-4.231-1.098-3.647-0.596-5.823-1.974c-0.752,1.917-3.946,0.171-7.465,1.228c-6.127-1.205-1.571-1.89-8.308-1.565          C275.603,23.154,281.596,22.703,281.596,22.703z M121.446,19.722c0-0.011,0-0.019,0-0.023          c1.379,0.028,2.554,0.051,3.305,0.066C124.061,19.756,123.107,19.743,121.446,19.722z M107.988,19.206          c1.64,0.11,3.68,0.199,5.837,0.277c0.479,0.417-0.024,0.805-1.379,0.73C113.178,19.977,110.001,19.622,107.988,19.206z           M136.567,28.28c-2.126,0.081-2.841-0.172-3.137-0.418c1.004,0.019,2.178,0.025,3.72,0.006          c0.061-0.041,0.188-0.084,0.248-0.13C137.199,27.948,136.971,28.145,136.567,28.28z" style="fill:#373737;"/><path d="M140.373,26.925c0.306-0.013,0.475-0.056,0.876-0.05c-0.436-0.117-0.853-0.22-1.273-0.307          c-0.257,0.113-0.52,0.229-0.75,0.33C139.613,26.907,140.014,26.916,140.373,26.925z" style="fill:#373737;"/><path d="M482.381,255.083c-0.012,0.088-0.022,0.177-0.033,0.265c0.051-0.22,0.101-0.423,0.177-0.555          C482.464,254.969,482.43,254.968,482.381,255.083z" style="fill:#373737;"/><path d="M18.659,143.912c0.096-0.004,0.191-0.009,0.287-0.013c-0.095-0.397-0.19-0.795-0.285-1.192          C18.66,143.108,18.66,143.51,18.659,143.912z" style="fill:#373737;"/><path d="M488.37,185.954c0.103-0.13,0.216-0.389,0.318-0.903          C488.612,185.09,488.497,185.48,488.37,185.954z" style="fill:#373737;"/><path d="M489.546,156.096c0.179-1.405,0.357-2.811,0.536-4.216          C489.794,153.703,489.644,155.031,489.546,156.096z" style="fill:#373737;"/><path d="M490.819,133.148c-0.191-0.295-0.34-0.382-0.475-0.46c-0.005,0.018-0.008,0.031-0.011,0.044          C490.496,132.871,490.657,133.01,490.819,133.148z" style="fill:#373737;"/><path d="M431.208,481.359c-0.33,0.08-0.655,0.166-0.945,0.259c-1.108,0.312-1.289,0.363-0.979,0.297          C429.596,481.854,430.39,481.645,431.208,481.359z" style="fill:#373737;"/><path d="M481.611,389.573c0.164,1.149,0.327,2.281,0.414,3.48          C482.17,391.118,482.237,389.616,481.611,389.573z" style="fill:#373737;"/><path d="M307.926,488.532c0.014-0.008,0-0.01,0.014-0.021c-0.263,0.011-0.494,0.02-0.757,0.03          C307.431,488.539,307.678,488.535,307.926,488.532z" style="fill:#373737;"/><path d="M481.851,398.106c0.278-1.938,0.282-3.554,0.175-5.053          C481.902,394.642,481.731,396.512,481.851,398.106z" style="fill:#373737;"/><path d="M461.48,40.1c-0.001,0-0.26-0.173-0.531-0.327c-0.269-0.155-0.54-0.31-0.539-0.31          c-0.021,0.072-0.116,0.087-0.223,0.082c0,0,0.325,0.134,0.65,0.269C461.166,39.942,461.479,40.1,461.48,40.1z" style="fill:#373737;"/><path d="M460.188,39.544c-0.43-0.177-0.859-0.353-1.289-0.53          C459.46,39.308,459.949,39.556,460.188,39.544z" style="fill:#373737;"/><path d="M456.153,37.999c0,0,0.688,0.246,1.378,0.492c0.696,0.235,1.367,0.524,1.367,0.524          C458.021,38.529,456.883,38.01,456.153,37.999z" style="fill:#373737;"/><path d="M484.654,63.616c0.186,0.048,0.37,0.096,0.556,0.144          C485.03,63.62,484.847,63.563,484.654,63.616z" style="fill:#373737;"/><path d="M488.904,72.521c-0.69-2.217-1.375-5.811-3.247-8.634c-0.149-0.042-0.298-0.084-0.447-0.127          c0.68,0.535,1.309,2.281,1.901,4.093c0.268,0.918,0.579,1.837,0.852,2.663C488.235,71.343,488.539,72.052,488.904,72.521z" style="fill:#373737;"/><path d="M486.452,111.687c0.188-2.579,0.378-5.157,0.567-7.735c-0.484,1.34-1.133,3.105-1.135-0.42          C484.271,113.26,486.938,101.544,486.452,111.687z" style="fill:#373737;"/><path d="M485.087,135.69c-0.081-4.166-0.643,0.034-0.886-0.192          C484.524,138.148,484.606,138.79,485.087,135.69z" style="fill:#373737;"/><path d="M479.851,309.278c-0.335-0.137-0.669-0.273-1.004-0.41          C478.896,312.076,479.239,308.896,479.851,309.278z" style="fill:#373737;"/><path d="M484.077,342.385c0.242-1.042,0.483-2.084,0.726-3.126c-0.293-0.491-0.587-0.981-0.881-1.472          C483.974,339.319,484.025,340.853,484.077,342.385z" style="fill:#373737;"/><path d="M476.287,362.099c-0.034-0.467-0.068-0.933-0.103-1.399c0.068,1.782,0.138,3.564,0.206,5.348          C476.355,364.73,476.321,363.414,476.287,362.099z" style="fill:#373737;"/><path d="M273.859,480.056c0.325,0.405,0.651,0.812,0.977,1.218          C277.028,480.963,277.491,479.535,273.859,480.056z" style="fill:#373737;"/><path d="M146.681,486.233c-1.395-0.589-4.978-0.864-7.173-0.148          C142.369,486.063,145.227,486.455,146.681,486.233z" style="fill:#373737;"/><path d="M29.891,180.165c0.167,0.913,0.334,1.826,0.5,2.739c-0.165-1.719-0.33-3.438-0.496-5.157          C29.895,178.553,29.893,179.358,29.891,180.165z" style="fill:#373737;"/></g></g></g></g></g></g></g></g><g id="Layer_1"/></svg>