<svg xmlns="http://www.w3.org/2000/svg" xmlns:xlink="http://www.w3.org/1999/xlink" viewBox="0 0 650 200"><defs><style>.cls-1{fill:#fff;}.cls-2{fill:url(#linear-gradient);}.cls-3{fill:url(#linear-gradient-2);}.cls-4{opacity:0.7;}</style><linearGradient id="linear-gradient" x1="62.46" y1="97.06" x2="46.99" y2="112.53" gradientUnits="userSpaceOnUse"><stop offset="0.07" stop-color="#fff" stop-opacity="0.4"/><stop offset="1" stop-color="#fff"/></linearGradient><linearGradient id="linear-gradient-2" x1="64.03" y1="144.56" x2="80.97" y2="127.62" gradientUnits="userSpaceOnUse"><stop offset="0.07" stop-color="#fff" stop-opacity="0.4"/><stop offset="0.91" stop-color="#fff"/></linearGradient></defs><g id="Logo_Lock-up" data-name="Logo Lock-up"><path class="cls-1" d="M135.62,92.19h7.92V132.4c0,10.65-4.66,17.95-15.58,17.95a28.21,28.21,0,0,1-9.5-1.49V141.2a22.18,22.18,0,0,0,8.18,1.5c6.69,0,9-4,9-9.77Z"/><path class="cls-1" d="M158,89.11a5.28,5.28,0,1,1-5.28,5.28A4.94,4.94,0,0,1,158,89.11ZM154.1,106h7.57v44H154.1Z"/><path class="cls-1" d="M180.5,150h-7.39V106h7.39v7.75c2.55-5.2,6.95-8.89,15.57-8.37v7.4c-9.68-1-15.57,1.93-15.57,11.26Z"/><path class="cls-1" d="M231.54,142.08c-2.82,5.81-8.1,8.8-14.87,8.8-11.71,0-17.6-9.94-17.6-22.88,0-12.41,6.16-22.88,18.48-22.88,6.42,0,11.35,2.91,14,8.63V106h7.57v44h-7.57Zm-12.85,1.76c6.78,0,12.85-4.31,12.85-14.08v-3.52c0-9.77-5.55-14.08-12-14.08-8.54,0-12.94,5.63-12.94,15.84C206.63,138.56,210.86,143.84,218.69,143.84Z"/><path class="cls-1" d="M283.9,150.88c-11.18,0-16.37-2.2-20.86-4.49V138.3c5.37,2.81,13.64,4.84,21.3,4.84,8.71,0,12-3.44,12-8.54s-3.16-7.83-14.16-10.47c-13-3.17-18.83-7.66-18.83-17.16,0-9,6.86-15.66,20.32-15.66,8.36,0,13.73,2,17.69,4.22v7.92a35.58,35.58,0,0,0-18-4.4c-7.57,0-12,2.64-12,7.92,0,4.75,3.69,7.13,13.9,9.68,12.23,3.08,19.09,7,19.09,17.42C304.22,144.1,298.24,150.88,283.9,150.88Z"/><path class="cls-1" d="M310.91,127.91c0-13.2,7.75-22.79,20.95-22.79s20.76,9.59,20.76,22.79-7.65,23-20.76,23S310.91,141.11,310.91,127.91Zm7.39,0c0,8.36,4.14,15.93,13.56,15.93s13.37-7.57,13.37-15.93-4.05-15.75-13.37-15.75S318.3,119.55,318.3,127.91Z"/><path class="cls-1" d="M371.9,106h11.35v7H371.9v37h-7.4V113h-7.12v-7h7.12v-4.84c0-8.18,4.58-13.73,14-13.73a18.22,18.22,0,0,1,5.1.71v7a25.28,25.28,0,0,0-4.75-.44c-4.67,0-7,2.73-7,6.69Z"/><path class="cls-1" d="M408.85,142.87a24.42,24.42,0,0,0,4.76-.61v7.3a18.3,18.3,0,0,1-5.11.7c-9.41,0-14-5.54-14-13.72V113h-7.13v-7h7.13V96.67h7.39V106h11.71v7H401.9v23.32C401.9,140.23,404.19,142.87,408.85,142.87Z"/><path class="cls-1" d="M464.82,150l-7.57-21.3-4-13.55-4,13.55L441.59,150h-9.68l-16.19-44h8.36l12.67,37.31L449.6,106h7.21l12.85,37.31L482.33,106h8.36L474.5,150Z"/><path class="cls-1" d="M525.28,142.08c-2.82,5.81-8.1,8.8-14.87,8.8-11.71,0-17.6-9.94-17.6-22.88,0-12.41,6.16-22.88,18.48-22.88,6.42,0,11.35,2.91,14,8.63V106h7.57v44h-7.57Zm-12.85,1.76c6.78,0,12.85-4.31,12.85-14.08v-3.52c0-9.77-5.55-14.08-12-14.08-8.53,0-12.93,5.63-12.93,15.84C500.38,138.56,504.6,143.84,512.43,143.84Z"/><path class="cls-1" d="M551.68,150h-7.39V106h7.39v7.75c2.55-5.2,7-8.89,15.57-8.37v7.4c-9.68-1-15.57,1.93-15.57,11.26Z"/><path class="cls-1" d="M593.92,150.88c-16.46,0-23.67-9.5-23.67-23,0-13.29,7.39-22.79,20.76-22.79,13.55,0,19,9.42,19,22.79v3.43H577.9c1.06,7.48,5.9,12.32,16.28,12.32a38.94,38.94,0,0,0,13.38-2.37v7C604,150.18,598.41,150.88,593.92,150.88Zm-16.11-26h24.56c-.45-8.18-4.14-12.85-11.71-12.85C582.65,112,578.61,117.18,577.81,124.83Z"/><path class="cls-1" d="M63.06,158.87a18.87,18.87,0,0,0,0-26.67h0L38.48,107.69,27.3,118.87a3,3,0,0,0,0,4.25l35.75,35.75Z"/><path class="cls-1" d="M98.81,118.87,63.05,83.12h0l-.11.11,0,0a18.85,18.85,0,0,0,.08,26.59L87.63,134.3l11.18-11.18A3,3,0,0,0,98.81,118.87Z"/><path class="cls-2" d="M63.06,109.79A18.85,18.85,0,0,1,63,83.2L37.47,108.71l13.34,13.34L63.06,109.8Z"/><path class="cls-3" d="M75.29,120,63.06,132.2a18.87,18.87,0,0,1,0,26.67h0L88.63,133.3Z"/></g><g id="Attribution"><g class="cls-4"><path class="cls-1" d="M224.86,63.74c0-4-2.55-5.75-7.38-7-3-.76-3.73-1.41-3.73-2.42,0-1.2,1.06-1.81,3.05-1.81a16.51,16.51,0,0,1,7,1.85v-5A15.8,15.8,0,0,0,217,47.87c-5.26,0-8.18,2.53-8.18,6.6,0,3.9,2.58,5.89,7,6.87,3.05.68,4,1.19,4,2.5,0,1-.73,1.82-3,1.82a16.46,16.46,0,0,1-8.06-2.3v5.28a17.49,17.49,0,0,0,8,1.86C222.23,70.5,224.86,67.81,224.86,63.74Z"/><path class="cls-1" d="M285.28,48.19v22H290V53.43l2,4.44,6.6,12.31h5.88v-22h-4.67v14.2L298,58.28l-5.32-10.09Z"/><path class="cls-1" d="M255.61,48.19h-5.12v22h5.12Z"/><path class="cls-1" d="M169.16,48.19v22h10.46l1.65-4.76h-7V48.19Z"/><path class="cls-1" d="M148.43,48.19V53h5.67V70.18h5.11V53h6.08V48.19Z"/><path class="cls-1" d="M141,48.19h-6.74l-7.66,22h5.85l1.09-3.72a14.84,14.84,0,0,0,4.11.61,13.87,13.87,0,0,0,4.11-.61l1.09,3.72h5.85Zm-3.39,14.35a10.85,10.85,0,0,1-2.82-.4l2.82-9.63,2.82,9.63A10.61,10.61,0,0,1,137.59,62.54Z"/><path class="cls-1" d="M197.74,48.19H191l-7.67,22h5.85l1.09-3.72a14.86,14.86,0,0,0,4.12.61,13.87,13.87,0,0,0,4.11-.61l1.09,3.72h5.85Zm-3.39,14.35a11,11,0,0,1-2.82-.4l2.82-9.63,2.83,9.63A11,11,0,0,1,194.35,62.54Z"/><path class="cls-1" d="M274,48.19h-6.74l-7.66,22h5.85l1.08-3.72a15,15,0,0,0,4.12.61,13.87,13.87,0,0,0,4.11-.61l1.09,3.72h5.85Zm-3.35,14.35a10.85,10.85,0,0,1-2.82-.4l2.82-9.63,2.82,9.63A11.16,11.16,0,0,1,270.62,62.54Z"/><path class="cls-1" d="M245.23,63.74c0-4-2.55-5.75-7.38-7-3-.76-3.73-1.41-3.73-2.42,0-1.2,1.06-1.81,3-1.81a16.51,16.51,0,0,1,7,1.85v-5a15.8,15.8,0,0,0-6.88-1.49c-5.26,0-8.18,2.53-8.18,6.6,0,3.9,2.58,5.89,7,6.87,3.05.68,4,1.19,4,2.5,0,1-.74,1.82-3,1.82a16.46,16.46,0,0,1-8.06-2.3v5.28a17.49,17.49,0,0,0,8,1.86C242.6,70.5,245.23,67.81,245.23,63.74Z"/></g></g></svg>