<svg width="251" height="224" viewBox="0 0 251 224" fill="none" xmlns="http://www.w3.org/2000/svg">
<path d="M25.8659 91.4414C27.5987 84.3369 29.1095 76.7687 33.3459 70.6496C35.986 66.836 38.7515 63.5146 42.4106 60.634C44.9197 58.6588 47.7096 57.1795 50.3977 55.4995C51.5987 54.7488 53.0304 54.6882 53.8207 53.5027" stroke="white" stroke-linecap="round"/>
<path d="M22.7281 97.4316C22.3767 99.468 19.6797 107.855 22.9024 109.206C24.3221 109.802 26.3487 109.603 27.8627 109.698" stroke="white" stroke-linecap="round"/>
<path d="M29.4817 112.708C30.7174 113.701 32.6016 115.446 34.3497 115.737C34.8637 115.823 35.5196 115.759 36.0118 115.678C37.1524 115.491 38.2205 114.988 39.3612 114.767C40.526 114.541 41.6737 114.374 42.8456 114.227" stroke="white" stroke-linecap="round"/>
<path d="M47.8571 117.72C54.0251 115.775 60.3935 114.067 66.0215 110.802C67.925 109.697 69.9005 108.847 71.5476 107.393" stroke="white" stroke-linecap="round"/>
<path d="M56.2776 52.9131C55.7659 44.6243 55.1032 36.1426 58.0022 28.2188C59.1566 25.0634 62.0077 23.2045 64.5335 21.2104" stroke="white" stroke-linecap="round"/>
<path d="M65.1939 19.8895C64.8949 18.4059 64.8225 14.8116 63.2309 13.8168C62.9805 13.6604 63.3258 14.4039 63.4327 14.6791C64.1396 16.4995 64.6404 18.3517 65.1939 20.2197" stroke="white" stroke-linecap="round"/>
<path d="M65.5242 20.2199L68.4963 12.2942" stroke="white" stroke-linecap="round"/>
<path d="M66.1846 19.5594L65.5242 10.3127" stroke="white" stroke-linecap="round"/>
<path d="M66.1847 19.8894C66.1847 25.7355 66.1027 31.5574 65.8544 37.3919" stroke="white" stroke-linecap="round"/>
<path d="M63.5428 55.2247C64.3856 44.5048 64.5017 31.4984 72.8444 23.3753C74.8963 21.3774 77.3623 18.3244 80.0546 17.2476" stroke="white" stroke-linecap="round"/>
<path d="M81.0453 18.2383C81.725 30.9434 83.3035 43.8978 82.6231 56.6558C82.3722 61.3594 82.3662 66.0333 82.3662 70.7458" stroke="white" stroke-linecap="round"/>
<path d="M81.0453 17.2476L78.7336 11.6335" stroke="white" stroke-linecap="round"/>
<path d="M81.3755 18.2383C81.7544 13.9124 82.4223 9.65703 83.0267 5.35913" stroke="white" stroke-linecap="round"/>
<path d="M81.7057 17.2476C83.0758 15.3006 84.5067 13.4767 85.9988 11.6335" stroke="white" stroke-linecap="round"/>
<path d="M83.2408 64.7356C85.672 65.736 87.7748 66.7698 89.9183 68.2364C90.9284 68.9275 91.6638 69.8498 92.5763 70.6536C94.7314 72.5522 96.3512 74.6774 98.1609 76.8958C99.5781 78.633 100.903 80.6131 102.467 82.2026C103.405 83.1548 104.467 83.9614 105.413 84.907" stroke="white" stroke-linecap="round"/>
<path d="M108.413 86.2407C113.872 89.129 119.163 91.7589 125.102 93.372C127.792 94.1026 130.432 95.0678 133.132 95.7429C136.174 96.5033 139.265 96.9648 142.31 97.7341C146.36 98.7572 149.772 100.661 153.257 102.911" stroke="white" stroke-linecap="round"/>
<path d="M121.083 93.5757C129.188 97.0818 137.454 99.9337 145.755 102.911" stroke="white" stroke-linecap="round"/>
<path d="M153.982 103.081C161.718 106.473 169.507 109.829 177.017 113.707C179.627 115.054 181.899 116.67 184.049 118.661C186.636 121.058 188.955 123.597 190.768 126.649C193.777 131.714 194.846 137.222 195.676 142.955" stroke="white" stroke-linecap="round"/>
<path d="M197.255 146.321C197.592 154.868 198.006 163.415 197.837 171.972C197.767 175.559 197.648 179.305 196.873 182.832C196.167 186.045 194.789 189.512 193.035 192.31C188.472 199.59 181.715 204.623 174.424 208.883C160.793 216.847 143.865 218.286 128.636 215.013C118.536 212.843 108.068 209.087 101.821 200.314C99.3977 196.912 97.9518 192.752 96.327 188.926C94.6647 185.012 93.6415 180.545 93.8529 176.265C94.0829 171.607 96.534 166.856 98.9103 162.948C100.463 160.396 102.368 157.767 104.659 155.817C109.948 151.316 117.087 149.225 123.251 146.321" stroke="white" stroke-linecap="round"/>
<path d="M38.9684 99.5493C40.9789 99.9758 43.6592 100.165 45.0974 101.87C45.6682 102.547 46.1128 103.05 46.7874 103.628C48.0373 104.699 47.8915 107.141 47.8915 108.675" stroke="white" stroke-linecap="round"/>
<path d="M38.7656 106.039C52.8449 103.435 66.8897 100.641 80.9479 97.9268" stroke="white" stroke-linecap="round"/>
<path d="M38.9684 108.472C50.1853 107.474 61.4112 106.574 72.6331 105.633" stroke="white" stroke-linecap="round"/>
<path d="M38.36 110.298C46.408 110.158 54.4497 109.776 62.4931 109.486" stroke="white" stroke-linecap="round"/>
<path d="M53.5699 118.004C59.1251 115.01 64.5467 111.85 69.9967 108.675" stroke="white" stroke-linecap="round"/>
<path d="M43.2271 113.948C46.2211 116.174 48.7294 117.641 52.3531 118.41" stroke="white" stroke-linecap="round"/>
<path d="M48.9055 118.004C52.3204 120.324 56.3404 123.247 60.7581 122.173C63.4514 121.517 66.023 119.578 68.3743 118.207" stroke="white" stroke-linecap="round"/>
<path d="M24.7929 110.487C26.1845 110.388 27.5705 110.324 28.9635 110.267" stroke="white" stroke-linecap="round"/>
<path d="M25.1588 110.78C26.7921 110.865 28.4262 110.885 30.061 110.926" stroke="white" stroke-linecap="round"/>
<path d="M25.5246 111.511C26.7927 111.434 28.0609 111.361 29.3293 111.292" stroke="white" stroke-linecap="round"/>
<path d="M27.2806 111.731L29.7683 111.584" stroke="white" stroke-linecap="round"/>
<path d="M40.3383 92.6751C40.495 89.8192 40.5786 86.7972 42.641 84.5887C43.3313 83.8495 44.3014 83.2137 45.1473 82.6715C46.5694 81.7599 48.333 80.9218 50.0098 80.6472C50.9141 80.4991 53.3742 79.6732 54.0905 80.6044C54.8259 81.5604 54.8424 83.0356 54.942 84.171C55.082 85.7668 54.2562 87.1696 53.6192 88.5837C52.8984 90.1841 51.1908 91.5169 49.6564 92.2842C47.9044 93.1601 45.644 93.9992 43.6585 93.5212C42.2621 93.1851 40.8823 92.684 39.4707 92.4823" stroke="white" stroke-linecap="round"/>
<path d="M44.194 87.6624C44.6398 87.8711 45.0651 88.1361 45.4793 87.7053C45.6444 87.5335 45.9301 86.9925 45.5328 86.9074C45.1442 86.8241 44.7837 87.034 44.8152 87.4697C44.8602 88.0907 45.7384 88.2725 46.0898 87.8231C46.456 87.3546 46.6266 85.8917 47.2786 85.8738C47.6885 85.8625 49.1415 86.1139 47.9748 85.8095C47.907 85.7918 46.4337 85.1309 46.7967 84.9634C46.9578 84.8891 46.6253 84.692 46.6253 84.5725C46.6253 84.18 47.641 84.4454 47.857 84.4814" stroke="white" stroke-linecap="round"/>
<path d="M47.4714 84.4814L48.5318 85.1562" stroke="white" stroke-linecap="round"/>
<path d="M45.9291 85.349L47.9534 85.0598" stroke="white" stroke-linecap="round"/>
<path d="M45.5435 86.5059C45.538 86.9669 45.4977 87.4006 45.4471 87.8554" stroke="white" stroke-linecap="round"/>
<path d="M37.35 85.2526C39.0482 82.1618 40.6112 79.263 43.7549 77.4768C44.6304 76.9794 45.6488 76.532 46.6146 76.2344C47.6239 75.9234 48.743 75.7333 49.7849 75.5596C50.8789 75.3773 51.8096 75.5666 52.8695 75.806" stroke="white" stroke-linecap="round"/>
<path d="M47.7606 96.0487C49.7509 95.1361 51.7566 94.2481 53.6835 93.2051C54.3613 92.8382 55.0794 92.4401 55.665 91.9252C56.7429 90.9774 57.4215 89.532 58.1712 88.3372" stroke="white" stroke-linecap="round"/>
<path d="M52.6767 71.5647C55.0192 71.783 58.6915 72.0821 61.1166 72.4537C71.7327 74.0803 57.9885 72.0205 64.6296 73.3962" stroke="white" stroke-linecap="round"/>
<path d="M71.8105 53.2004C71.9765 47.641 72.3979 42.09 72.9445 36.5552C73.4947 30.9843 73.0629 39.7434 73.0255 40.2001C72.7074 44.0814 72.0818 47.9311 71.8915 51.8234C71.8061 53.5698 71.8105 58.8165 71.8105 57.0681C71.8105 50.5803 72.175 31.1204 72.175 37.6082C72.175 40.3755 72.1894 43.1433 72.1548 45.9105C72.1281 48.0453 72.0973 49.4075 72.013 51.4589C72.0041 51.6752 71.9681 52.3233 71.9725 52.1069C71.9932 51.0961 72.1564 47.8719 72.175 47.3685" stroke="white" stroke-linecap="round"/>
<path d="M17.1444 131.443C15.6319 129.48 13.2468 126.628 14.012 123.854C14.3894 122.486 16.4676 121.342 17.6297 120.634C19.1507 119.706 20.5775 118.832 22.3504 118.461C23.0125 118.322 23.4087 118.126 24.0049 117.832C24.986 117.349 26.4137 117.682 27.4682 117.744" stroke="white" stroke-linecap="round"/>
<path d="M27.0711 117.148L31.2403 118.538" stroke="white" stroke-linecap="round"/>
<path d="M18.3356 133.23C19.8621 130.221 21.3069 127.156 23.299 124.417C23.7987 123.73 24.4806 122.841 25.2622 122.399C26.4612 121.72 27.7644 121.087 28.9902 120.435C31.0308 119.35 33.5449 119.282 35.8065 119.332C39.2001 119.408 42.7534 120.776 45.9428 121.825C48.974 122.822 51.4996 124.69 54.1709 126.38C56.5115 127.861 59.4405 128.857 62.1453 129.413C64.4953 129.897 66.3903 130.463 68.6638 129.358C71.3372 128.06 72.2897 125.996 72.8881 123.149C73.3383 121.006 73.6358 118.831 73.9249 116.663C74.2858 113.956 75.3276 111.928 76.7044 109.604" stroke="white" stroke-linecap="round"/>
<path d="M81.4692 111.788C79.5946 115.772 78.3598 119.951 76.9029 124.097" stroke="white" stroke-linecap="round"/>
<path d="M85.0428 131.443L91.9914 125.487" stroke="white" stroke-linecap="round"/>
<path d="M82.0648 132.436C84.0466 130.712 83.7998 133.011 84.6457 134.421" stroke="white" stroke-linecap="round"/>
<path d="M89.0134 126.281C88.8055 126.821 87.9072 128.959 87.8222 129.766C87.6858 131.062 88.3731 129.485 88.6164 130.053" stroke="white" stroke-linecap="round"/>
<path d="M92.587 127.075C92.1786 127.656 91.4923 128.104 91.3296 128.796C91.2938 128.948 91.5487 128.568 91.6826 128.487C92.9729 127.708 92.3089 128.276 93.8554 127.649C95.0658 127.158 95.2309 126.998 95.9952 125.906C97.8799 123.213 96.4331 125.68 96.9547 125.288" stroke="white" stroke-linecap="round"/>
<path d="M18.281 133.067C18.2283 133.432 17.1756 138.64 19.0298 137.14C19.7677 136.543 20.3694 135.798 20.9261 135.036C21.4819 134.274 21.7825 133.392 22.2746 132.595C22.7562 131.815 23.1938 131.084 23.585 130.259" stroke="white" stroke-linecap="round"/>
<path d="M19.7786 136.811C20.3806 137.655 21.0088 138.899 22.2261 138.904C22.8612 138.907 23.4163 138.439 23.8831 138.072C24.7339 137.403 25.4596 136.595 26.2023 135.812C27.0566 134.912 27.8964 133.993 28.726 133.07C29.1788 132.566 29.5601 132.004 30.0121 131.507" stroke="white" stroke-linecap="round"/>
<path d="M24.1466 137.871C25.2271 138.705 26.2641 139.693 27.7276 139.65C28.5069 139.627 29.2951 139.171 29.9289 138.749C30.5217 138.353 31.0643 137.875 31.5998 137.407C32.1885 136.892 32.7016 136.333 33.1321 135.688" stroke="white" stroke-linecap="round"/>
<path d="M32.9984 139.481C35.0526 138.847 38.3758 137.17 40.573 138.19C41.279 138.518 41.8733 139.071 42.3876 139.644C43.9439 141.377 44.9682 143.511 46.2697 145.422C49.9274 150.792 55.6775 154.244 61.0939 157.556C65.1362 160.027 69.6089 162.96 74.4375 163.37C79.1028 163.765 82.795 162.068 87.0047 160.264C89.5954 159.154 92.22 158.097 94.6786 156.707C97.1286 155.322 99.3546 153.571 101.558 151.832C103.7 150.141 105.761 148.353 107.878 146.631C108.948 145.761 110.061 144.936 111.11 144.04C112.455 142.892 113.522 141.565 114.739 140.294" stroke="white" stroke-linecap="round"/>
<path d="M38.0971 133.632C42.9073 136.037 47.3923 138.905 51.8686 141.85" stroke="white" stroke-linecap="round"/>
<path d="M60.9755 147.847C63.9552 149.27 67.5078 151.065 70.6501 152.216C80.4904 155.819 68.6209 151.238 76.746 153.623" stroke="white" stroke-linecap="round"/>
<path d="M60.5312 150.735C63.6441 152.462 66.4149 154.129 69.7122 155.474C78.2872 158.971 69.3 154.917 77.4124 157.621" stroke="white" stroke-linecap="round"/>
<path d="M111.175 145.182L127.612 142.072" stroke="white" stroke-linecap="round"/>
<path d="M100.756 154.95C93.9769 167.086 85.6853 182.748 94.898 195.986C97.5786 199.838 101.509 202.933 105.349 205.557C108.435 207.665 111.759 209.303 115.144 210.87C117.403 211.916 119.857 213.034 122.17 213.943C126.128 215.499 130.11 216.303 134.174 217.464" stroke="white" stroke-linecap="round"/>
<path d="M85.1992 161.288C85.2272 173.717 85.6042 186.559 93.2336 196.962C96.2127 201.025 100.277 204.371 104.437 207.157C109.475 210.533 114.905 213.082 120.586 215.176C125.108 216.843 129.555 217.713 134.174 218.905" stroke="white" stroke-linecap="round"/>
<path d="M133.598 218.041C148.841 218.432 164.962 218.263 177.963 209.462C181.091 207.345 184.07 205.331 186.253 202.164C191.288 194.859 194.124 185.807 197.553 177.708" stroke="white" stroke-linecap="round"/>
<path d="M163.847 114.042C174.332 124.466 182.349 137.449 191.215 149.188" stroke="white" stroke-linecap="round"/>
<path d="M172.201 116.922C181.575 123.997 188.309 134.584 195.824 143.426" stroke="white" stroke-linecap="round"/>
<path d="M194.672 161.864C193.244 171.32 190.324 180.759 184.989 188.784C180.808 195.072 175.444 198.687 169.032 202.196" stroke="white" stroke-linecap="round"/>
<path d="M171.049 195.282C175.418 189.581 179.207 183.132 181.612 176.348C182.751 173.136 183.212 170.942 183.5 167.593C183.834 163.722 183.158 160.211 182.86 156.39" stroke="white" stroke-linecap="round"/>
<path d="M8.34573 99.4873C12.166 100.433 15.9569 101.431 19.7432 102.487" stroke="white" stroke-linecap="round"/>
<path d="M10.5452 103.486L18.9434 103.686" stroke="white" stroke-linecap="round"/>
<path d="M19.3433 106.885L0.747437 114.084" stroke="white" stroke-linecap="round"/>
<path d="M45.7173 86.4973C45.7202 86.4648 45.7641 86.0221 45.7611 85.9365C45.7595 85.8903 45.6939 86.0057 45.6822 86.0504C45.5274 86.6451 46.2783 85.6997 46.3657 85.6167C46.4167 85.5682 46.3735 85.7573 46.3832 85.8269C46.401 85.9543 46.4334 86.1053 46.6154 86.046C46.9733 85.9293 47.2899 85.0418 46.76 85.4195C46.5801 85.5478 46.3374 86.0407 46.6811 85.6298C46.7215 85.5816 47.2452 84.7946 47.0535 84.8105C46.8467 84.8278 46.1975 84.6087 46.2868 84.6046C46.5328 84.5933 46.8726 84.6141 47.093 84.4819C47.2874 84.3653 46.6375 84.4841 46.4139 84.5214C46.267 84.5459 46.7118 84.5258 46.8608 84.5258C46.9244 84.5258 46.4205 84.5258 46.3131 84.5258C45.7866 84.5258 45.1889 84.6125 44.6921 84.4469" stroke="white" stroke-linecap="round"/>
<path d="M47.9254 84.447C48.1212 84.8819 48.5899 85.6056 48.5256 86.1294C48.4877 86.4384 47.857 86.3397 47.6669 86.3397C47.19 86.3397 46.3304 86.1337 46.0065 86.5762C45.8799 86.7491 45.0336 88.0011 45.2836 88.1885C45.5482 88.387 46.0486 88.409 46.3482 88.4689" stroke="white" stroke-linecap="round"/>
<path d="M173.982 107.327C163.004 97.0575 152.494 85.038 149.041 69.9235C147.067 61.2856 151.335 51.7177 153.499 43.5269" stroke="white" stroke-linecap="round"/>
<path d="M158.872 65.6888C158.032 58.1666 158.63 50.7473 159.879 43.2657C160.568 39.137 161.303 34.9933 162.528 30.9908C172.055 -0.130262 161.172 38.9956 171.632 13.9775" stroke="white" stroke-linecap="round"/>
<path d="M171.296 64.3457C173.503 51.3934 175.366 36.8857 179.69 24.3124C191.801 -10.901 179.543 30.1184 193.122 0.881836" stroke="white" stroke-linecap="round"/>
<path d="M181.369 49.571C191.222 38.5306 200.713 26.8066 213.157 18.5106C218.551 14.9149 223.788 13.6689 229.723 11.627" stroke="white" stroke-linecap="round"/>
<path d="M181.369 42.5194C186.229 34.2747 189.447 27.8138 195.92 20.6932C211.051 4.04973 198.588 20.4284 214.948 5.58276" stroke="white" stroke-linecap="round"/>
<path d="M198.83 92.2159C199.871 83.7399 201.735 75.5176 204.166 67.3116C208.094 54.0498 212.898 40.8624 220.619 29.2743C223.941 24.289 228.237 19.9525 233.416 16.9435C237.129 14.7864 240.553 14.2847 244.497 12.97" stroke="white" stroke-linecap="round"/>
<path d="M224.35 45.5415C217.536 65.7682 209.075 86.6969 214.836 108.147C215.985 112.425 217.179 116.546 217.317 121.019C217.484 126.421 215.866 130.986 214.948 136.204" stroke="white" stroke-linecap="round"/>
<path d="M220.992 83.1497C222.24 99.591 224.395 116.397 223.903 132.921C223.813 135.924 223.44 139.081 222.336 141.913C221.126 145.014 220.194 145.344 218.642 148.292" stroke="white" stroke-linecap="round"/>
<path d="M234.424 99.2676C234.502 108.184 234.187 117.083 233.286 125.963C232.8 130.749 232.324 135.55 231.402 140.271C222.912 183.722 233.476 126.614 224.686 158.03" stroke="white" stroke-linecap="round"/>
<path d="M249.634 122.598C245.258 133.13 242.305 141.939 235.713 151.338C220.08 173.626 232.993 151.238 215.618 171.096" stroke="white" stroke-linecap="round"/>
<path d="M209.555 183.557C214.805 181.066 219.825 178.406 224.617 175.063C227.513 173.043 230.381 170.968 233.056 168.664C250.797 153.38 232.163 168.128 248.96 151.899" stroke="white" stroke-linecap="round"/>
<path d="M200.125 194.672C207.068 192.817 213.49 189.639 219.846 186.308C223.326 184.484 226.795 182.629 230.137 180.564C259.4 162.48 221.541 185.442 242.561 170.759" stroke="white" stroke-linecap="round"/>
<path d="M183.622 205.786C194.293 204.54 204.899 203.704 214.738 198.975C221.693 195.632 226.076 190.453 231.784 185.578" stroke="white" stroke-linecap="round"/>
<path d="M162.17 21.7961C153.909 31.2238 151.266 46.169 154.715 58.1813C156.745 65.2523 162.511 69.879 168.27 73.8055" stroke="white" stroke-linecap="round"/>
<path d="M146.118 47.8008C146.07 60.5647 145.233 77.2004 154.876 87.2537C159.314 91.881 164.673 95.6913 169.554 99.8102" stroke="white" stroke-linecap="round"/>
<path d="M145.797 86.9685C154.377 93.9564 162.791 100.674 172.658 105.768C176.701 107.855 180.861 109.726 184.965 111.689" stroke="white" stroke-linecap="round"/>
<path d="M146.439 38.8115C149.417 48.5803 151.759 59.3191 158.407 67.4381C161.792 71.5722 164.856 71.7801 169.233 73.8055" stroke="white" stroke-linecap="round"/>
<path d="M145.797 64.1743L154.465 78.3003" stroke="white" stroke-linecap="round"/>
<path d="M155.107 77.6582C158.338 79.0614 161.325 80.7985 164.418 82.4739" stroke="white" stroke-linecap="round"/>
<path d="M180.9 11.6338C178.125 15.1874 175.221 18.6308 172.661 22.3492C171.495 24.0432 170.452 25.8136 169.337 27.5402C168.659 28.5892 167.953 29.5967 167.499 30.7691C166.269 33.9441 165.521 37.4104 165.203 40.7987C164.582 47.4144 165.824 53.9438 168.041 60.1531" stroke="white" stroke-linecap="round"/>
<path d="M192.387 51.7524C199.05 44.7188 205.728 37.7049 212.522 30.7978C216.661 26.5904 216.586 26.7047 220.618 22.5494C223.099 19.9938 225.485 17.2801 228.133 14.8914C232.231 11.1964 237.69 9.48584 242.792 7.69067" stroke="white" stroke-linecap="round"/>
<path d="M195.987 69.2398C200.237 62.2879 204.399 55.2519 209.398 48.7996C211.446 46.1571 213.708 43.6905 215.932 41.1988C218.93 37.8402 222.497 35.5377 226.333 33.2361" stroke="white" stroke-linecap="round"/>
<path d="M197.359 85.0127C197.828 82.6898 197.799 82.5592 198.768 79.7551C201.153 72.8598 204.084 66.1733 207.531 59.7435C210.211 54.7457 213.309 50.0032 217.132 45.8087C219.399 43.3222 221.939 41.0263 224.6 38.9699C227.115 37.0266 229.851 35.6774 232.677 34.2646" stroke="white" stroke-linecap="round"/>
<path d="M205.537 121.104C206.539 108.526 207.415 95.9771 207.712 83.3607C207.831 78.2852 208.036 73.7421 209.584 68.8801C212.91 58.4353 219.098 50.0007 225.606 41.323" stroke="white" stroke-linecap="round"/>
<path d="M209.749 149.101C212.732 144.174 215.981 139.398 218.696 134.318C224.261 123.91 226.732 117.891 228.896 106.568C230.35 98.9627 229.599 92.6435 229.323 85.1777" stroke="white" stroke-linecap="round"/>
<path d="M76.3684 217.305C78.8336 214.862 81.2452 212.023 84.2504 210.204C85.0737 209.706 85.9043 209.237 86.8521 209.033C88.9055 208.59 91.0964 208.767 93.1786 208.767C97.7058 208.767 102.225 208.893 106.752 208.893" stroke="white" stroke-linecap="round"/>
<path d="M76.494 217.807H79.5072" stroke="white" stroke-linecap="round"/>
<path d="M78.8795 220.57C82.0766 217.321 85.3852 214.11 89.705 212.437C92.0382 211.532 94.8485 211.1 97.3498 211.035C102.131 210.909 107.224 211.605 111.9 210.525" stroke="white" stroke-linecap="round"/>
<path d="M80.5117 219.691C82.9843 219.834 84.3782 220.044 86.8312 219.691C88.862 219.398 90.678 218.628 92.502 217.752C92.8707 217.575 93.93 217.32 94.0575 216.81C94.0628 216.789 94.1013 216.454 94.0435 216.454C93.8693 216.454 93.3236 217.026 93.2902 217.054C92.5961 217.637 91.8646 218.151 91.114 218.659C90.2224 219.261 88.9743 219.898 88.4843 220.918C88.0158 221.894 89.5402 222.231 90.1863 222.362C93.2382 222.984 96.6267 222.158 99.7214 222.048C101.573 221.983 103.43 221.975 105.281 221.874C107.27 221.766 109.163 221.388 111.112 221.016C115.704 220.14 120.29 219.135 124.986 219.077C129.219 219.024 133.406 219.778 137.639 219.684C140.17 219.628 142.589 219.426 145.046 218.812" stroke="white" stroke-linecap="round"/>
<path d="M144.148 219.939C149.564 219.069 154.926 218.168 160.23 216.738C163.216 215.933 165.974 214.841 168.867 213.81" stroke="white" stroke-linecap="round"/>
<path d="M137.508 213.299L165.088 211.767" stroke="white" stroke-linecap="round"/>
<path d="M146.257 180.565C153.098 174.656 157.667 167.717 163.194 160.639" stroke="white" stroke-linecap="round"/>
<path d="M149.578 188.535C155.032 182.605 159.418 176.077 164.191 169.605" stroke="white" stroke-linecap="round"/>
</svg>
