<svg width="242" height="224" viewBox="0 0 242 224" fill="none" xmlns="http://www.w3.org/2000/svg">
<path d="M152.004 110.555C144.83 101.17 138.23 93.6849 137.856 81.5231C137.686 75.9948 137.147 69.7142 139.05 64.429C144.817 48.4101 154.983 35.6927 169.403 26.7608C183.894 17.7849 202.216 17.1005 218.298 12.7146" stroke="white" stroke-linecap="round"/>
<path d="M222.413 34.2026C212.763 48.0294 198.336 63.5767 202.398 82.0816C204.047 89.5958 211.608 95.9414 216.672 101.259C222.875 107.772 228.651 114.221 233.792 121.629C242.566 134.275 242.974 154.703 236.942 168.518C232.827 177.941 226.004 187.789 218.044 194.35C214.689 197.114 210.9 199.638 206.766 201.055C202.748 202.433 198.994 203.192 194.752 203.748C192.502 204.042 190.239 204.293 187.97 204.332C170.918 204.62 192.131 203.862 178.979 202.909" stroke="white" stroke-linecap="round"/>
<path d="M84.8695 79.5571C91.2789 84.2729 97.8523 88.9415 103.217 94.8871C105.265 97.1571 107.748 98.9635 109.663 101.348C111.692 103.877 114.102 105.003 116.779 106.712C123.553 111.036 131.362 111.321 139.149 112.411C143.189 112.977 146.989 113.844 150.837 115.215C154.754 116.611 158.905 117.528 162.708 119.223C165.355 120.403 167.089 122.613 169.565 124.023C172.279 125.568 174.315 127.577 176.712 129.585C183.801 135.522 187.203 143.767 189.909 152.382C191.231 156.593 192.032 160.793 191.844 165.228C191.672 169.288 190.783 173.274 189.818 177.206C188.64 181.999 187.338 186.907 185.231 191.393C183.298 195.508 180.277 199.329 177.124 202.593C173.643 206.197 169.409 208.278 164.963 210.396" stroke="white" stroke-linecap="round"/>
<path d="M87.1483 167.665C86.0132 170.066 84.6744 172.357 84.475 175.038C84.3804 176.31 84.2443 177.577 84.2379 178.854C84.2219 182.038 84.1179 185.266 84.9924 188.361C86.0419 192.076 87.934 195.352 90.4684 198.235C96.1804 204.733 103.248 209.969 110.745 214.221C114.301 216.238 118.425 217.089 122.419 217.638C125.916 218.119 129.389 218.061 132.897 218.393C134.56 218.55 136.185 218.666 137.855 218.738C142.4 218.934 146.48 218.485 150.931 217.412C153.858 216.706 157.294 216.124 159.964 214.598C161.676 213.62 163.292 212.386 164.955 211.322" stroke="white" stroke-linecap="round"/>
<path d="M80.0271 218.969C78.9897 218.959 77.9626 218.835 76.9261 218.835C76.6566 218.835 75.5576 218.855 75.6225 218.375C75.6782 217.963 76.1611 217.58 76.4358 217.316C77.2081 216.575 77.9838 215.838 78.7718 215.114C79.6539 214.303 80.5468 213.474 81.5646 212.834C82.4924 212.249 83.5763 211.875 84.6099 211.526C86.8411 210.774 89.0421 210.999 91.3393 210.932C93.5089 210.869 95.6508 210.645 97.8273 210.683C98.9337 210.702 100.034 210.784 101.136 210.865C102.529 210.968 103.907 210.88 105.296 210.88" stroke="white" stroke-linecap="round"/>
<path d="M78.2891 221.241C79.8809 219.565 81.7629 218.185 83.5999 216.792C84.7981 215.883 86.0871 215.023 87.4399 214.363C89.2237 213.493 91.0841 212.874 93.0552 212.618C94.7258 212.401 96.3957 212.417 98.0762 212.417C99.9933 212.417 101.939 212.412 103.847 212.618C105.284 212.773 106.655 213.03 108.103 212.885" stroke="white" stroke-linecap="round"/>
<path d="M78.1554 221.91C78.7187 221.339 79.3774 220.95 80.1683 220.766C80.8607 220.605 81.5169 220.764 82.196 220.892C83.4369 221.126 84.5435 220.892 85.7353 220.498C86.9785 220.087 88.1799 219.469 89.3673 218.92C90.1069 218.578 90.8181 218.171 91.5882 217.899C91.8254 217.815 92.61 217.491 92.8917 217.646C93.1339 217.779 92.386 217.87 92.1267 217.966C91.5406 218.181 90.9545 218.398 90.3886 218.664C89.7586 218.96 89.1308 219.294 88.5763 219.718C87.8781 220.252 87.2887 220.908 86.5746 221.427C85.9924 221.849 85.3587 222.197 84.8291 222.689C84.7594 222.754 84.515 222.981 84.4688 223.124C84.4249 223.261 84.7547 223.087 84.8922 223.046C86.2285 222.647 87.7465 222.494 89.1371 222.619C91.6387 222.844 94.0911 223.363 96.6055 223.462C98.1927 223.525 99.7482 223.218 101.322 223.046C103.816 222.773 106.288 222.466 108.757 222.006C111.009 221.587 113.243 221.034 115.512 220.71C117.771 220.387 119.994 219.751 122.26 219.503C123.171 219.403 124.06 219.2 124.975 219.165C125.891 219.131 126.638 218.833 127.489 218.5" stroke="white" stroke-linecap="round"/>
<path d="M35.7657 148.486C37.9353 147.68 40.7645 146.175 43.2001 146.696C44.1729 146.904 45.0683 147.638 45.808 148.279C46.7442 149.09 47.3829 150.111 48.0006 151.172C48.7754 152.503 49.7224 153.628 50.7642 154.753C51.9468 156.03 53.2594 157.114 54.4749 158.347C55.6608 159.55 57.0484 160.33 58.3802 161.344C59.8767 162.483 61.3078 163.71 62.8175 164.834C64.3902 166.005 66.1293 166.684 67.9554 167.351C71.4658 168.634 75.3386 169.41 79.1004 168.96C81.5911 168.663 83.7994 167.594 86.1325 166.754C88.7142 165.825 91.2015 164.557 93.5929 163.212C95.2663 162.272 96.8569 161.14 98.4972 160.137C100.278 159.049 102.037 157.773 103.609 156.401C105.309 154.917 106.868 153.21 108.436 151.587C110.482 149.47 112.47 147.367 114.352 145.1" stroke="white" stroke-linecap="round"/>
<path d="M75.2287 122.376C73.9448 125.445 73.1393 128.557 72.8841 131.876C72.738 133.775 72.2499 135.649 71.1068 137.208C70.4014 138.169 69.4791 138.802 68.2817 138.933C66.0868 139.173 63.9571 139.035 61.8094 138.51C59.8186 138.024 57.9763 137.092 56.0549 136.397C53.3517 135.42 50.9471 134.023 48.4595 132.605C46.339 131.397 44.1406 130.292 41.7209 129.844C38.8246 129.307 35.6957 129.185 32.8519 130.064C28.6299 131.368 25.3837 135.684 23.8555 139.627C23.3666 140.889 22.8526 142.153 22.4082 143.431C22.052 144.455 21.8624 145.502 21.4588 146.511C21.223 147.1 20.9172 147.763 20.7756 148.381C20.7481 148.501 21.0349 148.351 21.1288 148.271C21.6367 147.838 22.084 147.317 22.5298 146.823C24.632 144.494 26.2394 141.745 27.0858 138.736" stroke="white" stroke-linecap="round"/>
<path d="M27.1901 140.299C26.5133 141.958 25.9704 143.62 25.4302 145.324C25.2011 146.047 24.7824 146.65 24.3418 147.258C24.3176 147.291 23.8945 147.782 24.0871 147.802C24.5807 147.853 25.1096 147.752 25.5807 147.617C27.2318 147.142 28.5352 145.965 29.7836 144.838C31.0042 143.736 32.1161 142.397 32.6088 140.82" stroke="white" stroke-linecap="round"/>
<path d="M30.1078 145.093L28.8574 146.447" stroke="white" stroke-linecap="round"/>
<path d="M29.5867 147.489C30.8068 147.68 32.1558 148.066 33.2918 147.408C33.7129 147.164 34.0977 146.892 34.4844 146.598C35.1457 146.095 35.5595 145.404 36.2096 144.907C36.4969 144.687 36.5883 144.557 36.5685 145.092C36.5515 145.551 36.3361 145.956 36.1517 146.366C35.4695 147.884 34.4349 149.083 33.4423 150.407" stroke="white" stroke-linecap="round"/>
<path d="M19.9535 133.495C20.4046 136.911 21.3729 140.174 22.0443 143.531" stroke="white" stroke-linecap="round"/>
<path d="M21.9049 131.264C24.0005 129.987 26.2011 128.337 28.7584 128.337C31.2785 128.337 33.7522 128.523 36.2624 128.755" stroke="white" stroke-linecap="round"/>
<path d="M52.4199 72.4065C46.9979 76.8971 40.7097 81.3583 36.5885 87.2195C34.6982 89.9079 33.2853 93.052 32.2371 96.1603C30.9797 99.8891 31.0098 104.05 29.3142 107.654C28.6139 109.142 28.383 111.022 27.4229 112.349C26.6813 113.374 26.0597 114.668 25.8093 115.92C25.6557 116.688 25.6285 117.862 25.9151 118.591C26.5531 120.215 28.6278 119.965 30.0019 120.377C30.9994 120.676 31.2586 121.783 31.8933 122.533C32.5384 123.295 33.4417 124.001 34.2078 124.649C35.6111 125.836 39.6896 124.825 41.4688 125.257C43.6654 125.792 45.579 126.552 47.4205 127.876C49.6057 129.447 52.0363 131.105 54.6022 132.003C57.2559 132.931 60.918 132.483 63.5562 131.685C67.122 130.606 69.505 127.352 71.7033 124.543" stroke="white" stroke-linecap="round"/>
<path d="M41.1238 111.96C44.2927 112.618 48.5812 113.075 50.3637 116.25C51.032 117.44 51.3989 118.835 51.5029 120.188" stroke="white" stroke-linecap="round"/>
<path d="M40.9973 117.529C47.6821 115.13 54.3632 112.73 61.0311 110.286C63.325 109.445 65.6315 108.641 67.9293 107.811C72.2772 106.241 76.4808 104.379 80.7414 102.593" stroke="white" stroke-linecap="round"/>
<path d="M44.035 118.415C49.372 116.487 55.0543 115.362 60.5881 114.161C65.4175 113.112 70.3048 112.305 75.1722 111.453" stroke="white" stroke-linecap="round"/>
<path d="M43.5288 120.567C48.3002 119.963 53.0478 119.409 57.8598 119.308C61.3556 119.235 64.8423 119.265 68.3373 119.301" stroke="white" stroke-linecap="round"/>
<path d="M25.4287 113.732C23.471 112.796 21.5186 111.814 19.5008 111.01C17.4807 110.206 15.3607 109.661 13.2776 109.049" stroke="white" stroke-linecap="round"/>
<path d="M22.5175 114.998C18.9826 113.988 15.2946 113.418 11.6321 113.099" stroke="white" stroke-linecap="round"/>
<path d="M22.5175 116.77C18.7821 117.055 15.0282 117.853 11.379 118.675C9.63981 119.067 8.61947 119.321 6.97006 119.962C4.82836 120.794 3.00346 122.011 1 123.098" stroke="white" stroke-linecap="round"/>
<path d="M40.2379 98.7962C41.0639 97.1582 41.7866 95.0718 43.1421 93.7684C43.7355 93.1978 44.3791 92.667 44.9915 92.1159C46.18 91.0462 47.6687 90.1516 49.2106 89.6829C52.6152 88.6479 55.5868 89.7005 58.9708 90.3158" stroke="white" stroke-linecap="round"/>
<path d="M53.4016 86.0119C56.2787 86.0933 59.1126 86.699 61.9875 86.7643C64.2547 86.8158 66.2116 86.2558 68.3373 85.5056" stroke="white" stroke-linecap="round"/>
<path d="M42.6427 104.492C44.8716 100.417 47.2103 95.7679 52.0654 94.4438C53.3455 94.0946 54.6105 93.9477 55.9329 93.8882C56.8072 93.8489 57.6908 93.9032 58.5629 93.832C59.8574 93.7263 60.9373 93.1636 62.1351 92.7209" stroke="white" stroke-linecap="round"/>
<path d="M43.1491 104.745C45.3058 105.106 47.9846 105.887 50.0896 104.879C50.7088 104.582 51.1058 104.038 51.6858 103.69C52.905 102.959 54.1101 102.551 54.9978 101.377C56.958 98.7845 56.8629 95.2122 59.7303 93.2271" stroke="white" stroke-linecap="round"/>
<path d="M44.2882 102.34C45.8277 101.483 48.3197 100.488 48.7956 98.5499C48.8117 98.4847 48.9607 97.5721 48.7324 97.7764C47.7145 98.6871 44.983 101.692 45.6946 100.526C46.2876 99.5544 46.9743 98.6431 47.558 97.6639C47.6037 97.5872 47.6479 97.5097 47.6916 97.4319C47.7926 97.2525 47.4868 97.789 47.3822 97.9663C46.9544 98.6918 46.5197 99.4165 46.0321 100.104C45.6081 100.702 44.9415 101.443 45.8212 100.343C46.3052 99.738 46.7636 99.1156 47.1291 98.4304C47.2406 98.2212 47.477 97.5523 47.4244 97.7835C47.2246 98.6625 46.8482 99.5373 46.3485 100.287C45.6839 101.284 47.2809 99.5161 47.4174 99.3656C47.5136 99.2595 48.654 97.652 48.0432 98.6413C47.4795 99.5544 46.7033 100.591 45.7368 101.117C45.1402 101.441 45.9022 100.662 45.9337 100.631C46.7554 99.8251 47.6997 98.9293 48.1135 97.8256C48.261 97.4325 48.3493 97.0498 48.4651 96.6443" stroke="white" stroke-linecap="round"/>
<path d="M64.6669 72.242C64.6961 68.5241 64.9368 64.9525 65.4267 61.2787C65.6931 59.2806 65.9022 56.8749 66.6296 55.0004C67.1983 53.5347 68.1321 52.2309 68.9087 50.8746C69.7339 49.4337 70.2715 47.9276 70.9241 46.4112C71.7825 44.4167 73.7716 43.0772 75.0182 41.3042C76.4596 39.2542 78.6508 38.0192 79.3339 35.5429C79.9875 33.1737 78.234 31.0969 77.2024 29.1274" stroke="white" stroke-linecap="round"/>
<path d="M87.4588 28.9375C84.4093 31.0248 80.294 32.9823 79.6716 37.0624C79.1499 40.4821 79.9063 44.1587 80.3786 47.5403C81.0724 52.5092 82.0049 57.5729 82.1407 62.5977C82.2652 67.2056 82.5814 71.7754 82.5206 76.3994C82.4793 79.5358 81.4236 82.8549 80.8112 85.9171" stroke="white" stroke-linecap="round"/>
<path d="M73.5937 52.4893C73.1668 57.0075 72.2771 61.5028 71.9266 66.0166C71.7059 68.8577 72.0132 71.6972 72.2642 74.5214" stroke="white" stroke-linecap="round"/>
<path d="M54.7905 71.1022C55.4885 65.4096 55.3371 59.6387 56.4999 54.0083C56.934 51.9064 58.3941 50.5615 59.581 48.8379C60.7937 47.0769 61.7476 45.2421 63.1475 43.6253C64.5137 42.0476 64.667 40.6585 64.667 38.666C64.667 36.7703 64.4096 35.7699 63.1475 34.2554" stroke="white" stroke-linecap="round"/>
<path d="M68.2756 51.5396C67.2617 49.1611 66.3515 47.1152 66.1442 44.5754C66.0183 43.0332 65.9965 41.5106 65.9965 39.9643C65.9965 36.9655 68.0495 35.1072 69.4152 32.5464" stroke="white" stroke-linecap="round"/>
<path d="M65.5861 39.923C65.9265 37.7468 66.5243 35.6115 66.1513 33.4187C66.0411 32.7707 66.0296 32.098 65.8223 31.47C65.4957 30.4803 64.9399 29.5957 64.4472 28.686" stroke="white" stroke-linecap="round"/>
<path d="M80.0119 35.216C80.4877 33.244 81.0536 31.2514 81.2605 29.2263C81.4123 27.7402 81.292 26.2971 81.1508 24.8142" stroke="white" stroke-linecap="round"/>
<path d="M218.837 12.3578C220.888 11.3413 223.614 10.3497 224.56 8.06995C225.031 6.93293 225.107 5.68329 224.899 4.47834C224.699 3.31294 224.224 2.29999 223.855 1.19241C223.704 0.738082 224.754 1.22379 224.95 1.27732" stroke="white" stroke-linecap="round"/>
<path d="M222.505 34.06C225.15 29.5132 228.517 25.5885 232.049 21.7229C232.787 20.9142 233.512 20.0879 234.146 19.1927C234.858 18.1873 235.222 16.9945 235.526 15.8133C235.873 14.4608 236.056 13.063 235.865 11.6698C235.744 10.7812 235.444 9.88313 235.173 9.02919C234.63 7.31895 233.483 6.03221 232.078 4.9621C231.484 4.50915 230.883 4.06334 230.189 3.77339C229.43 3.45648 228.606 3.40101 227.846 3.11111C227.198 2.86406 226.696 2.41229 226.029 2.18986C225.874 2.13824 225.744 1.95518 225.629 1.84598C225.366 1.59465 225.041 1.43734 224.721 1.2771" stroke="white" stroke-linecap="round"/>
<path d="M107.694 212.104L105.86 210.499" stroke="white" stroke-linecap="round"/>
<path d="M101.734 207.29C96.8893 201.357 92.2948 194.451 91.7492 186.608C91.5357 183.538 91.6444 180.343 91.9785 177.286C92.6888 170.787 96.6831 166.192 100.791 161.303C106.002 155.102 111.601 149.452 119.091 146.123C121.307 145.139 123.693 144.266 126.096 143.882C128.757 143.456 131.411 143.944 134.055 144.251" stroke="white" stroke-linecap="round"/>
</svg>
