<svg width="242" height="224" viewBox="0 0 242 224" fill="none" xmlns="http://www.w3.org/2000/svg">
<path d="M152.004 110.555C144.83 101.17 138.23 93.6849 137.856 81.5231C137.686 75.9948 137.147 69.7142 139.05 64.429C144.817 48.4101 154.983 35.6927 169.403 26.7608C183.894 17.7849 202.216 17.1005 218.298 12.7146" stroke="white" stroke-width="5" stroke-linecap="round"/>
<path d="M222.413 34.2026C212.763 48.0294 198.336 63.5767 202.398 82.0816C204.047 89.5958 211.608 95.9414 216.672 101.259C222.875 107.772 228.651 114.221 233.792 121.629C242.566 134.275 242.974 154.703 236.942 168.518C232.827 177.941 226.004 187.789 218.044 194.35C214.689 197.114 210.9 199.638 206.766 201.055C202.748 202.433 198.994 203.192 194.752 203.748C192.502 204.042 190.239 204.293 187.97 204.332C170.918 204.62 192.131 203.862 178.979 202.909" stroke="white" stroke-width="5" stroke-linecap="round"/>
<path d="M84.8691 79.5571C91.2785 84.2729 97.8519 88.9415 103.217 94.8871C105.265 97.1571 107.748 98.9635 109.663 101.348C111.692 103.877 114.102 105.003 116.779 106.712C123.553 111.036 131.362 111.321 139.149 112.411C143.189 112.977 146.989 113.844 150.837 115.215C154.754 116.611 158.905 117.528 162.708 119.223C165.355 120.403 167.089 122.613 169.565 124.023C172.279 125.568 174.315 127.577 176.712 129.585C183.801 135.522 187.203 143.767 189.909 152.382C191.231 156.593 192.032 160.793 191.844 165.228C191.672 169.288 190.783 173.274 189.818 177.206C188.64 181.999 187.338 186.907 185.231 191.393C183.298 195.508 180.277 199.329 177.124 202.593C173.643 206.197 169.409 208.278 164.963 210.396" stroke="white" stroke-width="5" stroke-linecap="round"/>
<path d="M87.149 167.665C86.0139 170.066 84.6751 172.357 84.4757 175.038C84.3811 176.31 84.245 177.577 84.2386 178.854C84.2226 182.038 84.1186 185.266 84.9931 188.361C86.0426 192.076 87.9347 195.352 90.4691 198.235C96.1811 204.733 103.249 209.969 110.746 214.221C114.302 216.238 118.426 217.089 122.42 217.638C125.917 218.119 129.39 218.061 132.898 218.393C134.561 218.55 136.186 218.666 137.856 218.738C142.401 218.934 146.481 218.485 150.932 217.412C153.859 216.706 157.295 216.124 159.965 214.598C161.677 213.62 163.293 212.386 164.956 211.322" stroke="white" stroke-width="5" stroke-linecap="round"/>
<path d="M80.0265 218.969C78.9891 218.959 77.962 218.835 76.9255 218.835C76.656 218.835 75.557 218.855 75.6219 218.375C75.6776 217.963 76.1605 217.58 76.4352 217.316C77.2075 216.575 77.9832 215.838 78.7712 215.114C79.6533 214.303 80.5462 213.474 81.564 212.834C82.4918 212.249 83.5757 211.875 84.6093 211.526C86.8405 210.774 89.0415 210.999 91.3387 210.932C93.5083 210.869 95.6502 210.645 97.8267 210.683C98.9331 210.702 100.033 210.784 101.135 210.865C102.528 210.968 103.906 210.88 105.295 210.88" stroke="white" stroke-width="2" stroke-linecap="round"/>
<path d="M78.2891 221.241C79.8809 219.565 81.7629 218.185 83.5999 216.792C84.7981 215.883 86.0871 215.023 87.4399 214.363C89.2237 213.493 91.0841 212.874 93.0552 212.618C94.7258 212.401 96.3957 212.417 98.0762 212.417C99.9933 212.417 101.939 212.412 103.847 212.618C105.284 212.773 106.655 213.03 108.103 212.885" stroke="white" stroke-width="3" stroke-linecap="round"/>
<path d="M78.1562 221.91C78.7196 221.339 79.3782 220.95 80.1691 220.766C80.8615 220.605 81.5177 220.764 82.1968 220.892C83.4377 221.126 84.5443 220.892 85.7361 220.498C86.9793 220.087 88.1807 219.469 89.3681 218.92C90.1077 218.578 90.819 218.171 91.5891 217.899C91.8263 217.815 92.6108 217.491 92.8925 217.646C93.1347 217.779 92.3868 217.87 92.1275 217.966C91.5414 218.181 90.9554 218.398 90.3895 218.664C89.7595 218.96 89.1316 219.294 88.5771 219.718C87.8789 220.252 87.2895 220.908 86.5754 221.427C85.9932 221.849 85.3595 222.197 84.8299 222.689C84.7602 222.754 84.5159 222.981 84.4697 223.124C84.4258 223.261 84.7555 223.087 84.893 223.046C86.2293 222.647 87.7473 222.494 89.1379 222.619C91.6395 222.844 94.0919 223.363 96.6063 223.462C98.1935 223.525 99.749 223.218 101.323 223.046C103.817 222.773 106.289 222.466 108.758 222.006C111.01 221.587 113.244 221.034 115.513 220.71C117.772 220.387 119.995 219.751 122.261 219.503C123.172 219.403 124.061 219.2 124.976 219.165C125.892 219.131 126.639 218.833 127.49 218.5" stroke="white" stroke-width="3" stroke-linecap="round"/>
<path d="M35.7656 148.486C37.9352 147.68 40.7644 146.175 43.2 146.696C44.1728 146.904 45.0682 147.638 45.8079 148.279C46.7441 149.09 47.3828 150.111 48.0005 151.172C48.7753 152.503 49.7223 153.628 50.7641 154.753C51.9467 156.03 53.2593 157.114 54.4748 158.347C55.6607 159.55 57.0483 160.33 58.3801 161.344C59.8766 162.483 61.3077 163.71 62.8174 164.834C64.3901 166.005 66.1292 166.684 67.9553 167.351C71.4657 168.634 75.3385 169.41 79.1003 168.96C81.591 168.663 83.7993 167.594 86.1324 166.754C88.7141 165.825 91.2014 164.557 93.5928 163.212C95.2662 162.272 96.8568 161.14 98.4971 160.137C100.278 159.049 102.037 157.773 103.609 156.401C105.309 154.917 106.868 153.21 108.436 151.587C110.482 149.47 112.47 147.367 114.352 145.1" stroke="white" stroke-width="5" stroke-linecap="round"/>
<path d="M75.2284 122.376C73.9445 125.445 73.139 128.557 72.8838 131.876C72.7377 133.775 72.2496 135.649 71.1065 137.208C70.4011 138.169 69.4788 138.802 68.2814 138.933C66.0865 139.173 63.9568 139.035 61.8091 138.51C59.8183 138.024 57.976 137.092 56.0546 136.397C53.3514 135.42 50.9468 134.023 48.4592 132.605C46.3387 131.397 44.1403 130.292 41.7206 129.844C38.8243 129.307 35.6954 129.185 32.8516 130.064C28.6296 131.368 25.3834 135.684 23.8552 139.627C23.3663 140.889 22.8523 142.153 22.4079 143.431C22.0517 144.455 21.8621 145.502 21.4585 146.511C21.2227 147.1 20.9169 147.763 20.7753 148.381C20.7478 148.501 21.0346 148.351 21.1285 148.271C21.6364 147.838 22.0837 147.317 22.5295 146.823C24.6317 144.494 26.2391 141.745 27.0855 138.736" stroke="white" stroke-width="5" stroke-linecap="round"/>
<path d="M27.1902 140.299C26.5134 141.958 25.9705 143.62 25.4303 145.324C25.2012 146.047 24.7825 146.65 24.3419 147.258C24.3177 147.291 23.8946 147.782 24.0872 147.802C24.5808 147.853 25.1097 147.752 25.5808 147.617C27.2319 147.142 28.5353 145.965 29.7837 144.838C31.0043 143.736 32.1162 142.397 32.6089 140.82" stroke="white" stroke-width="5" stroke-linecap="round"/>
<path d="M30.1078 145.093L28.8574 146.447" stroke="white" stroke-width="5" stroke-linecap="round"/>
<path d="M29.5859 147.489C30.806 147.68 32.155 148.066 33.291 147.408C33.7121 147.164 34.0969 146.892 34.4836 146.598C35.1449 146.095 35.5587 145.404 36.2088 144.907C36.4961 144.687 36.5875 144.557 36.5677 145.092C36.5507 145.551 36.3353 145.956 36.1509 146.366C35.4687 147.884 34.4341 149.083 33.4415 150.407" stroke="white" stroke-width="5" stroke-linecap="round"/>
<path d="M19.9531 133.495C20.4042 136.911 21.3725 140.174 22.0439 143.531" stroke="white" stroke-width="3" stroke-linecap="round"/>
<path d="M21.9043 131.264C23.9999 129.987 26.2005 128.337 28.7578 128.337C31.2779 128.337 33.7516 128.523 36.2618 128.755" stroke="white" stroke-width="3" stroke-linecap="round"/>
<path d="M52.4194 72.4065C46.9974 76.8971 40.7092 81.3583 36.588 87.2195C34.6977 89.9079 33.2848 93.052 32.2366 96.1603C30.9792 99.8891 31.0093 104.05 29.3137 107.654C28.6134 109.142 28.3825 111.022 27.4224 112.349C26.6808 113.374 26.0592 114.668 25.8088 115.92C25.6552 116.688 25.628 117.862 25.9146 118.591C26.5526 120.215 28.6273 119.965 30.0014 120.377C30.9989 120.676 31.2581 121.783 31.8928 122.533C32.5379 123.295 33.4412 124.001 34.2073 124.649C35.6106 125.836 39.6891 124.825 41.4683 125.257C43.6649 125.792 45.5785 126.552 47.42 127.876C49.6052 129.447 52.0358 131.105 54.6017 132.003C57.2554 132.931 60.9175 132.483 63.5557 131.685C67.1215 130.606 69.5045 127.352 71.7028 124.543" stroke="white" stroke-width="5" stroke-linecap="round"/>
<path d="M41.123 111.96C44.2919 112.618 48.5804 113.075 50.3629 116.25C51.0312 117.44 51.3981 118.835 51.5021 120.188" stroke="white" stroke-linecap="round"/>
<path d="M40.998 117.529C47.6828 115.13 54.3639 112.73 61.0318 110.286C63.3257 109.445 65.6322 108.641 67.93 107.811C72.2779 106.241 76.4815 104.379 80.7421 102.593" stroke="white" stroke-linecap="round"/>
<path d="M44.0352 118.415C49.3722 116.487 55.0545 115.362 60.5883 114.161C65.4177 113.112 70.305 112.305 75.1724 111.453" stroke="white" stroke-linecap="round"/>
<path d="M43.5293 120.567C48.3007 119.963 53.0483 119.409 57.8603 119.308C61.3561 119.235 64.8428 119.265 68.3378 119.301" stroke="white" stroke-linecap="round"/>
<path d="M25.4284 113.732C23.4707 112.796 21.5183 111.814 19.5005 111.01C17.4804 110.206 15.3604 109.661 13.2773 109.049" stroke="white" stroke-linecap="round"/>
<path d="M22.5182 114.998C18.9833 113.988 15.2953 113.418 11.6328 113.099" stroke="white" stroke-linecap="round"/>
<path d="M22.5175 116.77C18.7821 117.055 15.0282 117.853 11.379 118.675C9.63981 119.067 8.61947 119.321 6.97006 119.962C4.82836 120.794 3.00346 122.011 1 123.098" stroke="white" stroke-linecap="round"/>
<path d="M40.2383 98.7962C41.0643 97.1582 41.787 95.0718 43.1425 93.7684C43.7359 93.1978 44.3795 92.667 44.9919 92.1159C46.1804 91.0462 47.6691 90.1516 49.211 89.6829C52.6156 88.6479 55.5872 89.7005 58.9712 90.3158" stroke="white" stroke-linecap="round"/>
<path d="M53.4023 86.0119C56.2794 86.0933 59.1133 86.699 61.9882 86.7643C64.2554 86.8158 66.2123 86.2558 68.338 85.5056" stroke="white" stroke-linecap="round"/>
<path d="M42.6426 104.492C44.8715 100.417 47.2102 95.7679 52.0653 94.4438C53.3454 94.0946 54.6104 93.9477 55.9328 93.8882C56.8071 93.8489 57.6907 93.9032 58.5628 93.832C59.8573 93.7263 60.9372 93.1636 62.135 92.7209" stroke="white" stroke-width="3" stroke-linecap="round"/>
<path d="M43.1484 104.745C45.3051 105.106 47.9839 105.887 50.0889 104.879C50.7081 104.582 51.1051 104.038 51.6851 103.69C52.9043 102.959 54.1094 102.551 54.9971 101.377C56.9573 98.7845 56.8622 95.2122 59.7296 93.2271" stroke="white" stroke-width="3" stroke-linecap="round"/>
<path d="M44.2891 102.34C45.8286 101.483 48.3206 100.488 48.7965 98.5499C48.8126 98.4847 48.9616 97.5721 48.7333 97.7764C47.7154 98.6871 44.9839 101.692 45.6955 100.526C46.2885 99.5544 46.9752 98.6431 47.5589 97.6639C47.6046 97.5872 47.6488 97.5097 47.6925 97.4319C47.7935 97.2525 47.4877 97.789 47.3831 97.9663C46.9553 98.6918 46.5206 99.4165 46.033 100.104C45.609 100.702 44.9424 101.443 45.8221 100.343C46.3061 99.738 46.7645 99.1156 47.13 98.4304C47.2415 98.2212 47.4779 97.5523 47.4253 97.7835C47.2255 98.6625 46.8491 99.5373 46.3494 100.287C45.6848 101.284 47.2818 99.5161 47.4183 99.3656C47.5145 99.2595 48.6549 97.652 48.0441 98.6413C47.4804 99.5544 46.7042 100.591 45.7377 101.117C45.1411 101.441 45.9031 100.662 45.9346 100.631C46.7563 99.8251 47.7006 98.9293 48.1144 97.8256C48.2619 97.4325 48.3502 97.0498 48.466 96.6443" stroke="white" stroke-linecap="round"/>
<path d="M64.666 72.242C64.6952 68.5241 64.9359 64.9525 65.4258 61.2787C65.6922 59.2806 65.9013 56.8749 66.6287 55.0004C67.1974 53.5347 68.1312 52.2309 68.9078 50.8746C69.733 49.4337 70.2706 47.9276 70.9232 46.4112C71.7816 44.4167 73.7707 43.0772 75.0173 41.3042C76.4587 39.2542 78.6499 38.0192 79.333 35.5429C79.9866 33.1737 78.2331 31.0969 77.2015 29.1274" stroke="white" stroke-width="5" stroke-linecap="round"/>
<path d="M87.4597 28.9375C84.4102 31.0248 80.2949 32.9823 79.6725 37.0624C79.1508 40.4821 79.9072 44.1587 80.3795 47.5403C81.0733 52.5092 82.0058 57.5729 82.1416 62.5977C82.2661 67.2056 82.5823 71.7754 82.5215 76.3994C82.4802 79.5358 81.4245 82.8549 80.8121 85.9171" stroke="white" stroke-width="5" stroke-linecap="round"/>
<path d="M73.5944 52.4893C73.1675 57.0075 72.2778 61.5028 71.9273 66.0166C71.7066 68.8577 72.0139 71.6972 72.2649 74.5214" stroke="white" stroke-width="5" stroke-linecap="round"/>
<path d="M54.791 71.1022C55.489 65.4096 55.3376 59.6387 56.5004 54.0083C56.9345 51.9064 58.3946 50.5615 59.5815 48.8379C60.7942 47.0769 61.7481 45.2421 63.148 43.6253C64.5142 42.0476 64.6675 40.6585 64.6675 38.666C64.6675 36.7703 64.4101 35.7699 63.148 34.2554" stroke="white" stroke-width="5" stroke-linecap="round"/>
<path d="M68.2752 51.5396C67.2613 49.1611 66.3511 47.1152 66.1438 44.5754C66.0179 43.0332 65.9961 41.5106 65.9961 39.9643C65.9961 36.9655 68.0491 35.1072 69.4148 32.5464" stroke="white" stroke-width="5" stroke-linecap="round"/>
<path d="M65.5862 39.923C65.9266 37.7468 66.5244 35.6115 66.1514 33.4187C66.0412 32.7707 66.0297 32.098 65.8224 31.47C65.4958 30.4803 64.94 29.5957 64.4473 28.686" stroke="white" stroke-width="5" stroke-linecap="round"/>
<path d="M80.0117 35.216C80.4875 33.244 81.0534 31.2514 81.2603 29.2263C81.4121 27.7402 81.2918 26.2971 81.1506 24.8142" stroke="white" stroke-width="5" stroke-linecap="round"/>
<path d="M218.838 12.3578C220.889 11.3413 223.615 10.3497 224.561 8.06995C225.032 6.93293 225.108 5.68329 224.9 4.47834C224.7 3.31294 224.225 2.29999 223.856 1.19241C223.705 0.738081 224.755 1.22379 224.951 1.27732" stroke="white" stroke-width="5" stroke-linecap="round"/>
<path d="M222.506 34.06C225.151 29.5132 228.518 25.5885 232.05 21.7229C232.788 20.9142 233.513 20.0879 234.147 19.1927C234.859 18.1873 235.223 16.9945 235.527 15.8133C235.874 14.4608 236.057 13.063 235.866 11.6698C235.745 10.7812 235.445 9.88313 235.174 9.02919C234.631 7.31895 233.484 6.03221 232.079 4.9621C231.485 4.50915 230.884 4.06334 230.19 3.77339C229.431 3.45648 228.607 3.40101 227.847 3.11111C227.199 2.86406 226.697 2.41229 226.03 2.18986C225.875 2.13824 225.745 1.95518 225.63 1.84598C225.367 1.59465 225.042 1.43734 224.722 1.2771" stroke="white" stroke-width="5" stroke-linecap="round"/>
<path d="M107.693 212.104L105.859 210.499" stroke="white" stroke-linecap="round"/>
<path d="M101.733 207.29C96.8887 201.357 92.2942 194.451 91.7486 186.608C91.5351 183.538 91.6438 180.343 91.9779 177.286C92.6882 170.787 96.6825 166.192 100.79 161.303C106.001 155.102 111.6 149.452 119.09 146.123C121.306 145.139 123.692 144.266 126.095 143.882C128.756 143.456 131.41 143.944 134.054 144.251" stroke="white" stroke-width="5" stroke-linecap="round"/>
</svg>
